<mxfile host="65bd71144e">
    <diagram id="9a8XLZMGTmlEXWnzWZtN" name="Page-1">
        <mxGraphModel dx="746" dy="308" grid="1" gridSize="10" guides="1" tooltips="1" connect="1" arrows="1" fold="1" page="1" pageScale="1" pageWidth="850" pageHeight="1100" math="0" shadow="0">
            <root>
                <mxCell id="0"/>
                <mxCell id="1" parent="0"/>
                <mxCell id="2" value="" style="shape=image;verticalLabelPosition=bottom;labelBackgroundColor=default;verticalAlign=top;aspect=fixed;imageAspect=0;image=data:image/jpeg,/9j/4AAQSkZJRgABAQAAAQABAAD/2wCEAAYGBgYHBgcICAcKCwoLCg8ODAwODxYQERAREBYiFRkVFRkVIh4kHhweJB42KiYmKjY+NDI0PkxERExfWl98fKcBBgYGBgcGBwgIBwoLCgsKDw4MDA4PFhAREBEQFiIVGRUVGRUiHiQeHB4kHjYqJiYqNj40MjQ+TERETF9aX3x8p//CABEIA70FEgMBIgACEQEDEQH/xAAtAAADAQEBAQAAAAAAAAAAAAAAAQIDBAUGAQEBAAAAAAAAAAAAAAAAAAAAAf/aAAwDAQACEAMQAAAC9kTM7ihksE0MGSrkZQSrRLKJLRnRRJQTNpAoVRpCMoWShM7zRqqgVY7gUlU3BQwQ0TU0MAi89EGmpFwlppSakoAGmRcWgApnpBaAJqSgBoCbiwAIuKGmh56ZpYCk1I3NAgJqLQAUmpKGCm4G0wGibixiYkwbAIuBtUCaJqbAAlpjACKkoAACWqBgRU0jAUi4SwFJqEppgARcWACgBDQRcWAAlUlABNSWACaFUsYBNQyljoZ6Qk3MRbzzzTtWbXLqy0TDHrB00uO2WhQATUFgAII0ztGgWLmkYCuKlLQKTUjaYAE1FoCak1BYAS0WgAAm4oYgmpoYgJqEsQrkkqoC0gm4aUSFSSaEi1JJbllEMV50USxpBZLHLkpyxoCaTAAQAwBTcoxgikSyiWxYZSIYqm5RjZM2hNghsi4sAFACACahlEouSE1IRpKRoSLQkFRQ4qDO6pOHtGRGyMNNQkqQbFTAhtkukSrkCglXIFBLYQykkoXOlaIoWZ0hGULBeaNlEja50qSXSVRpiak2JVJQwltmdKySgzpUIYKbgoYKakbTAAmotABSagsaCakpyxhAXFgAIaKACakbAACaiwAEAMAIuEsBQAmpoACamgaBxcJYmpFyjaagBFxYAAAQARU0HN089m/J1cFdWXUzPTDaLE5QAmosGgmpoAAlyWAE1JQmASTpwd4ABNQWIHCSagKAEXFhlrBz9XN0pSEtRUJogXLLTI6qiwQEXNAAPh7czPWNgmpLEwAJuLE0yKiwACLgsAU1I2mABFxaMBVNSWLM0lonQYY7ZjzcGunPZoSynKLlItwFkMV50USDJCyAuHCaOAtICoZRIFZ0USFSkaEhcOC3AWQKaZ2MAACACKlijSbKy25DXR4i2lluSWiQV5UWQBUMvn15xqs07SBblA6zookOfqx0SiRakktyjHPRpu4FtSBeVlEBLijQkKlyaEheOgKs6KJYnNDEBF5i1AJqShghhFKkRQsMAGyY1gCglXIm2SUGdK0l0LM6QTn0IUbQDpCKCE7EqkACgAmpG0AAKosYgTQMAJqEsTUASbihoBOWUIUTlLEwmsywYIazcWAAAGYBKoE6QpuRzYSrQmMTAmpoABNA0wx0qSgAAFWegCZNRYABNSUAGG8jYAgJuLATJYigAi4LAAAi4sBMm87GJhF5miAJqSgYmBFxYAEVNAAOLgoYKakbmgTDPSLQAUi5KYCm4LTBMCLmgTQhooAIuCkwACLmhgCExiB53CW0wTQqmgAJqWMAE5KExxUlOQYgWmdjAUAMwBJooAcXBQAJoHNAARcWAAk0UKS5iTcljEE3nY2gmosYmEXBYgcVJTkGIJ0zsHIOXJoSFQ4TQQrJAvKi1IFQyyAuCTUlFySaEhZDCs6KcAqljchUODQQOQCpCiQKzsYASwbASqQbQicjZqhDZM2hNgpuBsAGEUqENkDaIoWZ0hGUElBDKJKZnQxDZKqRlBKuAbBDZFxYwFADMAU1JSoFNygULKtENskoIZRJQQtMk5tbk0NEZz0C8965irDZG6FhlEtsmdIGUEq5ENkthFKySkKbhKYKTeaWwVDCKmxDRNTQNMIvM0BijTMsGABFxYAE1NAAGekFgBNSFJgARU0DASaKAFGkF56QTOnKa756gIECKAFGkDYwAJqNAAJaYwB53CWAABNTQACc0MQOKksQOKkoAYBFxYMFADMTFNSWAE1BYAJoTmxAE3FgmCz1hMkuFfUaZYANBM1Zza3kXXNsWAOKg0EAATeehyb4ZHVrGB1GFGsXJWMs6M9Mk0x2FYBnpmGi49i75eoGAZ6ZmgA87g0EwAI0zsaAmpYwAzuDQQOWh1IUSE3FDJBoRTlFwSaEgxAVnRRLBCLJCoqSxIYgVRaANZaaA2TOkDKCSghtklBnRRJQSrkCglXIDYhsz0ixgKAGTFBFRWpAlwItwFEilZ0USBWdFCBxUpXM0Pbk6i2hWARaokpE49AYXrmVCZRYQWGVlEOwww67PM7rZM65mVbozw7IApkFhlzdAFa4xydvL21DsInXMZTInWAKZDoM7mySghjEUEq4KGCHI2mAAnNACCakoAIuCwzLeG5NRYACAGAE1JQMQBFxYNAmmMAJqUoAEwTTBgRU0AMU1JQATUjYAARpnYwFADMZCm4qwAmpRtMAFlzQAE1NDADm6eUpaYnXydYc3Rw7nQRZKdnn93J2BNQaCYY7SYbXgbGOxFxYAE3nYwAz0gsAM7ksAACGtDmrciKmqYmGemZbQE1JTTAAi4sGmQ0xgBFwWACaFU0ABFxQ0wU1JQARcFuWZaiJuKGIE0iyQqSTQkKJBXlRZIFZtNCAuSTQkKJBuGUSA4ookGiTRSFS5LcMokFcWMBWIJQQRcVYhHIinDKSFVQyiUNw0shrfF1cad/PsLRKMrzRsrZjvlKU40W4JNSQuUjQgKx1Rj0YydBz6hedFkBebhNlItw5LcMokFedFqQHDLJCoqSgAmkDYIoM6VCKZmUCKCZ0gasILRLKILRnStEMWZ0gZQTOkAPmOkKM6ViGEtMYApqSwAAIuLAAmppGApNSlAAmhUmABNTQACTktAOWhtA00TcWDTUEEgQRcWMbJVompoAFi5pAEomigA4+vkTsDlXrIojn6eQ7gCahhlzeiYXeBuY6lRUj8r1+Q6WmTeehOW4YbZwbk0EXCaCFJpBUUMAi4sACQRYAZ6ZmgATUlOaAAiosYgBBQARcFgBNSFTQgCLi0BpSLkoaCLgvHaRuaIuLAATljACKksAACLmhiBOaRglctFCBiSNyxiBOWUSDlooQOXJbgLUgXFg0KAEgQZ6RZQAAE1NAATU0ACpVCWAq4+vkTty0agBPJ18Z3gEXNHNvGo4qDTDZmVGZtx9KMeoCLihiBNII1CB4J1HPqtpAVlZRIK86LUhSSNCUVDk1JCkgLzZZAK87RktWkjQkKhyaEhSSHWdDEE1LSkCk0gbZE6QMMDcVEUrJKDOlQigmbkapkOkSyiWwhlIikqVSMaABExgMIqaAaBOSgAmpG01QCDVAAoASBBFTYFBKsM6KJKCGUSU1zWkoFC583Vgm5eBqc3YufJ2cx1FBnRRnnhubLTMbYSrRzYd3IdOmGg6jQlsFNwTrw9RrFwl5ateZ9GZOnJsmoCxcWMTDPTM0ACLgtoGgJqaBoI0y0GAJOSwAi4LAENCqaAAiotAYqm4LAFNSGO0lDCbixMCKTAAM9ILBgmibiwaCamgACakoAE0g0xgiamhywE0MYJVIwFQ0hU0ACgBIEEVNlCYAE1NACVVNAAEXCWAuUUJsJry9WehnjrmnUAqiw83s1k0jTMtoGmEY7WYbgY0WTWYaZaScffkzWLgsAGmZzVnNrpiPTm6QaB53BoAEXBYA0BNRYNBFzQxA4aLJCocGpIUpAvNlkgrzpKIauXJoQFS4LkRoQxXnRRIJyyiWE1JTQAwilSIbM6GIoWZ0hGUElIltklMzZRJQJUgVhC0kRTIWkhU0ACgBIEE1NDhpSkFedFJCjTQACaktMOfTHoUqbSTHoMM9JN3QsLTMo4ek1nSAdBJQZ0szU831DOlaStBcJ6chnPkndGkjdCyWGNAB5/okZ70ZVAaRrAOiJnSKpU4korK50JKCKmxDBTcFgBNQWACaJuKGJkXnogCUi4LACLzMUM6QCbiwAIqaAAIuC2mCaFUWgAS0xiakVCaCYJoGmDQTU0AwSaKACakoAJqQqaABQAkCEqmlU0gARUaCBrIJLAUi800Ezk6+PsWRWnL147LzJaJuAplrBw9lYHVFwWAABCeh5vo8nYZ3FgMDPTIOTvzKy6Mw0jM3AIuNE8/0IlXeeg4ojnrfls6Tm3lqLgsAYio0z0AAi89AACLgsAM9MzRDBCFedjQEXFoAKRUGggcVAqYUpBXmyyAdZUWQFwSmxAtqRHWbKJYqhlEhUODUkKSRVQyiGK4ZRIUhFEhcCLEDQh0mACgBIECaqazaWpBaZUUSDkRoQFySaOGc3XxdQXlRbza83RydSaPNredQl1mGmbk1ICyGTphqRrDVXnSUSLWdZpq5S3DlNJYuV2Gd50lHD2KqKJdETntnRjrzG15Bu1ZDojK1dS2zKlokFizGuYywidYGrCFojOlaSUGVzoQWLCuQbZM3BRiG4BFxYAEVNDBBNQmgCtNImmABNTQABFwWACaG0AJk3FgAE1JQARcFgAnJTTGgUAIAgTVTU0gATU0NDFNSUwCagtpnLvCXSpxRdPN1Hneh53ojE1UXCLPHU6ouFsAMdg8vv5tTH0PO9EipoYAed6PCnZy1K9caQU0wAIuNDw/W5+0xssmlMXFSONfMOjoqKzOjmjpIsi89KaCI0zuxgKZ6ZmgAReZoIGgIvPRABYuLQAVTcJTBVFwBOgwCLiwBE1NIJpRVKWAomkHNAIE5oZIVJJoSFJIshlEgVDLICiQshlQ5NCUWpCqmgAUAIBQ01U1NICZNJgAE1BoIHFSWIDl6+JeusrTHZcpPfz6lkpdMqlMXu1qUi3m0sgM98rWdYCpJTUgW8NJS8N0XAiqxssgVaZWZaMFebNCCLw1gsmChFaYa8cddy6jTOksiljTOkoQpGkI2xZjWEZQslIzotJKFytWkFixOkgWERrANskoMqLILRnRSSrawtJQKFSuUQ2S2EVNiGCVSUMEmhiYDCXNgAJNFABNSUAE1I6mgAVDCAIQFZ0rSCwhlElhE65jdBKuRNsRQvn9dZpXLr0gmhgKRpmmgCoYReegmBGmdowFM7g0EDi8zQAE0ReYaAzPTPRACWLmhgBFwWATlvBnq2LPXIL5+kTiibz0sAJXFRZoClIvOywaick3nojE1jTPREAqmpLExRcFgAARcWCAmosGmE1CWAomkGmoAkXFgAE1JYgJqRtBQgTmhiYlNDaBxUliYS5KaYxNQAhMEARU2iYCHJYIeemZoACAVSygSxcQm4hSahNAFM9M0tpqCDPXLRGJrF56AAGemaaNCvO4TRCViRLi0WmGirXDRLJJVUOy3mS6ZuE2JS3m5NCUaKeYjBMPR4e8V5OzU59Y0zc1bgi86itHCLw14jr0ysokC8bLUi1DksSKzqUsGqGJnS0JVpebbk70gtCjWQGCnSSay3M1oiIvE6ABzpIiwhXkW2gKDOgArMqbzI2GJHKdZgjoWFHQ8thAAAJAqGEBSSUEzpI1YRG0AWEFozosh0jLCtTQoWY1lBaIidZAoWSmYWWklNcqLSSmsRtmjdCzGsI1TWRsyuNEWOoqrDdKE5YZNaIIcVmapoqKgpoGAZZbaGWqCJqa1azjWMWavk3Nss5OnLTlNpnpMd+DrNBFRpnaVFYrpFc51KGXhvklaS1zuNEjTHYwihZdUhnFnRLktAPDfkNd+bpJeei82y0Tlekm81JYAc/Rzjp6BLRMaA+TsZMaIjDqDnrpgmqZHF6EDpMAAAJAUAIqaQAEmigAmoLaYAibiw870udfJufaCgCLkoAIuCxMYgi4tAaWNM9AaYouEtpqo0hHSagIi89EQxcNVKagSmekVYOFnrmWwFGkFoYAGemdjEENMqGCVwO5BxUGuGohUhz9WVW2pEnTKi5TWoaTR5i3BKakBRIOsqLM2K82WQjSCTUzY8tEGkI0IYmqAAIuSgZnOyEUEOkRSol0EjYigmdJE6CVclOaAQMQCYqGiKSSiQqCTQkKkRblFOQVRJsmjLVUSWlmdYQnXmU0oQHRBeIWaGbpmNlEuhZjbNAsJjWQVszLZjS1MnYudzac+xC3GuZQ3ExtmidixO0ArZm7DK1ZJQZaRoYb8extnnidwIedSUwE2jOsLTQWRWmHTSGLKqRok1z0zTQBSazHWOyAc5rUZm+eNHRlXOdbw6DC8tiHjuWDIqaGmCmpLTQ5clNMQBFxYwBADACakoAJqRtMAAAABRMIaaRGTOmakoAM6889LOOQ9OJzNebq5DuzqFz0nZKBK4uDLFdhmGxNTQ+bp5y3ys7WmRSCgAi4SwFI0zS2moAZ6RaAC56RaGOwsTnoWMgjTMtgE1I3NAAZ6RYAEXFmZoHOdGZpy7ZF1clADBGU6aIs9C3LXO0YJRCEVJpDlNCRax0hKQy5QFZ0IaIztmrgLzaKqAshivKjQzZUkmhAXKk1ICyGFZsszZTgNFIXKRoQFwItpgAAgYhWgJz0lErRUODUhGOmexRDNHmDvJmpmFypNSAuBGjzFt5sV5WlymqStLUi1DlNBCuLhKGKlaRKmSWLlRaQWGVlLBYTy9mYPHoiJ1mxOnLC0DKnRDoMrV2QWS5UXZC0InLfMw3sIWk0KyWHTTG1dsFoilaSULI0jYKTUJTBRNCuaRDDO4sEwWekFMAmpG0wEE3FgAJNFABNSNpgCJqaGAJoGAE1JYgcXBQmAAxA0CgAk0lKOQ7YXMb64I6DzdF7Lw507lGK3OfOnrMFJqCw5DrmpM9niTqcR2aed6IAEXFowFM9M00AUz0gsABompsADPTPRABYvPQAAz0zK5+qYM8tTVpgmEXFgAZ6Z6AARcWAAZ6ZlgxRpA2mNNEXF0hhFxQNAJosTDPTNLaaiaFUWgmjPTPQAAz0zKABOSxME0TedjECBFiRUiKcBalirOiyAbhlkBckmhIVIimMQADAQKACTlM8ttTOdoDPYInQWApEMVS6LUotKTXj3hNctpNYBTO2YdOUpHXxdI6zot5hpm4NiBbglNSAshivKy1ITpmzQhqrypLIa1lUJqQSnN0xZqc+8rBmdqhKmZUWQWGNlEOwidYAoJnWKl24gsrDRaJBYZMtczQSFcg6CZ0gHQJUiKLILRmyyCwhXIKwmdJBWEFhmyyVYQDApCVSUACaFU0AwipoAATktoHFwWAAAACAUADPSEmrCFeBqMEVmrfNsmhOa6VMpquLsVzcFsxNo4e4o5NTYAmK0Di6sDeuNnYAEXCaCamekFgANEaZ6IJpY0y0QaFjSKGCHncJYEpnpmJ6Ymzzsi89AaCNM9EAFipoYIedwWDCLhKGKAGemelABncWABIBQARcJbQrlpFcUABF56AAKLgsAcVJQmABFRoCAlpjEwmpKABNCqaGgJqaAAE5LBDmpLAAAABASgFEXCVzdWC6JYp0cPfAcfYzlrok49Y6TPTWTk7ZpXFQaYbhKpJDqhoFjTK0GheJ9STUhGkEGzzF0ghNiEaEgrzZooBaY6FEA6gNFAXBJqQS3BNmrzI5OyeS3r0ypLM3KXlVlkErcOyySKhzWhJLUOa0SYAGdzoklC5UWQWiFcoNgp0zKGySpJookoM2WQ2yY0kC0TOkiLCVaIZRJQQUElhBcgUElIQ2IYRSol0EKkCsENGgmAAACAlAKM9IR49AZPRGdMIrDqMsOlkUkOdIGCHOuZSsJmuE678/0iXQudK0w24+0lRidgStRWKdAmpF850E8ydZz9BGmehz8/dks9HN0oAKk5SwFM9M00YSmemaW01M9A4+vk509C/nfYXfTOxgEpqqaIIvM0aB53BYAAGemelgAuemeiIaWU5SxiqLhLaYpqQaoGgipoYAZ6QUwCLgppgmiaiwTBNMABxUlJgTUjaYDDO5sTAlMGMCaktpgAAAgJQClNwl83TgaY9HOTstSOXtxXlrqhOa+2RcPfmc89mSms0ltNebaIMe3zvTRiaw50Th6Lox5fRzLBLzEdaaCazxd8IFMx2TIvOysNYM+jDQshlZ1BqQFwSavNy1DitXm5L8/sZ5fJ6fIse1xdgXjdmigipJrUjkjuzrOtjMjTNxWrgiyCp0yosyY7ysokHKDQgKzqDUhlIkdQykkKoobkKlyWJijSBsAVQK89SSkRSskoJjaAKCZ1gTpkFBnRRFY9JmUCVoSuDRoGAAAASiaoi4SkAKgztUS2GdFElhEayJaBnOsAWycegMbLILDK1oQWExtmPj7EE7ZjKZC0RLKJLRnSsQwzubEwFN5mgCkaZpoBKRedW04ACBaIg51y6+bpsoxcuuRxHXnz+iVk+FPSM9FUXBbQOa4zbXl1s0fN0ELKjQYZ1Nlrn1IrOjdphNITXOdC5LNqjnOvKsDrmkU0xZ6ZGGzsyjozMuqLAAmpoObpyKx6uQ1vDpMsdLMujHcxxNCmwudOQz7stRgxRSKYhtAxAwJQAUXFWAIBJvOwGlmppGmgi4LBBFwWKlACLz0QYLnpFoAK89Mk1AUy1yTUBRMJuLQQEXFgAZ6Z6AApnpmmjTlM9M7NAUrioS3LVgjPXHSx4bKWYq056tquPvzRbwK+LsiyrzcXm4rVwRpAVFxRn0QgvNlvNiEjUgJZzHYZs0UIt50c3Xz7CrOikgqUjUgLzcGrgKIAvJmhAOs6LIRpAjQhlSIrMDRwxVDKSYqhlEhSGUAA0AAwJQAUXFWSJSlk3DKIYOGWSLWdJGDFNollEuhcbLSHQZWUS6CZ1zGrZnOsDKZJQZUWQ6DK1ZDoMqWhBYRGsDdBMbZFKwidZBUyHRLlc1ZFSSq86Smmrz0zTQTUzONK7ee12zik1MNloQkXndDTIvn2KMkaSsTqJwNeK9ywocYamiVg3zlac2poclG84B1i5zpi8zQTBORRMm14I005OgrOdB42zaTE3l5GlrE3OPsMq59CdsrM989BgCaCmmAAADAlEFEXBTENAkXFgmhADAUmoSwFBom4sAZFxaJMWLlpQA87gtgqz0zS2mOWEaZ6AAZ6Z6AAZ6Z6CGh5a5mghXnpmltNSakKioTYZg0nHrhea7k1Ywz0yTUBcOb0MrNuXqylw3qLM+jO1YhJ0x0KJDLbOjLVoSaLzsErgdyGG8hG0M0yoOfpzoQwy1QTOoVnWZqSFqUZvRjQGW0MVyxDktyxxUmnL0BOiQOGVlYFQFkMbiimmAgACgUoNBFxVOUUSIVlZRAMUmjzZebk0cBakFplRoZsLyookHLRaAI0kZQTG2YFhDoMrVkFhlRZDoMqdElMiNsxrQIz3gCwhaJcrWhm7IxtFgU5crnSyCyIjaKAiNJOausjZZjTNLGCDIq4ZZNmd84dBzdATGB2megRcFDBKuc2xjcs59iKx2LTCRMpZZnTEMtKxzhJ1vm6BPl6RVgzV+f3FS0UDCagi8cjuFia1ybmhydRNTYmBLmhtADBDAaJWmgi4qgAAJqLQAEnJQATUlNCsETcWgATUWMBVNQltA89MzQTUmoSgAaCNM9AAIvPQACallABnpmaJimekJTQrEzPTPSQAXPl6kRrSOLu5OtABSLgjWNDl5fU5rNrGqi4SgYsN8x8/TRz9IHFtpZjsBnzdmQbJhFQaCanP0SmO6ZNAcvVjqMQS5ZGoELSDn60zOdkTQxDDG1ZnqkNAUIKho5zRm+dIM7CdZQXnRRAFRY2gYgABgStAEXNDTQEE3FACVw5TQlFwI0JCiQLyookFedFvMLhwakBcEmpAaQSaEBZILTGy1ITcUUSwEFABFyUqCZ0gasWSgzZZJRGVJWUUS50WQWiY1zsptyzG2VMsInTJKdZjcbGNzoSUGGvN0DJ0JnSBlBM68obRsJUiW6IV8xrSskYQ86LBBGLOgnnOtJjChKsSq5+gDCydMrNDHYJTM9Wig5TqMdClmyqiwAJqaGAAAAKwIAAlzSZSQ6RFKyShZVSlAKRco2momEXFoCCbzsYmE1BogCag0EDlyU5YwCLz0AAi5sBARcGgAouDQQOKgtoVgGemeiAEsc+8Gi0wK5ulCy1ofn+lyWX0gry0gsGLh78x8/Uzl6ooi89EU0jBa0c3QBpFwWApy9OSaxeSzuCc9KzTLZGee+Ir0RyvqDM1ZxX1ZhzdaMtWhtMedhy9BRk9Q497ZhvNnJtpBGoyefqzM53YUgm4oYgVRY0wBCsAYEAAk0KpqwAIuLBNKTUJYCkXBTkKJCdMrRkgrzosgLzrM2IC83Jo4C5QO8qLIBaZWU4AvKiiUXDzNiQvNyakBedQakBZATrjZRJLOmdJRLWLmrAYqz1hAnQmWwdBM6yS2yVYZUtCHWQUUJWyIGMsInWAMeklWiW2SUGdzZJQZvHUpFkxrmNWEE0BGgnnqTSskrMYgnTPYhXmUZaDl4htzo6Dk0N2c50EyaXhB1iYAKgCkOAAQIllWSrDKiiShZnSUCglXIqVKhhFTSAAgChMIuChikXCU0wAI0zsYmReegAEXFgAGdwaABF5mgARpmttAwDO4tGIli4zTcyS3cVTz05IraFZs5pea1Sce7td5qUOboxGZ7mVTQ89wxpdBnfL1meO2Iunn2M7KMd+foKTQkYHVzdWZlO6I3y1Oa1qc3RnsPPSCs9JMnoHD0bUcu1gqix83SiJuS6QGG8kmgTy9kijVmFaozKox0sOfWUXogAFACgUMAQBNTVABLTQACKksAE5Fc0ACxU0g0CEi2hXDlNBJahwmhIWQxXlZTgFplRZKCs2W4RcODZQyocGxAXAjQkLIFV5UlkOVZ1z2LtzpSoZfNtBpNQmjza1LlLAUTEikwOTtMmWS2zK50JbBRcg2yc9szn6aZCuTCo6hDCKVklZg50EUExrkUUEzcgxiGEtWIYSDEUhTcgUCjTA0FJoKhNskoIuLAAENUAWBAAIAioqmIEMRKwidZBUEqwhlElC5spJbZM3IxsU3BTAIuCwABkXFgARpnYxBF56AAEXmaAh56QWAOLgppqAibi0AFhCNTz/QJORnW0BFwnP183QvNrzCd4JWgSMdsja0zGM9zLplkbcnWcvTz9K55KUvoz0MMrxO2k1E0ic5mmmOpnXFsdWG+RU3zGyy0MsvQwNubogz0A5t8tTcETcWJ4yG2WwABlpxGnRlRrNQZ1UmHVh0DaYAhVNAAACgBQnAACAiougAE5S0ARcFggTQqiwAWKm0AFU1KUwUi4SwAi5GwAAjTOxoCNM9AEEaZ2MQPO8zUkKzqDUkLhoolq3DJvK0p5UqRQ6gM3aNCAqCUq5FrK8k3JCkkFZ0FwxXnRRIK4ZG0i1nUpYgcVBYIYkEtlOGZU6KSBiCnIVDRQATUjABATcMmTUQMEwnHoQFApuQKCSpAoJGBUsYCjQjEDAlAAAIqHVEg5EmhDHLkoGSUGdKyHQudK0goJnSBtsmNYAtCVBLbJbDOlZJQZ3NiGzOhibQo0zLYBGmZYADQOaAaWLztAaWbzRqcOh1Rhmd2F8x25xgnacu63lnskrFL3Y3yptvFnLvloPLULAJqWUk1edwlgKRcJYCiaSamgAJqLAGS0xiARJqIHLkppiBE1NiAE5YxACCgAmkUJijTMsTEmhtMYCgCAAxErEDEEVN0hhKqUsTCLgoAAFi4pGgWbigADO4TQBXncpQAJoKmgAIuLAAi5oGhUAjADPTM0ACLzNAABkXnoAJc9c7RoFiopM53JYy6Iq87DM0hHpKWpJRWBoQC0xsz3kE4sZIFZsshlw4NSBbglNSGVKQ6zZakCs6KcBRIWkDRBq4C5SLcMpIFUMokBxRSQJyyhA5aKBimpGMFOkjaYAKAhiCgIBoACLiqaSKkSW4CocGpKLUgqiwTFhjRFBMayBQKNIGUySkRRZBYZUWQUGdqiSgmdIAsJjWBlhEawMsJKDK1oQUGdLQh0LnSaACuLzTQCUz0zssSWpxpNmgYBF56AARpnYAE1LGmhzUlAKRcJQCiaRVNAARcUMAQmUIHFwWAE1BTTAETcWABLVCYEtBSYJNFABNSUAE1BYmCBQAACgIAAAIaqgASqUoGqi5G0ANEXFoCay0IwFU1KWICag0EwBCvOxgE3nY0BFxYABF5mgCvPTNLaFeemaW0wAM9ctAGLnedowFio5k654uhXeeSdrlymWvm2dC0ta4+uUrTz+0shk6ZWUSCvKiyAHLLICoeZuQFQ5LcI0SQ6yDUhk6Y2WQDcMsgLlSavMNIEW4CiQLyoskCs6KIArOi0gaQUIHLksTCLgsAGCoYIYMCAAACXNUxATUFuUVJJTgSyALzobhghFJhM6SBQTOkibZJcmdqxDDOyyCgzpUIpkxrAFhE6wBYTOkidMzpozpaEthlRQga5cu7R8vZzHXw+h5x6CpGeNwdBy0dkXxi7s9ABE1NAATUUMTJc0MJKz0yNHLHFZlc3ZyL1zSSM5o3YHG7o1BmLkNsdWcG7zOtpiTRTTBNCaoACamgAIqWNpiAGAE1JQARcFADAUAAAYEAAAEBVSUEq5G2hKkJzQhoi4tABUmkpMCLgoGKbkAYDRFxYAE3noCaJqbE0wmoNAFIvNNAFIvNNBoJpEXnqJgZ3GgmC4Tvzp1YQEa7IoYuXN28ZRzanRnpoluGMQTeVFkgqihuQTllJBUODRyFZ1BqQy0kTpFFEhzXVFVDOXTQHUMrj6JNahjlo0IZSSHUMokFedFEAVFDcgOQsgLlI0SAmkUAMQrEAAUBAAABFJ0CYRcFNME5FUUMkJvOksgKkk0JRUuTRSxzUjEwGGdzQAEXFgNEUqAaCNEBQTGsFKgUaQUqCWwytWSUGdqyShc20meM2bHn+kNsI4t5NMTYWmGxoxiGGWGXKerrxamt8lHQc4bPnR1nMzozyg63ys6c8pOp4alTUjqaBMIqKGZop4M0mrHFSWAOXJYMSqQaYxMi4sQ0TU2IATTAGJANoEhjAAEMQMQtgQAAASmUiwiNYGrCVaJaoQwzuaQAVTcJaaCbgpoGmliptAAz0iwTDO40EMIbRQMIuCwAi4NEATUlCYAGemegCCbz0AEqw3zQcbHB3cPcWAcu+HQPm6uIrbLpBpgAeZl6klaAZ3NDECcsqWhy0aEivO5RRqGJsHPWrMXsHNd2RbCahlCAi8zR56DlyWIGhDqGMQFZ0USxVnRRAFQynAMkLSBVFDBDEwEABGgCgAACBFAqJqSgATkVRQxBNQ0tJFQ5NCAuEjUgKJAedlEgryoskJuLGSAILEioqDQkKioNHAXIhuGWSE3loMkJuLAGSrkxnrDNaSMoM+T0IOO6g6lpJLKIdMzqbJKRnc2SWGbYJsFN5mjAUaQUnzmtc3UKXznXFs8/t4uwsGQ4RoDI4nB1b56gqkYwQ0DTAEKkxoCamgAIpMYITTAQTU0AmAiViYCDRgAAAEjgsRRNSNUEqwyoolsIoEBgpuCwQ4clgACJuKBoJqLGARcWACkXCWAEXBYAReZoJgmhXnYNMzuaAAjTOxgCjTM0ACLzNGgfL1QcNd/Gdk1Iqw4D1hMmooYgi5oABADBBFwaNA4qDQTOboz0MsOtFUg5OhspAYzbNBMXJ2SFCGnJYgaJKchSQNyxikbiiiWJyFCQEMYgVxQwJQTAAADUQAAwBTUlAURcFAACJpMABADEI4cmiSHLktwxkgPOiyQLyoshivNlkBcODUgLgk1UhUkmjgLUgXmy3AFZ0USCvKynmyocmgmKbgopBNSNWE57I8adLO5oFpkGpkGjxZq8Q0eWg22TNwUximpGxiVyKlQgZnSsQsyqws1mJKsoFaEqQFAlUjBiABpgATUUMQTU0CAiosJqRUmA1KMAAAA0AAAYIJqC0lVJAxMEwilRJQSqQNgpuEoAJpA0wQE1Fg0yLigaBNMYARUGiAeemZYwUXBYAwCLz0AAi4sACLihgBFwWxBFwWAE3BYACDK3QICaiwGGdzQAzGNw530hyz2QYPpDmnrkwOkOeOtHJXQzmXUHI+iznvVmLqibEIAYATUliBzUlCYJyNyxokKgLUg3DKUoKTEqkoGAEoAAIYBoAAAABFSWgoBA0wAIqaGJkpooAIuEtACEFQxkoLxsszRV40aGaLeaNzINc0jUzDSFJsZBrEI2eLNXmwrKyzNi0xoszRV42W8maQpNnky86k0JCpEUACoIpUSUGVrQkoMqKEMIKBNgpuQKBTpIFBKuQYxKghqhNhDKENmbYBQTOkDGyZ0kGMU2gACagKljlyNphNIGmEXJQAASgAhgAH//xAAC/9oADAMBAAIAAwAAACEigwAiADxwQABP4eT0l0UQTSTwC2gFTjyjHBByDBACCxRVwghh3yzDSzRQjiADhRACgAjAByDWBVyWlWlTyzzyACQDQTAxRUQWjX1SzQQAylxXQliTDBnjTAhzCwzAiHiyRCX23zzgjThziShTTxwz03Vmzky2lk0knzzQiQMN/STiTHFOMdSzSTTCDyxUjlDWjWliWRwgwzhDCCxTBxTw3wySiQCDyACCTxyxTiEADTzCxUhGAABDADzdZAVDhyzDADzxzj7wwxHSCgT1QtjQhzTwiSwzwChiwCDhRx0CggChBiyCQiwizQwwW1FHUvGn1X3yQAADQ2OfuQAxTRivziDDvDST+xyhxRSDxRihgyDwwDxXQQhCwzzzmAQASBRzzgQiDhAyTylCG1F0y1mFFgAwDjCQ47jywTyzxjCAggjTDwgBwAiAADDCgiigRyjiAQwxwDDxximyASxCCDTBBRwywBixlHXnGfGXkFX2VTzRTwTiAgCADiSRQz6DhjDziTyCygAXCwxjRTwQTBhCDCRTDiSwTBiCCSQRhCyCQQQhHS3XP/uNm3Gfcl0DwBxAWQBRxQzEOm76OCyjSARyyCR2iWDDDRChTjTgSzwCBBAiwwyCgDQSBAywDTTxgBBB12n/ANdNZNNVRVgAIYwkA0Y8AQh+Y0sAMc0MMooQ84oIBMAAcIkU0cIUscEAcIckMoAgkMccc40EUE8Z4N531pHdrdhJLZJ1AAm8NZh8csMwRl7ksikQMM8o0g8kEEwc0cmcwkIUIks8EssIk08QkQ0YAUc8k8o4Iss08h95VhJ5NpFh9tU8+IAFpAc8IAQ8Y4cAyUIo8A88MgQoIUkoWQIUsog8UoY8oUogAkQI8wM00wkYgQ0809dFxhbBZBld3rN9UMe4BdJQ0E58XgGOAn+OwI8UIsoAdcAgUUUcAAw40g8II40wgA0dI08AgY0MsAoQMgctAFV1hFhBtdJtVRo8ChBRtM1swQPuEuQM6u8YycIQg09M4MAQAcQ0QwAAcMIMQIUo8d0U08Ag88MoIQAQMZE48FJBVN5xxtdpE8CRdp99pglsd8YmgwIGQguQ08oU1w4cwUcEE80ggM54IAEAEIoVUYo8AEsAoQIY0QstUMkF9BtBFtFotRQwCZ9ZpdXIjERzSSA46is4CoEsAkdo0p0wIUAAkc0sMQsAAAgAAdwgAs4QQggoYoEAE88oAVVF9ZFxBE5BcwCJZpREQQRURc+pE+S0sA8gss88o8oUQooccocUcswAIcsAIkQBI0MgcMgA8ogkwNJlA1BFv77dPBxpVB88GAJdtUB5ldMJ3LI2CGsUoE9QU3VkQ4UEkQu8aAIQAUwwoAAEIJEw0M8cgAA80oUJR1IdJBdt3xptpVpB88CktBZY9AVJsV+fgq44U8A6UwUKUsUxAMeFey+MoIMsoAUYMMcxwMcwwc08Io1AZFxBxVR3rrn/AA/2855fAAgGWY8ffbaSU4B6F7Uy28/BcP6AXAHQNKmGALLpKOcBMKEFKTacKKLGAAAHBBfAVfQdXfbRy6/1x4wx1XPPtPfeWdYbadF8/wAjntACS4ZgBuLSjxDDzaKrxYJR4UQRSwwhlT3iGCigCgRHyHDVn3E0lG0sf8+tvIeuEACYDHnX0H3/AFEXhLEbKIFd2sdIdRRpEwEUWWOcmQ1IlEls9AExMN4UgooAoExYx8FRh59pRpdxRBdAABVhAwCoJRd93lv1gnBJ8zAQoklAYMEAAcQhSiCC+Oii6+J+NGt4Q9IpoIAoUYoccAh8tsJ591N19NdJIkbJdVIAYo5t119xp1E9M9AToMnIc85sRUktcJy5u3Wq2eSmdLBvFl1ZxF0c41cdxURRRNVlBDNR95MBnVSGq+SR99cwVNXBHBFvtPMbVrEI/IT4XA5YItoVCwuGiCaiyKUe2qG+aCIVQg8BkJ9MRhNdhpcxxd1thdlZIcGYiZBB8s5pp5thlpkk4w8CcM104otoxgEZ4JGA6yiCaS2um+yiS7XkBl4xspNRBJNlhNxtt5hl9h8Ah1+MOu+JNNQklpP7tltdFt0h4XJ9rpXsl9ZJ5p8hkUynuSSymO+KeCOumbzx40gVUcldZVJZpZ5VRdVNhp9BEg40s999AQ59593NRt0XEAYk0E6ooc581gElQl8cuyiGeq2eeCma6+GD4d0IMpQ9VtFZt1pVZvLn9XX6OvmQKOKhhNMc9FTF/fllFVx7sI7wzQb0l0lVUFNA8Mm5qS2uluZzT35S700J8Bsps8hxpRdBdpNB59BBpGeCG86OWZ9Nc49ZNRMt4NgUI8k0IgVAVwwUkwYpsI88CyCS2qqCCCW6yKS04MgAIBoAJRphVplZRtp1BTua6CyeG2q59xcstNhx4RA0Uo5pA41tTlFgJR55R1YNgdqpGWmaSimiiOEioJBI5lpB1NplZBtdZVpTRfX7ee2Sq+uuCVJB88VBBNoVABUwgYQYIgcQ5Iw00pUtskEN6WOuyuLCyGa6Dy2oAY4o0hsdl5JB91JZhbd7rDWayeC+mmyV9Na8VgdldZBFUawRhYP85FFsFNx1dxdhRp+tvMJaduJzhakYE5A4k1tFJFhRZpZlbVdDxH3uCCeOmi+SOJtBesBlVJJVR7JHRJFgTx9APIE19hk54p09iTqOzauCQuuuCWyRAp0Ng99N9NRx51VpVBdB9LeSGy6i6qep99+shR9xYLZ1w94E1IJp5MrIpdZZdl5Rdpqk77yGdXZfxP1zhx9ZxdJ9Z1hVRtVpxtxjEqNSOGCeCKGWWlVxCUpVxvttBLxfxF/9r13J3JZt1Vdhtx8hCEq+HK9mCCTC+GWpV5xlxZpJFBRRRpJ9599B/P5zi7KW6oellNCC8A9FkVVpNtYAPghcVAXAohdV9pkBqJGLuWtmDuveBTx3FVlFpZJpRJhttlZ19p9tFBV3oyKemqi2SV19CCQFZBZdoZpBtg/9rtDJbNZVtltdBZt1VJZyBy3uXKbaXWLN55tx5ZR9NVRFBt1Zh159hTRyOSWu+Om5VxCYQkd5VZoj0ggYH4pVJg55dBRBRB1BMVIEuirG+6HW9Cd81JBNhZxRlN1BBxpV31FhRn/2hCW2eOm6GpN9Gmokx5NnpbJFnJvldVz1lhBH9ft7Z1RRBUIypWpTxTNYNBJRRht9BJxlBRpRJBp15JtrBd5qiCOO6gKtxBuWsUsZBp15kkDBZAFtRYp9t3xzdVBBQRsIDCW6vqiWBQp51h1dhdxtYlV57tNhhpd9xvFz96GVKmiMltN9+ewxNl0bd5ZRDzzBnxjZPNFPd3ZVxhRxQAQetKSm9qEw9lxtBlN11lRFxJpJNBRZNZV3hs06KMUQcoVx18+aMpl5Qt8RoQxNP5jZDBNBBH9RJBB5tJsQh2KmmiRAQQ0gEJtptlwJ0hhhxVB51JhRVtdgY+6g8AgAVRMwiCqNBpUN8UE8pl3NHBTldjN7hhl/xJNBRdJynqlUt1NtxpRZp1Zdxl5d15hRlZFJl1xhJDrqDHK2Y2RJA8aCuxRt8x91gUVtVJH0VpBtJ/phBJBl9gsAROXGs+t0N0BttVJZFZFJR5pxt1dN591jldpPl91DRtE0BlwwGiqAAd5dBFhARhPgb0PZJTh1FVlvZl9xxEV6d0gUFkhgJhJdZhBJJBR9T9xh1lNxd9NZJPUuQS2t0495Y8GKqwERxxdRt89pPZDtdVphhlNJBFFR9VgEV8YgMspo9kd5prNJ89ll8hZlNx9dV9VpFo1i1GKCjz5hZBMMKCKc8FRBFdJUTY1g51515td59lJTB39BQo5s4kQAJQJtFdx99lARRF1lJpp1FlJx1F9ssSC2y2+KyvtAtN26CcgZJFppJkp9zhV1hpttdtJBl/tRNld0F00swgNsdY5x5t5VYZIRABdxRxBJtNdhN44MIG84I2K79QxxMOO4w1JRxg18gAfUZ9dp939zsZx9Rv15ZslAViQs1EFtRtBp59ZFkdJdlddtVxlh15xwAYAqwWIe+S54kAa2K4URp1FJdcdpzpDpFbxj9ndH17x/1Bx9ZgF8xyV81FVd9l5FVh8x89J1lBdN1BFpBIsQoEQoQiAhJYoA8+q8Mx44kwpoF85NtZ1z1PRzhHUBkFxVtwN8tI1q1ovPZxxXt5N3B95xrJrBD9vtVt4s8IoqUI0uJddgwwAe6YMgkk1tBppxxhXjF/JzlzxDRvnL7l3FVcF91pFxJXlV9Pt5lVtN0Z1hj55NXBBpBQw0NsgIMAJl9AsAMSiAssk4ck1M95RZx5l/tfVRZ9AHA11ZbhZIRZ5AIwRt5t1Xht1NVrt5hRfpVt3pJZNFAg9gwsNMRxdMM8A2KA88ok4odNRlhZ1VhvJPFvFLV/dfVp9dBEhB5JNpZBB9BL1dJRpRh1BRd5hRZdNB1NJolpNF5Qt5BFNMAcSUgcUUcwh0lVhtAxFjRrxxRRV5dpdtrNBEdZlVRBJ5ldp1d9V5EJB91l5hNl15tV9hxJ5JNttERNl5N/BQiGEoUEcIVVxJZFpblPBzJrV1NDtB9F719Z1t5VRB1ppNltxlt1l5dxtJHZJFT5F9ptt1ddp1lxN5peKOhBCikMU48klxRFJRFFtdFl0DpZhnZ1Np19nBzRFtBlRN9NF1xRFlh9R5NtFRTZrlhdt9MZlx911d9lyKCyN9CC80UM0UAJZRdpVb1PRvNHJPZnjZhlRp7ppJllN9xNItTThppdpZxxp55N1ZYRJ1NJp9tNJ5ZtdV2iCC11GCcI8MoccoBt5BdTpltRBNdXxDVBLRBBFhRl59lBNF9/xhplx1ltd5pdd5dlplpNxJBt1VdVpFtZKCGCR96Ocs0ocI4sBdpp1D9jB1NLxnhv8A4Wyada6WaeQQfURZfwfzcbSfUcbVcXYUSbUcWcaUWUbXccaURYgsgv/EAAL/2gAMAwEAAgADAAAAENcuqqrhhktpmuWGel7y/wCa7r7Y5Ooda5boOrZpp5bYL5ZeLJo4d7rKbqb54qZ5pZIZIJ5Y7oJ9b8J9fv8AsMluyiWOyaG+Kqrq7aHXmSK26Cryz6TeaiG/q2KaSKGC+GnCSOKzTHyGiqqG+KaaSy+uO73n3mXWbbjnL3A8NWWFple26yjnBp96qy2Se62KT2vmrCnTufmSGeCi+uuSqKiq+zCi+WOO+W62W+OKSi2fWqeeOuTaTK22sMp2Vw9uKm2uOKOC2aus22+ry6e+TWVaGqe27K26SSCrOy6K+CivGeDmCmSuKmKyu6aa+33zjLpfPbXnaeBxpe1ikFCiyu6CtKW6mtGOmlOeKu2S6WKWyC7uqu+Gn6eqS6qqSv2CO2HjKCOa6uCqWmuTCf3bHynzHHGCBNtmmYcqu++2q+u+eK+SLa3/ACmsrqjvuQ1mzWZZZcde6cxxsrqko2ms+z9xxxtvsktsslh6/wBtMWO9sP8ATnp9Je+WmKWy2y6OKiuUuePXPrvuKuq+vheKRRprFoZtOnTrCy6yeyCeminT3rC+eW6Oa/aTD595lrr3Fl7X1BRmWPaWeyOG7NHUQJ2ePqfm2CSXjmHhx3hBpX51JZTF9d6n2yC2uKj3fr7Pnr6aKWGOuXjr5zfPLfb/AK+4fSdrlnjkjint0Dkrgsj1x55758i8tFyOSEYcX2XSeR0Qcattjhqvtplsy7+32kjtt+ry4c64awZz19fy/wCH2NI8+P55obaNPFrZz4rpbNfY9rcYr4gkyfaXv2BGkWkdGbc4rJ4LLuf9d99u+sL5oY6ItftePdO/ePdefE3+ZZ/ep6LLLI6JrrrA78fOPfvdP9HmFmWs2kn3FXWmEXHesP5JoJZM+MvOuecbroJK+ft88XvvON+GnN8E1PY/89qr5vqm7SirVAxKIOOJ54NdJYgll2SWkG0VF6CAG8uoKL8aYPb+vvNs+4bLaLt5ss8fsOtd8scO+k3MvvMsaNYr7ngai75Dhp6T7raJKu66WG3kWX+10FFJESG/H6LrOfpc/wDXTrPX/m62OP2eev37XvTXrDDDt9DXj7DTXOna3KmgSCOYqyQGqS+cXa2S0yZCFcJcUkn42+aCCq23eurmT3TPDDbbmG27G6iz3zDzfb7u7Tt9LPzznftCp6bl44SKQ0G+I6Oy6ab+Efo05fNpJJqlsgGOauymqf8Asqe75w4x740x/rottji1z230442p64fbyx1w5ost7p7vL3jHJhgtnruniglAPEOBfZScWfbVPGjBiGrph+qjth6z38mqrgg259h560TTJ0U926+xsewt7+/kzx03r3cZqCPJuhg24shUxBLsCHXPyGwbeTGOjBIELio5GuJhkm41srvvmz2yj3/87zV/03615xjt4u4+6iwv30iwNVlBnskuuJtkuAKMAYOEsa6t1fdWXaNJGHAkk8FuLugnknko0t6+5z54+cXelcCNACc/vk3p05c87x/yzbnTkX7SYYev4jTk0LH+FJhJIgIqCO3MBJLMj67/AKagb9bY/aIdbNeMsvd/s1HLvLlr/tNILPre/dsvcfurXN0J+04ZqBArzGTBRDjmyaq6BNIhadDCjQzyvQsyWBYr57b+LN7tP9vufe9nHb0Kh9YrvLLdbM+MOtPlPYgsTrGibOOBJcTPN8niLFwZJIwZjlAchGxPSTtS+ShR64qIadbv7d+89+uO49NtPJP9dbuL68aPPtuiv2Ma19d4W44LKeJ6SrBSBBO7oaoqusb6oH4kYHgx9imyTj6iR46bY/btZd/Ms/LI5NtvfBKr8oDkZ+dcMc9PtbuZcIGIKkorLeBtTwfhMK3YeI5YJKaV93NHXHOk1QwC+j3MjscOsdtdR8NeoOpi9lU2WlLf8j5v/FNwduldgbkfUKp0LUrERtRgPRnqz65LJaq6aS4KZ7raIwkxBzsyUmiHH/uuu7J9tvo566adeUsFfv8A8SzXznjbHTyqeaKseO32qq/ojIEZAxSQC2qiWKqCm+WOOTDEVVo9sdxtNJ1BTr/rbzjObSHvi6JPRhNKPPQ0fTcx3PjiX72nmtbDZbVmT/fLbfoHAIaD22+uSyqeW+6m2jvxUg4PA0dRdJT77PLX7H3WL2KCTbHbzqzzUQHXjT4HnXmJmCMu++AqCm3+3EITMjAUa2uraWyii66KKSGTMJ00cr0Hd9PF+7KHr0AkKsQhxYVfF95aT/MYTfgLtpbrDLf5WidapWJ6HubXwThy00Cdz6DiZSxfHnhyrMo1Il0N8QhhnfrHjfTzH/8A0ura0ZX8z0zvzzRAz+42g4v+hpugtgnixqzGqNOJF1LBdttg8/0/vpnlmvkkgIMMHGB4LOZe10z7z8wg5lnJUfw/4U8z4v8A93hec9P7/I6YIuOL4tdmtNrMPdFneANhdakLqYrLaaKp7AZS0FSUfWuW1tMNsJt8NPBsiL4Vc+Oee8XWrc/3zfPc8JfLPLYZJr4IRa5/h5zRlSmyzQGYopp64MJaZ56u6rCASSAg/T02/utcNsvtFuRuL/f9vPMPeGIPOelt4f8AHDfz6EWXfmhCfPv+jX3zTr/BLHKZz0tm929zd24c4/c00FpPTHzvariHsjXEeMcpTvTLvnm7reT/AL8d3+5w3z6RxF196oS/zqShCSasLxHTHYtzsuwBgrIpomgnr8PZIaMweQTUyUu4/wCt5JL8hM+NPO969f4MP/m8PvMb3/cL+Zpso9NoaFKcv/8At+NS9zqkjLG25ftjBfNjF2P6pBFWrRmXuriP2X7MfJWJFlDj6bP7nm7PPVD7XlPr38f8bPJXtbAXZ/jf3HtSBfMRaAaSz+FaGG/K6myXFPlVNyBxd9/nzJyD3C/qcgOIZS/Ht7ZmL/DDaK/P2z3X3faexC3+Le9SSDdXxOY/6V2nOGd6LqfCVnJHxGlHNFViajTbfLKfejrW+u34bprvvDPzhOXzzD6Xzf7nWDPPHGVvAnQLlbfyHOjWC6l3NxV2RGv27WPePqHVBV1FBd9fnpD/AL7w73wz9s4BmVzw336xb+/wybgi7x0/qQtqoiTp0x5r12w4YpezWhJ3JKtg8uon6gRgaOZYf5XQRh3y6/5826P3w4+IWarWy525y5fz/wAeNaLs/uG+WNvlNR+9ugfcesANS/S9pPvdCiKXpm+0e3C8F2MEFlV1vccOuZt8dMdcccn95IGv1GVkP2dfOddB5I+tPeN6bkceL+fP49/si8zcvGfAOwiso7KNY5L1jXlUcnsP8MeJf9uwP88N/dv8j7hIkcZ2XFtoc/NNdwte/I3euPMHXC/Q+y8HfNB9zcucJEHxxxLnapJW6RTe+Nfvdt9/OOtNPPcse98/MfjK+tlGdu+cOp9sIudwudvJMr9Lr8uXuA/0dMfdj/cv+HZ33SjUIZr5onQjhxxzdve1s7O79/sPvNsvcct94Mu9UkNNvMcpN75uMZEstae777oPu+dX9Qus2eiM5cRdYlE0WU7+72jlUuUV/uoP+MffPcOcs+/v/rc8+YqPiA2ASnmt0KML7vO4M88rcv8AK6PDb7JqPD37vcX/AO/89cdDEBQm8vOvRLWBWfZx3y/0z/1z2/8Ats8t/Mwp4fy+Jvwt4+sK+w5cerzYP9v8OdLe8mLkZ3f8CMfcqeBvpW/kQMJXjDxnDewsMP8AvnLf7nz3U/vfzfSvzGGWXoHrvBNWvHrnY8bTr6uvTDP7fGXrF7hvL3bXbvL2jnHzTh40JoogBgpo9AL7TsXKKv3vi7fDfDbLKPH+WfKp6lV9oUqyn308LPfUMTP3HnTapGvuH/HznmHqPqLVHMTTQoxI8IYAlg3xXvbCjfG7jjjnrXffnL3zWqaHD/dP9d9B5wXWtBJXrAUzT/fjz6b3VrnjbnPKzn/vv4H2/jVQHwIYkAfUnsTvn7HneP8Ar1i4zw28+29zw7m1xy6d4y9b9Gxucdzz0MKyxz2g3hiiOk/690zK1Nv/AOOeDv8APkjYtaIIdAbjPqPTXPTPerDbXXP3fzb3OCWHDTDTrdzNFxH28MlnvE4HnnDbnevXJ3k3PgDIPk3obMLYjXvNxgdYFe7YLvjjDrPTHTC72/zLP/8A3w9/upvwz559yx7dzm3BPA8XwLA+llpk9g7q75o41TwH6F6al4n6648H4MaP6tytIL8+zF965X8553e6N8XwDilox0+38Vw/8Xg44MMP9R3DDrhv+x433997cd5EyC2E5J4WUKGmA66PVfCTSxkF08wO81811ht6ywb98zO8hjg3y+h070z9yz/GPM7Q3DOpsiuo7g3x/wCuvcH9Ctv+/a1YrfejfuQ1GkATxevdo8h8MvvPQeN+cgMK/wAv2O2iv7Onvj2feSzAc8/J3w8SeCyKXLjTjbj/AF1H3J0T8C9O5D6wtz2G5/ZfeXh67nxLx2z52y1806wx5313mlkij9iukuh5ks9afH57wUTtjgoo2s5x74s65H2Ox2w69k5846HV9Nee6UfX9+786ry+8ys9y362x3y5v3+5qkng+r8p72r9Scc/r2RxROFpjq0293w42WzB8B6Q960H+t2+Dwr60yz9mI1+3zwk/wDMIetMcP8AM7TbMbzXiOGWbifyXj/jZq6+zCFzJ04SWa3zPHPnrnXXbz+cXibBH7Pr3LsnIPqHX/DDTXDjb7jSnHb/AH85k9P9M65ytvxk32164x+wutji/wD3PFyzbKLoucecuv1sksHNXdhfw3dK97MiOeO7Mtf9ufbxS9f9sOu/8s/N/p5ddPMbp4tue8M/tOHaIIL+8WvmDT67Y4b89NNu0suMf95+HPl8Py/5Pdu+f/dPPMMtSdcPufPuNfOYeJsq/p9d8ZvMtcOMMfM9GYIYKcMEN2E0CQi5LtPssvBdzN8vzvxZKENAu77C8+8Jt8d/vvi908scfcOfc897+5+PMONOfde8Pt8tctloLIL/xAAnEQEAAQQCAwACAQUBAAAAAAABEAAgMEERMSFAUAIDYBITMlGBYf/aAAgBAgEBPwDMfwF/jHFcfwtt/D/D8/8AlfoPzeX8eOa/uJ+xT/tfsA/P8uP9+ufTbR4/Wm+a/X/Tw8/lxw1/l+zk21+x5/P8n/30D7T8ExPx2wzPect0/Fb30n0GNQWuvecLYfA1Ba/HZKMbLiJO5WOfBB88ozudynxijI+2/KKMJeekWvyij2SuGGH6ZRn1ZzaxzDZptfmFGfnEehpg+OZGD29OHT8AwkvWU7wnoafgGR6u8f7v8S3ErDi5ZPWLyjG03uqZ/Hu7mtEaaCty0Vq9hsKJMrRjKMjBXPixsPFFjq47ncanxRLDr4JRmMJa2EbluO5biWj2jMS93HcsNcNariiDu3jwWEtxauYsLzFz4ynctmrDu3UEGExPqGFosMJ3a9EasO8J8o4rx7hXLlbi8+ixqwv0XtxBL8jx7GieWOWuXI0ZCX2Gi0tdWaYO7W4gvPQPdS47v1BXijjmCmGwxmRtfhGM7lh1cYSwwPonoNxXFcMcNPRcHm3xXitV4k4rxDce6eyxq1o7lhjUEHcFNxa4z4fHm7zJXDQea4a4aR5oK4jVcNBXFHcBLYS4WwznoabuWzlrTYdyw9EEEHdMMNh6BBTjKM2rDuWGNRpgg7ljRGmwPMsNhXHsNpRm5jTBK28tcvEEqwvmzTBB3BeMFOcymRu3a6jUaYJYYY0wbgPNrYe8UXkveNs1HNq2aJ5ZO5fYLX0nvG9y1qCDuWGGNPtthLRT6Tje7tNeMWmw7+pojTe3G7WGNRpsO/bKchk0Rpte8rDGvfIMpmL3VrckaI1R7xYXNp6BL3lYS4gyPolNraZjDq1zHtlMljn0ZdeiQfDc+s+m9uIPdbCx9HTe94CWH5r6Z3L3iMZ8MwGfcvcOo0Rpwuo1GmCDv5pjJe7tMEc+Ze4WfM7jfoPy3uGNWEbl7hyuN9k9JhjVxa/wNjRje7iw+UUegxojTYfDPWKPS1Gmwv0Rp+S03FFhkbNNh9NuKLDE4juXv5zgKLy9u0wQEvfzm7//xAAhEQEAAQQDAQEBAQEAAAAAAAABEAAgMEERMUAhUAJCgf/aAAgBAwEBPwDM5m0xtp5yGGTr1ljaY38M6zceFh/Fb2HA9lf3wd0fyJX89eBtIbQwOA8TlLNjX9V/n/lHR4HxfaMJ4mG1uIfK9ZtlpYlpY5nIS+VvbSNnlPOdSy5CeDEyXMlpgZPOdS4m8hkptbdsMMngLzwHVEOJwfZcfFcQ2kcfa4MTe+M6ouM7JG2GGiC5kg7hhvZPOUZHz7saLm0vPOUSyQWObcMkFjDR1c2kbIb3xlEt+4fA18ymEk9TRRLhZMrJcww4iN4WG9xFEt7DJ5mTqnEZ3OZiNxu0KTjJu06rid3kbtLymXIZCCNxvMdYTqW46gsZGx/BGN4PssPPEl3EnUbb+K4KLzqmWHEeMkaO2HC3Nh3TJ1G286gjd+2GH8Er5ZzXJaydTza/ZI2wwydQRu8xuFy8EBG4dWl51Bc27Y3DJ1BG8LDDa+Ys3DJ1ZuGTqCOYdYOZZOeLm37zTicRm3G7TqzcMkHkLGS86ufMYSzcMnUbfByVzR1BY+BxGXmPtPMfb2eK4nbY5iCx1JTkZLzNvDuHUMkbbnIQWMPoPJ9ndfbDmvuHiuPkFvBXEcElfK4hkp8xiI3eRtjd5JT2Q2PgdePkrkuLW0rkj5HJTPRXODmzcbh/C4K4MZa2kFje2nUFjeXOF1DmcRY042iCOeGuSOSlOK5sNwN3LJG7zq5PKWljTi4rijq5w7hhk6s3edQRu5nZeQ2lpY0yYSzn6Qw27Y3XJTx8hTiuSuShjn6zyUvVc1zI/II3DaR9wfbywtcfFBZx9Ia4jgs4K4K+cw2nUHbY2hkJZIJLiTAYSNtjftjcMNHUHUbbGNechtIPEV9o5jiGuKT5XF22uCuDmuCkK4K4OK4IOo2xuGH0tpBibWTqC5tLNkNpZuGGjr8lwE/bCw6s3Y88dydWbZ4JfS0eg6pxHWBk6s2xuGHG+c8W3CdRtu+19sLN491weHeEg9JZshopk6gjcbx7hhk8hgaIfAYzniCxkp8zRjKMjhbTGdQbsYYaKfI0Q4SjKYFk6ueyG06jbYw5jCUy4i1wE8RwYtt+oII4h1DDjb2SnC0SZSNsbvOrNsbh6k6rkos3DkIKcLRT6izeVtILmGdU3sON9BBY9l5G2N3nUEbbGGTA5X8B6kwOq4p6s4ojbG4YZ1gYcRT6iN2PV+2Nw6tII3CnJDD1Rg36SDMYS7ZCdQ9SdQTxSfSNQ9UWGBkp8ZmMOrStww9SdQWbjVp1Bc5X816s4owPUkHjfUWlhG2TFtjeEYPG0flPUPVagjbj1eXFjY2l5a53xbY3DrzbhsfW5Nw6h6kgjbG7+PlffM/j7LzqD2MHncLftjdvNPUnUFm4dY94SHwlv//EADwQAAECAwYFAwMDBAMAAQQDAAEAAhESIAMhMTJRcRAiQUJhE1KBBDByM0NiI4KRwRShsUAFFSQ0U5LR/9oACAEBAAE/AuHcoqKiiUDcpgoqKjeoqZRUUFer9Fer1er1er01QOqgoJww3UFL5UFBAXlSqVQThcoBShQCgFDmUFAcW4Cg4t3pGLt6HYU9/wAUsyjag4tpb13od03pGLqHZShR3fFLcKHdN6RmNLaDiKRjQ7CnrSKHdPsupb/us5lBShQCICbhR3UFNwoONLaHf7pjeU20icOD8E2aUxKFHd8UtwFDsW70jF29D8jtqf3PilmUUHFtLeu9Dum9IzGh+U7IUd3xS3Ch1IzGkUHpSMTQcKetIoPSkUOpbWcwpbhR3CgpuFBxFDCS5ybxLwE61bBNcHYJ7pQvUtIx6IGIVpcVMTlVmSW3oiITTcW6IUd1LMKHdN6Ri6h+U7IUd/xS3KKDi2lvXeh3+6e40OwKFHcNqW4UGnrSKDwioqPCKioolRUVFRUb1FRUVFAqKiooqKioqKioqKiioqKioptZzCltBxFLaCiYL12px5YqyGKL5Uy1DjBWroBMaX3lemYqzECrZpcApeUJuCIBJTbNrcOMMShR3CluFDum9IzOodgUKO8bUtwoPSkdd6H4U9SoqIUQnHlKBUwUVFdVFRUeAJ0V6vV6MVer1er11UDqoKHAKCgoIhQUFBQ4QUFBHBBQUOHWkUH7JpbWcRS2g40ji83JjYQKtciZzEBHLBWZ5U9kysbOSMVaNmTeUQTsELlFRUV1UVMoolAqKiorqonRROiv4CKvV6vToq9Xq9XruKvV6g5GMEFeoHVQOqOYbKHlQOqgdVBNwxUPKh5UERhuoKCgoIDHdQUFBOFygoBQCgF1KgFAcHYFCjupbhQ7pvT1NIod0p6mg4U9aRQen2XUtrd0UVFR4Aq9RV/CBUCoKCAUFBPZFaKClbooKAQUAocHYU9aCm4UHEUt/wB0Pwp7jRMCDehgKDnGxpa9oF5Qe09eJ7d6W929D8PkUjMaHZShR3fFLMood03RIGPFzoIYmgpuFB6U9TQcEKO6ltB6UihyFDf91ngVYRmtb7o3ImARsm2wMSfhWE0krjGHVWv09xcwkOVi+eza7/KNLaHUjE0OwpiJqW4UHFtLeu/EufG4J1o7A09x24ud0TR/Uh4TcBQc7fmlrYm/Ur0fKY1wxPB3bvS3F29D8tPcaHZShR3/ABSzCh3TdWjJ2oYDhi/ZdSi93QJrw7AomHBuFB6UjE0OwQo60ig9KR1odS2t3A4L6bIT5KtGlzHAYr1nsucwjymCDUV9NkP5FGlvWh1IxNDsEMOLjAIg+o2luXibRo6qYOLYHrSMTxeDC5SiBjjT+58cDgpXjBNj6hTcBQczaWiITTB8OLum9IxdvQ/LSMxoflOyFHf8Utw4RJQCPShqdiU606DFWTZVaQMFG5AqKmUUSoqKiorrwiVeir1er1er4q9Xq9XoRV6vV6MVer1er0FeoHVQKdFXq9QOqv1Ta3YcH3NK+n/SanYLFp2Vh+k1PylfTfotTqW9aHYcbR5FwQbaHMVYk+o5sY0HBDCi0/Ws6W4cTZsbeUwcwPmkYmi1HKmGLaO/4okg8u1TTcKDiKIqMAU1RCinHDdRCmCmCmCDhEqYKYKYJxuUVMplFdxUfCidFE6IkwNyv0V+ivV6vmV65ler00XJ03RAOQadU9sYINUqlUqlEULNuilCI4Cg9KetBwp60ig9KRQaW1uwQThEEKzbK0BOAIITbJ45JrkIAQVuf6blZ3MbsnFRUVMooG8qZTBTIlRUU7ltYnBPtgArEGYuUToonRROiMYJsYK9c2i5kWxcCr1zLmV6Ey5lB2qtQ65dBeoHVQOqgdVA6oYlQOqgdVA6q0BgmsuUvkqXypfKl5vhSqVShQQAgpQpQoBEYKUKUKUKCa2KlClClCd03pGLt6HYU9xodlOyFHdS3DgBwPSnuNIwoPSnrQcEKOtIod0pHWhyFDa3YIBQOqh5UFC9QRs2nFShEKCgFAKC6mgocCAcULCziutLcKDiKR134winWQQuFHcaHYFDCjvG1LMtBxbSzruaH9NxSMXb0PymnuNDspQo7/ilmUUHpT3GkUHpT1oNPdSKD9l2CFDazghhR3UFCjrQcEMKOtLMKHYtpHWh2FPedqDgU3KNqDnbsaWYUHt3pb3b0Ow+aRi6h+U09xodlOyFHd8UtwoPSnqaW4UHpSMaDhT3Uig0R4xUUSoqKioptZTcKOtBQo7qDgm4UHEUswod03pGJ3oflNPf8UsyN2odnb80twod03pb3b0Ow+aRmdQ/Kae40OylCjrSOEVFFRUVFR4RovV6vV6PRXq9Xq9QvUDqoHVQKIUFDyoKVQvUFBQUEApQpQpVBQUApQoBBQUFAIgKCgFAKATayhR1oKFHdS3BRRcB1Xqs1XqsiEHNOBob13od03pGJ4R4PylRUVFRXd8KKioqKa4QCmGqmCmGqJ5mqYKYKYKKBUwU4UwTjgplMplMmnHdR8KPgqPhON2CidFE6KJ0UXaK+JXMuZcydGBXMuZXrmV8x2UDqoHVQOqIuUPKh5UvlQUvMoKCgrkFDieLnaL1CMyGNIoPRRoHWg4U9aRQaRQ6lv2AVMFMFMib1FRUVFCKidFEq9XxV65lzLmQinz2jsUz6cBemnNwXohSWowcpndUDHqgMVL5UvlS+UQpVIpApQoCJUoUoUoRaIFABShShQCgIhSjRSjRShQCYBKoDRQ4OxbS3rvQ7puKW4u3ofl/xSMxodlNPedqHZTshR3fFLcKHYjg9NavqP0yrExbSMKDjSOtDsKe6gptB6Uih1LfsNUOJpFHUUuMGlWQ6q2tLSz5gAWjFC9O6b0OsmlAPYT1TbRruLsKe40HAoYUHM2lmWh2LN6W9d6H4fIpbmfvRaZaRmdQ/Kae87UOynZCju+KW4UO6cHKYBPLrQwCY2W6g4FDCg4ikdaHYU91BQoNIoNLfsNoNIoOIpIi1wVicQvqf/17X8VZfpWf4hO/3SMXJ9kHKNozG9Ne12CflNPedqCm5RwcSPqR5Ce8MbEprppDSzD5PAW9mXyxv4P7PyREWnZfTR9FkeLMX/lQ/D5FLcz96H5TSM7vih+V21PedqHZShR1pGFB6cZQoALqaDghhQcRxjwCioqIRKipgoqKjeoqZRUUCplFRRKioqPhRQUToonRR8Iq9ROiidFfom4fYbQaRQelLeqtBK6KtmvZZmWYg5kwtLGlpugn4UjMeLrJp8FFz2gzCPlNcHC6ju+KWZRwtrrQOQDre0icEbpV/wAkdGEgdVa2wZZF3i5WFobSzDiIHg3ruvqHQAaMXJlg0BscRwtCOX8hwAgAOLcz9097WCJX/KP/APHcja+0RXrB3KRB2lIzP+KH5DT3n4ofldtT3/CioqKKioqKio3qKioqKCj4V+ivRjcr1zLmXMr4q9QOqgoeUApfKlUqheoKUKUKAQAUAoBQCKgocev2TSKDS37A60OpHWh1IxKMCFN6Rgb2FWViLNxLH8h7U83KKiFFRCjzKYKYKYJzhBSNxFxU7hiIoWrD1UyjzKZTBTKZNddgpvCMHYhCAwarWJbchaBrZfTdHZPY9wi4Q0CZytAgonRCN93VWuZj4YL1h0vUX+1W7C5o3C5tFF2i5tFzaK/mTQ+1dE4dF6fgIBwwAX1AJtrLULm8Lm8KDvC5kAZnXqDtVA6qB1Thym9Q8qB1UvkqXyV3FQUvkqVOHKVKFKFKFKFATKUKA0UAjghhR1pGFDum/CKDmnA8BiaDgUKDiKRQaetBQoOIpFBpb9jquZcy5kYqBUDqoHVQ8oNxUvlSqXynBSqUKUKQK4L1W9AUQ5wyJsbLFty5HNi1QCgNFAKA0XdQcE3AcDZNUXtxEQpmucKW4UO6b8LRszSOLcXb8AAMBwfh8ilwP9RWB/pjXg+1awedExp57V2NIzu+KH5TSM52FD8rtkKO74oOBQwo7qW4UOxbvwLIm9WQ57T/ABwGJoOBQoOYUig09aRQaRQaW/YGNBpFDsKbUqzDWtiU36ljnANvj1WKtLAtibO5WNsHcpudR3K0Lg3lESrVr2WZtg50wvIQvAPBmUUPs2kjVTWjM141QcDhxb/uh3TeluZ+9Fpk/wAUjO74TrNp6L0P5H/Kb9O0Yq0yGnvd8UWmR21PedhQ/K7ZCjv+KDgUMKO74pZlFDsW78bIQn/LgMTQcChQcRS2h1PWkUHGkUHpS3D7HWg0jGh2FNp+oNk6yY8CYYIS/wDJkGDG4cDgrdg5Smve0CImGoTXtdgeHcOH1Dxaf0W4uuQEABwZlFBxbwdZXxaYFC0hc67g3rvQ/D5FIzOofkNIzu+KLTI7anvOwofkdtT3nYUOynZDCjv+KDgdkMBR3fFLcKHdKRiVFRUQjggVMFMoqN6mUymUUD4UToonRROiMVfoubRXq9XxV6vV6vQV6vUCioHVQOqgdVDygPKh5UPKgiFDyoeVDyoJuH2O6goYUdaHYIURjb8LOycLd9oSL8ONsI2SsMidZNcoWjesV6gmbG7haWNnaZh8qzZIITE78GYUOxbvxIBUjm5T8JlpeQ66+h+WkZ3fFD8jtqe92woflO1PedgoqIUQn5HbIFRCmCmCjz/CmCmCmCJuKDvCio+Co+F3KJ0UToonRGMDchGC5tFzLm8K+ZXq9XqB1TRdioHVQ8qHlEYKC5dVAKUKF6gFAKA0RwpOYUtoNPWkUGkUHpS3D7HdwioolAqKmCmCjeplMpkTcg65TKZTJp/rKbwo+FHwonRWn6RX07jKonRXp7YkRCkeMF6ju5sFzLmTYrmXMuZOjduuZcy5lzKSMV6do3I74QeepgVB2qdlKg73KDvcoO9ygdUBzm9Sn3KU+5Q8lOFxvUPKh5UvlQUOb4UoUo8qUJzRKdlAQUjdFI3RSjRd/wAKA0UBooBOynZCju+KDgU3AUd3xQ7Kdk3AbUd/xSzKKDiEREQT7NoEOpQwHAYmh2Bp7qWYUOp60ig40ig0twH2DioKUKAUAgoBQHDrQUMKLP8AU4RHHtK+k68T04cjxqvTezIbtCvV9wITSDHeh3+0TBpOig91g76iYz4/4TTM1p1EeAxPBzWuxClczLeNEXgtdtT+4dqH5HbIYCj9z4odldsm5RtR+5/bQ7KdkMKO/wCKHYFDAUd/xQ7A7IYCjvG1LcBQ7FvD934URrwGJodgae6lmFDqev2TjSKDS3D7HWkYUdaW4cTgrPOOFvZWcjnQvVnkbtwGBX02cji7punNmaQv6Nn9RZMYYYzcfSETKYXqZzMwu1QIPB+HD6t39P0xmfcmiDWjQcBnd8UWrAWnZRezyE14dx7/AIodgU3KNqO/4oOBTMrdqP3P7aHZTsm4Cj9z+2g4HZNwFHf8UOwOyGAo7xtS3AUHEcHMa7FNa1uA4DE0OymnupbQaevGPAFRUeHVRUQoqKBUQpgohEqKmCmCih9g4iluFBxpbhxdgVZ5uFswvs3NGPFvVWP67uLum/D6ltl6NpFovH/as4hjI4wHAYu4Fhbez/CbaA7p+U8P+HHm9Qz9HKx+ov8ATtbrQf8AfDvO1Dsp2Tco2TrNrl/Ub5CFq0r9wfjQUzKNqO8bUdE3KNqO/wCKDgU3KNqO/wCKDgU3AUd/xQcCm4Cjv+OEVFRTSIKYaqYKYIm8KZTKKih1UToonRX6IxgVer1er1fMr1A6q/VQOqA8qHlQ8qCIUFKpVDhBQCgFAcIKHDrwhxFBoOCbh9g0toNLeLspVlS3F26sf1jxdhwNm1zgTfDDiMzuLmNcnTBp6oPaULaxMYWjbvKiDfw7/hRCiFEIkQTSJRsphqphqi2zdinWfMJXQXrFucfKFow4OCmGqmCY7lCmCnCmCJ5hspt1N4Km8FR8FNNwUfBUT7VE6K+YXdFE6KLtFzaIxhgmxgFzeFzeFzK+f4V65vCg7VEGGKaDAXqB1UDqoeVC9Q8qHlS+SoXFNFwUoUoUoUBN8KUaKA0UAoBNwFBxCcZWkoutIRwTDFo4DE70OQo7qW4UGnrR0QoONIoNBwQ+wVE6KJ0UTor9EIrmXMr0Y3K9cyg5QKAN6gdVA6p4MhvViLioHVQOqh5UPKAxVgP6jlL5UE4XKCdK0RJgrFzbUEiOKlCgIlShShSt0TgJSvqQ0fTPdDomfR2clm+SMQCUxtkBBrQFK3RQE/wpRopW6KVuigEwcoT7Sxs4TOAUAoI5m/PB1g04XL+s3RwTbZhMMDoVZ5BQcw+abPI3ajvGxpblG1H7g2oOCblFHd8UHApuUbUd/wAUsyjag4jg5nNE4cRiaHYU93xS2h1PWkUHGkfYOCH2HUih1IxPG0yO2Vj+m7haPfGVjDHXorI2wtpXvjdHh1K+mzHi7Dgf/wAl0f22f9r6T9EHU8O/4oOBUofZynAhP+iDWE2b3zDC9WJ9axY/qQovbjepgXDY0syL02H6a2eby5pMSrAxsbIn2DgczaHsa7FNbaMEW3jRMtWu304uzN+abPI2g527GlmRu1B/UH40HBNwFHf8UHApuUbUd/xSzK3ag4hdVaZeI60Owp7qWYUO6U9aDghR1pFBoOCH2HUjE0GkYnjbfplWWQocLO/6i1OghwPXZfTYni7KU9nqWRbGERirRn1Nl9O5szZQOi+mmFhZzYw4d1BwTMrdla2r4ODLJxK+nsvSsWM4PaC5q5hig4HDiHS2ZcekVa2/q2IYAQ60uAKAgANBwdmZvTZ5fkp9k11/XVTWlnmERqmuDsE7MzemzyCg527GmzyN2o7xtSzKNqDn+KDgU3KNqO/4pbgKDiOEt+PEdaHYU93CIUQoppuUwUwUwRKiplMoqN6j4UfCj4UfCvUTor9FE6K9Xq9Xq9Xq9cy5ler1zLmRjBD7DsKRjQaRmPG3yqz/AEkMODbMNc468H9dl9NgeJwTcArRs9m5o6hWTXNsmNdiBwOYbUsyih2ZnAsGIuKmhm4Mw+Sn2Nk8Xt+eqsxaNiHOm0PX54OxZvSzA7ni6yviy4r1IuaHXEGmzyig52/NLMooOYbKIUQohTDVNyhTBTBTBE842UwUymRNxTTyi5TeCpvBUToVfNh0V+ii7Rc2ivTYwXN4XN4V6MYhX6oX9ygdVDygFL5UvlS+SnC5SqUKUKAUBFQCgNFAKATcKHU9aDT1pFHWh2CH2HIUR5uMUVFRUQohR5lFTDVW5EAmnkCDhBTBTBRCtXXHZfTOuKmCmUyaYNCn8FTeFN4KJvCifaVMfaVE6KJ0TTdgpj7VF3tUTojGLbuqv0XNor9EGFuCY/EeSou0XPoFz+E6PL+S5vC5/C5/C5vCbG/dc+oUHaqDtU9k0sdV/UZ1iELxEOUDqoHVMF2Kl/kVL5Kl8lEczPlSjypR5UoUoVmOUKRuilbopRojmGylGilGigODMo2o7htSzKNqO/4pZlFDsWpxLzAYL6bv34jrvQ/CnupbhQ7pT1NBwQo60ig40HBD7BQClUqlClEVKFKFKEQgFKFKNFAaLqoKAVviEByhNwHD/kMNqLMCPnhb5DsvpcpomDbOY9Am2n1j2TtDIeV9Pa+tZzQhwOZtLMPkq3tCwANzOuCsrJ/0/wBVZtnjO3m4O7d6QAZruqcPqJ4WQgNTgmOt2/USvfGAiUHA4FP7fyFLe7dWjpGF0I+Fa89g97rTmAuaLoRTIyMmxgIp3bvwNnC9lyFrfAiB4Mw+TQ7Mz5ps8goOdvzTZ5G7UHONjSzKNqP3PilmVu1DsR8oh1mx13yvp7mAQ4t670Owp7qW4Ch3SnuNBQo60ig40OwQ+wUMKOtBwQwo7uNtnC6JmCewPECgwC3ZKLgOH1ORfS5KJA+yc3WIQ9azsvSfYlzR3N0VjastWRZhhwdi3elnX8irWxZaiDumBVjZw+tfzOdKzE+eD+n5CkYu3T7WTtd8L6S1baW9uep/8CLGm/qnhwAvjzBNeDQ3F2/B72W1u1sYBt5j14P7fy4ua12KhaWf8grF7XAw1NDszN6WZRQc7fmmzyN2oOcbGgpmRu1B/UG1LMrdqDmarVpcwgJjZWgcW9d6Hf7p7jS3AUO6UjE0HBCjrSKDjxijgh9goYUdwoKbhQcRxts/BmHAMcLUumu04fWfpj8lYCFmKLPD5KtLQWbC49F9HZmzsebFxjwf270s7t+H019p9S/W0h//AF4WmA/IUtzP34CyAtXWg6i8cLTD5Cc0OxUxYYHDXi3F+/B9nZ2mdoKsrP0wWxJEbo9E/p+Qp9IOj0MxvU72Z7xqg4Hg7Fm9LMtDs7PmlmUUHONjTZ5G7UHONqWZRwiFEJx5mqYKduqnbqpgmnHdThTBTIuUfCm8FTH2lTH2lRMcFF2ii72rm0RmQjBc3hc3hXoxV+qgdVA6qB1QF5Up1UDqoeUQgFDypfKgoXqClClCgEAFKFKFKFBQClGilCIEEPstwoOIpbhQcRxts44N670fWZWfkrP9NtDOu6LWmERxtOn5CluLt+FkyQOH8yf88H5aRnf8cYp55VEIyuEChMzyF6rNU1wmff1UzdVO3UKYapx/9Cmbqp2qYKYJhzfkpgiCL2R2Tbfo5pBTjl3U3gqJ0Ux0KidEyMMFF3tUXaLm0RjM1c+gXP4XP4XN4TIyhc2oXNqFB2qIM4v6FQOqg73KU+5SmGZNHKL1L/IqX+RUvkqHMNlLupApApQmgEC5St0UrdFKNEcwpb/uh3TenuNBwTcBQ7pSMTQcEKOtIo60HBD7BQKm3U3hTeCiTdconRRPtUXe1X6IRXNoubRcyMblzLm8K2mnCE0BghNErn8Ln1C5tV9XHkHlMBlF6g73KDvcoHVAY3qU+4qB9ygdU4XYqXyVJ/IqTyVL5KiwPILr1L5KlGp/ypR5T2iQqUKRqkapGoyMmLrgIKVpUrApGe0J7RIblAaKVuilGilbohZsmdcvT0K/5tkHkYgdU17HAeU/D5FLe78laPbZtmch/wAm2mcH+mO0L6d//JsGueL8CnNfZQhe2KY5rhcaGYfJodmZ80syig527GlmRu1Hf8Usyt2oOYK2c5rLtUyzdEEvO3FmHyaHdN6RmNBwTcKHdKR1oKFHWkUdaDgh9kUHpS2h3H6gZSmGLAhieDbee2laLteH1F9s0bUjM5WtoLNhcVZtceZ0eD8tFv6ssLPE9dF/xgy0s7MOJM0xJVpaizF+PQaqya9v1fPe42cTwfkdtT9YDzk5QBDdC5o2VkTbOL+2PLwtMjtqRnd8cH2dtYWFo02YhdF/hWbYWNmP4p4uxUdQg4Hrxbi7dEAi9PcLOze7QL6KzNn9MwdTf/lP7fyT7IgzWdxVnbTXOEHacWYfJodmZTZ5BQc7fmmzyN2o7/ilmVu1BzN+U+9hVmYsHFmFDum9IzOoOCbhQcRSKHYU9aRQcaDgh9ltDqW9aHcbfIVYH+mhmKtGve8NhydSmAD6ggdGcBzWzj5pGZytTH6loODGTblWFu60c8OZI5uI4WmQ083/ANw8BitPpp7UWgeQ4JtiT9W6Ns+LW4/64PyO2Qwo+tiWQ1gvrXS/SvhspvTf9MwOuLcP98H5HbIUDO7YcP8A6j/+qfyCGAT8vCVuildG4qKbi/fhbTNdZstnF1nHN/8A6op/b+XD6lglm6ghWZi3hZ4H8j/7Q7Mzemzyig52/NNnkbtQc/xSzKNqDmanh5uCAgIcW0O6b0jE0HBNwHCKiibwohTDVTBRCDgp2qYKYIlTKZTbqZRvUVHwo+FHwgToonRROiidFfHBX6KJ0UTojGCH2RQ6kYmh+HFwi0hfTG8tQzHhZfq258gJxgCV9OLnup7zsrWztJ22tnCYXQPUKwsnh9paWkJn9BwfldshhRI31y/rLwFnC1daRxHB2BTMrdqLSzZaOleIiCLWubKRcrP6WwsnTNbfwdldsm4Cj9w7Dh9VZG2sSwYqz9SQepCPhWmR1Iuc7dBwKc1rmlrhcVZWfpsliSOif2/lw+qP9GGpCssnBnX8jQ7MzfhEKIURqmEQU7dQp26qduqLuZqmCnCmCmTTyhTeCo+CpvBUTPh0UToon2qJ9qi7RNjAKLtFz6LmRjMFzeFz+FzLm1TQYYqDvcoO9ygdUd1DypfJUvkqXyVLepQpQpQi0QQAUrdFK3RQGiOIUFAKHAUGnrQUKOtBw+0MTQ7CkZioqKinG5RCiFEJ/wDTtJgg9pMY9FMNUC3UL6m1EJAmANsoIPbDFTt1XqN1U4UwmUwUynCc64pruUKfwVP4Km8FR58Oij4KmPtKmPtKidE0mUXKJ9qifaou0V842XNoufRc+gRmgUyaUbLn8Lm8Lm8K+f8AtUHaqD9QoO1TwZCoHVQPuUD7lA+5AczkbPyVBw6koQ9ycMNwpRqiPUtBCMAgwAKUJoF+6kClapQnAcu6lGilGigNFAJmHyaDmb80syijvG1BwTcBQcw2pbhQ7pSMTQcChQcwpbQaetIo60HBD7MOZS+SpfJUvkotUoUgUgUoUomKlCkbopW6ItEFKNFIzQKUaIsaRCCg+wdhFqY+zeLoK0cyzbEr6ezncXuCOCbgKO/4o6JmRu1HeNjTZ5G7UHO3Y02eRu1H7n9tFpkdtSMzuJa04hPsxqcdV6LUGgYcHWjWuAPVN7t6HYs3pZh8mg5m/NNnkbtR3jalmVu1BzjalmFB7aRiaDgUKDmFLaDT1oKFHWg4IfZ60OwKGAo76HYFDAUdyd9PZO6Q2X/EbG97igAMEU3AUHO3amzyNoOdvzTZ5RQ7Oz5ps8jdl6jZ5evH9wfjQ/KdkKBmdQ/D5FFqwPavpzEEdQeBc0Yng/Fn5Usw+TQ7M35oirPI3ag5xtSzKNqDnG1LcKDi2kYmg4IUHEUtoNPWgoKPHrQUPs9aCm4UHNQcE3AUHMKWZaHZm/NNnkFDszabPL8mh2ZlNnkCtGB4Vm6IvxGPA/qt/E0PyO2QwoH6jvih2X5FJeGWhLdU+1e9wibiUWaqxELJmyf2/lSzA7mg5mfNFpaNa6CssjdqDnG1Lco24RUUTzjZTDVTN1CnbqphqmuEBFTt1UzVMFa2spZBTbqfwVN4Kj4KHW5R8FTH2lRPtRJhggXaKLtE5zgIyprnOEYIximWhcSFz+Fz+FzITLn1Cg7UKDtUQdVA6qB1UDqoH3KW/FQ8qXyoeVBHKVZN8qVSqF6gpVKEQh9nrS3Cg5hS3Cg4hWdpOXDQ0MwodmZvTZ4fJodizeln+zQ7Fm6iNVEaqI1UQrMiXHqVO3VPgDMCg9pAMUSJ2ndTt1U7dVO1EgghBwgFOPKnHlT+Cged2wUfBU38SpvBT72m5TH2qZ3sKifarSxc4k/7Ra5roFCzJdCGCg575QFz6BOm5d1Fw0U1oT0XP4XNqE2N+5UHaqD/AHKDtURe29Sn3KU+4qU+4qSe0N6a3lF6l8lS+SpUQJgPClCkapApQmtEBcpG6KUaIBp6IjnGygFdxFzRQOe1BpHWh2C9VgPB14TRAJ93+F9MMxRcBimua7A8G8Tgg+bhMIwjx6ouAx4eozVdE/BNuaopzw0Xo2rpo9E21cXw6I2j3Olag1zbQXq2tZRdirEuLAXY/ZOKj4U3gqbwVHwmk6KJ0UToou9qvmjBRdoov9q5tFzITQXP4XP4XN4VpEXr6WaEdVzeFzLm1TQdVB3uUH+5Qd7kQYtv6qHlSn3FSn3FS/yKY3NecVJ/IqXyVJ5Kc3DdSDypR5Ug8qQJrRfupGqVqkbonAcu6lbopW6BSjRQGiZh8lQCuX6bv4lHM35oPVNyjaj9w7Dh14WmQ0lgfODqjZv6Kys5LzmPB/T8gjeUOLeu5U7YExwTXhwiODiJmcH2zW+UbWNnFWQuihasDW30H9QfieJeAoghB7Q0bIEEIkBAQRJNpdomOJ4Fx6Js3VNgWjg5zieVPeSyHVASSptq+a8XI2rAYRXrX4cB1o+odBiawSjhEcLeNys2waFCd96LmWWVC8BNoeIOCL+gTGQv49UBM6JRwUhPRAQasXK1KLi6DWp1k9zhonWUXJrE1gbgodUWvcmCDR9k4iltBxFLcOMQvqyPSuPUKwELIUN670O6b0t7t6H4D8hSzv8Ayof2702fX8jxhEQQMHsafMKHYFWeRu1H7h/EUWmQ0tzP3/1RaZRuFZ9eDiZsUXF1oJUcCP5FEMwGPVWLYAomd9ytGwdZo5SrOWJj0RM7hosArMD04nRWeXif1B+JQ4ARvKhBroaJhAbCF6sgQE4RIThEINgfhNHBkOFkIDhEtuATWGMSrXtQaBemsL3klObEoIdaH2dpKYmKsYwx4NZAk8HtmKCdYgoWIjwbRaujcExkKOqhxOCaE5odig0DDh1od9o4iltB6Ut4/WM5g5Gz/oi0j1hBWNhaPvaYJk0omx4t670PwG4pbmfvRaZRuKW4v/Kh/T8hSzu/I0WjYlhGMU0xHEpmVu1H7n9tFr+m7aluZ+/+qH4D8goQ4PZMmMlTRGb8ihZtCAgmsATxzs3/ANcDYAnFNYG8GWRg3ZQ4n9QfieIiuia0QF1Hf8cYDg3AUEXhQ4QHBuJotH8qYINojeoqKioprgojVTDVOeEAFMFOFO3VTBRU6nCnCLlFTKZTKN+Cm8FTeCpvCj4+0aW9aHUt68fqWxs02zJMqY0MaAKBiaH5aRnf8UWmX/FLcz96H4fIpZ3/AJUOxZunCUzD5QIIjxZlbtR+58UWmR21IzPUVEKI1VoRAbhTt1U7dVO3VTN1TXAR3U7dVO1ThOde3dT+Cp/BU/gqPhMcZG3HBTH2lTH2lROivmF3RRd7VF3tUX+1GaGCbNKNlz+Fz+FzeFzTfC5lB2oUHaq/VNDoC9Qd7lK73KB9yIvF6h/IqH8ipfJUPJQGKl3Uu6lCLGwUoXptUjVKFARUo0UrdFKNFAIAKA0UAoBGiC60ijrQ5D7LqRiaHYKPCKigcVMFMNVM3UKWzbGCnbqp26qduqnbqg4TOU7U61aGkqwti9kXJzuUqbdT+CpvBU3gqJnN3RTH2lTH2FTH2p5dKeVX6KLtFF3tXNohGZy59B/lc+gXP4T5pb4Ln1C/qahc+oUH6poMXX9VB3uUH+5Qd7kQeW/qpfKALHQmuKgfcoeUwcovKl8lS+SoeURzgeF6Y1P+VIPKkCeOR2ylbopG6KRntCkbogBM65SjRQGilGitBy/I/wDVAJx/rMHji3u3odizemzyN2o/cGxoOBTMrdkSphw7/igppEAigY8DmHCIXqNJhHhO0ExPVAg4cHWnOGjFOyp9oGBMfOI8e6luFDqetBQo60O+05QUvkqXdS7qURUgXptUjUWiClGikbopW6KVuiAETcrRwYAZesFAK5OwNPceH1J5JepTGytATspQ42tr6fp3RmeB/lfufFFp+m/akZ3bCh+U0tzWn5f6of2flweyYKzcTccRws8goP6g/Gi0/TfsUKBmdRaZfkf+8J4vMqY90xa5Wj3Rg0w1X0znTvBPXgCDgpgSRFOxZvTM4WdnKrU8sNU0coRcXOgEyM8PFBwKZlGyLYlOHTh+5/bQ8wCYzlHACCdFz7uidiEIuKhF5AUnO2CeYBWYEDHVWQvOnBjDO5xTsqAc69MbAce6luFBpGNBQo60H7TsOD3ShWdpNw7jQ97R1C6JttZuMI8Hva3FDMVaPD7RjQevCDXOa8HBfU2pYA0YuVkHw5jR3/CtbaS4YqxLrW1i4YBfUPksyrOeUhyGA423Na2Df5Tf4T3tY+LjDlTbWzc6UOiYR4vyO2QwFHedhQ/I6luZ+9D+38uNq3ubiEx4eIqzyig5xsaHZXbIYUDO74otMv8AjgyzayME0cxKfZRdEKzZB54E+mXNHVWTYBOxZvS1s1m3ZNsjNE8AyWMEGwf8UHApuAT3lsLk288P3P7aLXCKs8jdl3cIJ2IQuQYGxQHVWl9yZZ6qHG1yFNwo7qW4UGnrQaetDun2nYcHvBcrK9x4d3F5laSmBrhMRFxRiLA6yoBsGhoM3UqxbLZq1aXWtlou74VnYNdavd5REGkBWLJGQVrZTPs3e2KbhR3fCvNq8dU1garVsXWe6KZlG3Fgj9Rau9oAC+txs7oi+K+ispZ3QvN3F2U7JmVu1H7n9tFpkdtSM7/ih/T8hQ9pY6dvyFZGLY70H9RuxodlOyblG1He7YUWmU0txdunvDQmNLiS7g7Fu9NnkFEef4UeEQibimkQxUW6qLNQpm6hRE0Y9FMNVO3VTBOgU0wAUzVOFMieYKbwVHwVN4KGsED4U3gqb+JUToU6JGCEdFE6KJ0V+i5orm0UX6Bc2i5kIrm8Ln8Ln8IzLm1XPqFzaqB14X6qDtVB2qIOqgdVA+5QPuUPKh5UvlS+SpfKI+0U+MlyawQwTGwjw7uNvfBmqZZBgQwQa1uA49yAA4lNwoOYcSAeDMo4ygEnVHM1WQg3+4/+8TgrM8jNuMQif6g/FTDVTN1U7dU5wlN/RBwgvUbqp2qcKbmd8KceVOND/hT+D/hOdcLjiFN4Km8FTeCo+CgfROBkP/SmPtKmPtKmd7SiTMLlF3tUXaKL9EZoG5NmlGy59AufwufwoOnOwXN4XPqFB+oTw6Q3qDvd/wBKDvcoO9ygdVhOY9UGF5iSpP5FS/yKIy7qXyVJ5KkHlSBMaC0KUKRqlbopRNh0UrdFK3RSt0UBDBACCgNFAcO74oOCbgKDmFIodT3GkUH7J+yftFA3YKb+JUT7VE+1EmIuUXaKLvamhxtJoLm0QmXP4XP4XP4RjELn1C59QufULm1TQYZlB3uUrvepXe5EXi9AfyUp9xUv8ipfJTW3YlS+SpB5Ug8otbM1SNUjVI1SN0TGtLW3dFI3QKVuilborpxsoDRQHA4FNyjagfqO2FDsPkUgAgjyUD6RlOXodOJzNoOCZlbtR3nYUPy0gXv3odi3emzyCjuG1BwKbgKO/wCKDgU3AUHMKW0Op7jQcE3Cg9KRQaRQcftFCg9E+a6XWhvGKfaQVj9T6hhLChuFDuis7L0yZcp6cLEudFxOwTnNbi4BMvF2tDsWb02eUUO/UZsaW5RtR+6dhQ/D5FLOv5FOaHCBQJsuV2XoeDs7PmlmRu1H7h2FFpkNLcX70OxZvSzKKO4bUOwKbgKO/wCKDgU3AUHMKW0O6b09TQcEPsig0ig4/bCe6VpK9W1cJgYBF0GxUXWt/RWZvIVraypxtmieYoG2EHF3wtVZOf62JgnugIqxLrW84L6q5vymPdFstDP98Gt9R5dphwd278LcwsyrIQY1cj7R7rQ3BfSPebRzey+FDu3emzy/JodmZ80syN2o/cP40WmWlvd+XAgEQKaTYmRx5e0p+az3/wBU2eRu1HedqLT9N21IxdvQ7t3pZlFBzDbiEcCm4Cjv+KDgU3AUHMKW0GnrxiiRBAhRGqmGqiESpgphqpm6qYIOCnbqp2qcKYKYKYKZTKZTKZRXX7YVtlVm1zoREAE9szSE1krAEGgJ1kHGKLA7FOZGChimNlinsDxBWbJGSp4BbAr0WCEBQ3rwHrMJa2X5TA+HMb1bzTWe/C0bM1NN2Cd9PZPMSFYNlda3d0OFjaE2j2xiIng/p+Qps8DuaHYs3pZkFH7n9tFpkNLO78uLg1wgUCbN7GON0eUqI1UzdVM3VTN1TCAxuynbqp26qduqiJ/hTBTt1U7VaO5HbKcKceVN4KjugTF1ymPtKmPtKmPtKdHlu6rm9qi/2qLvaubRMmh0XP4XP4XP4RjMNlz+FB/hAP1CMYFNBgL1B2qg7VQd7lDmx6KU+5QPuUDqiPKDbsxUv8ipfJUPJUL1L5Kl8lS+Spd0GqUKQeVKEWhShSN0UjdFI3RSt0UjdFK3RSN0Ra2GCAGilbooDRQCOKhQ2g0ijr9sI3uHF+CioqIUQpmxxUw1U7dVO3VOcFMFO3VTtUwQdeUbVoTHTGcjZTeCnGIwKidCpj7Spj7Spj7UJpnXK1tXMbhf0X0zHjmgov8Aanl0FzLn8Ln8Ln8Js1+659Qv6moUHahOB5L+5Qd7lK73KU+8qU+4pouxKl/kVL/IqX+RUvP8KTy7/Kk8lSDUp4AaVIPKkHlSBSNQaCXbr02aL02aKRmitWNcA3yrM9jxzD/tSt0ClGigEzKKO/4otMjtqRmdvQ7pvSzLQc42oOBTco2o7/ig4FNwFBzCltB6UjE0OwKFHWltBpbR1+2AvSEYqQKRqICkbopG6KVuilGiuioDi7BCgZjQ/CnuK9Fs0xv4Ntnu+ocBljBWmQ0txdvQ/s/KlmH+aO8bUWn6b9qW5n70P7PyVpZzCIzDBWb5h568bPKKD+oPxofkdtSMzqH9v5U2eWg527Gh2B2TcBR3/FBwKbgKDmFLcKHdKRiaHYIUd1IoONIo6/bFDjafCGCiNeDrVjcSj9Qya69MtA/BPe1jYuTPqLJ+BTsFZvmVv9S+ztWtAGF6BiAeHceFu4hl2KbEQIeYp/6Z2Qe95gLlZl0xaTHj3nbhamVjivprKW9fU2rsjPlWNsZzZvMXa0NzP3of2/kKWYfJoP6jfxND8jtqW5n70P7fy4WjSDO3FMeHtjws8ooOcbGi0/Tf+JQoGd/xQ/p+QpZh/mg5hsaHZTsm5RtR3/FBwKbgKDnG1LcKHdKRiaHYU9aDghR1pFHX7Y4PtHzStTA+HMQnFuEV0TA59pFWrpWEr6WzjMSm/Ty2xd00X0+a0PlfUOntAzorYNg1gF6trJ7rCRpvVg0tsgCrWzB+qbHTj3cLfAJkJQrQTWbh4VkwMarMYnj+5/bwc2ZsE0QEFb2drM8tGP8A0rKyg8UDO/4ofgNxS3ruaD+ozY0PyO2KGFAzvof2/kOLmvsCbQG4m8IODgCMCmZfk0fuD8TQ/I7YpuAoGd3xQ83D8gohRGqiNVMNUxw/7KnbqFOzVTt1RdzDZThThThF1ya64KcaH/Cm3UyLubDopvBU3gqbwVNdgUDdgVN4Km/iVN/EqJjlUT7VMfapj7VE6Jpdoou9qi72qLvajNdcufRc+i5tFzaITLn8Lm8LmTpoLmXP4XP4XNqFfFc2qg/VQdqiDqoHVQd7lA+5QOqheoeVA+5QOqh5Qb5UPJUvkqXyV1+2MTwtQIRTXciDImYpuAQZDAq0sg9spTGBjYBHFQFmxysrAWgJcSmWDWGMST54NwRaDDxx7/jjABEpuUcIqIXeNlMNVM3VTt1TnCV1/RNLYDZTt1U7dVO1B3O7YKcef8KceVP4Ke7lwOIU3gqf+JU38SonQoRvu6lRd7Sou9qmd7ES6dt2qi72qLvaou9qM0DcubQLn0C59AufwhNM5c/hc/hc+oTprr+oUH+7/pQf7v8ApFhcIFybGwtJC7kOHhNHnqVA+5Sn3lSn3KHOL+hUp9xUv8ypP5FObyuvOCaOUY4KTyf8qQeVIPKgIkQUoUjNF6bNE5oAEB1ClGilbopW6KA0TMPk0HMNqHYHZNyjajv+KDgU3AUHNS3Ch3SkUHCnrQUKOtBQo6/b6lROie21dpBNDgIK9CaAXP4QdEwiFB+qIMRevqJoARxKYwhovUD7lDymi7EqXyVL/IqTyVDmClUg8qQJ0jREmCs5HMBF4UjdFI3RSt0UOYbKA0U/9b05ekVBHBNyjaj9w7Ci0yGlnd+XB/1DG3XxR+ptY8rQmun9Mka0HBNyjagfqP8Aih+A3FFrZi0aQvpnm+zdmb/5wFpZucWh4J04HO3Y0OynZMyjagZ3bCh+A3FNnh8mg527Gh2U7JuA2o7/AIoOBTcooOcbUsy0OxFIodT1odghR1oKFHX7fWluCcYBWI5ieBxCgF6tn7gha2ZMI8AbkHBeoyMI8DmHFzg1pKDH27pnLm+ncyB5XRiKDmbwnaLcuOyBBEQrW0kHlN+pa2zbMDpwc4NESeDrQNtIeKHWrXWVoR0Ca6LYoPdbEy3AKwLucHoeDMX/AJcCxrsQrUAWdwVnls/yNBwTMjdqB+o78RRaYfIptGGHqNzNcVb/AFp5fSd0vQDgYglp8L6MvNjFzieY4o527Gh2U7JmVu1A/UdsKLTL8ilmB3NBzt2NDsCmZRtR3/FDsCm4Cg5htSzKKDiKW0GnqaHYIUdaDghQPt9eFq90ZWps0oin2jowCsLRxdAq1yqzEGq2tOeEVYOe61j0X1Fo4uDGlWtjIxt18ULOEo6p5gwnwrAF+ytOU3IANEYxcrB7nAxTsW8fqv0/lWbZWBfVfpN/NMyN24uzNToyuhjC5WFnCzc56+nusgrZpucOnRem9zC5yGAThEQXq+nZQ7hdBWbY2kx04uEWkJzj6RZC/qgwenL4TGBjYKwHKT54NzP342+RMvZZHzTZ5G7UfuH8RRaZfkUWn1VrM4WTBdrimstrYOJtbhEkJwEEwE7nBMYGMDR0Rzs+aDgUzI3aj9x2wotMPkUs67mg52/NDsCmZRtR3/FBwKGFBzDbhFRUUIKIUw1UQiREXqZuqmGqmGqmGqBCmCnbqp26pzgpgp2qYKYIG9TBThTIuQd4Km8FT+CpvBUfCj4XqXwUfCJ8KPhR8KY+0qJ0Tft93AZzHhaWJOBVjZhgREeFpYNeVIGgAIWP9WfhLfFPbM0hWTAwEI2cYofTwxKshcndONu2azTfqLMWbYm+GCE9vaeAaHYt34WgJbAJogAODb2/5QuATnBrSSmNdaumcrg9uxofkftxEBwGZ+6mbqFEap4a9sCVAMDB/JTN1CnZ7gp2e4Kduqs3NDG3qduqnbqp26qYT/2qdqnCmCeYt+QpvBU/gqf+JU38CrSxLjFmMSCrRgDub/C+kaTG1LfAUx9pRJiy7qon2lTO9qi72q/RMmlbd0XPovp7e1tC7DULn8Lm9Q7Bc/hc+oXPqE6aF56hQd7lB3uUrvcpT7k0eepUp9xTrupQHkojmCl8lS+SpR5RaIFBogFI1SNUoUom+FI1SBSNTmiUoNbDBSN0UjdFK3RQEykbopW6KVuigNE0CGClbopW6KUaIwmCgNFAaKARcwKzc13CHB3SkUGtnM4ngSKR9vu4RCiNVM3VNeFMFOFMEXKbwVN4Km/iVMfamkxNyi72qLvaub2p0y5tF/U0C5/CP04JimNhGGq59QoP1Cg73JwN16g73KU+4qU+4qX+RTG3fJUvkpw9R8L4BCzAHVFvM1SBSNUjU5rYHZNaIC5SM0UjdFK3RACZ6kb7QpW6KVuif2/koDRQGnFmUUfufFD8ppZ3/krSzZaCBQAAAHThafUczZRGBTXBzQRRZubKwTCMAvqHy2Z1Ny+kbBrj8cP3D+Iofl+RQXAYqyILbtTwhHg65w2KFpEwRd0CY6MRorV8BAKwMbNuyiooW4JwKBi74odlOyGHCI1Qc12BXf8AHCK9dkYLom4UPxCDnTG9WZcYxVqcEWWYF6+nHWg9OLnOdc1Wc8vNiiSXwCe6VqZgn2sLk572kRwXr3i5EwC9YQuULUmMVZElWp7U0QCtHwCg6cXoUN+31UApW6KAVyFDqepofhSMXUP6bilmB3KeCWmCs2Sjgc7Pmh2U7JuUbUDO/wCKH9v5CmyyCj93+2i1yGlmL/y4/UOMoA6plmG+mTii4NESm2pccqsrUWjYq1fI3yhZM9Od5gFzOgSYpjZWgK1fIwlP9ZgNpP0w1Vm+djXa8X5aCPUtl9MP1PyP/qtsFbOg0AHmTcArSLrcDora6SCY25MF5KhGZMuaEyZ1qXFW36ZXJIrPGh2BTcArTPAm5WoYG3L6ZlxdqrReo48qIls0xkV0TcBRaCNyZZwCAgi0FeiwJuFB6cWCXgZmui0JrHOMXcGsM0SrVk0ELO9dFITeApbQpjYBC8x4emXOjFSBqHEpv2+tIxNDsKe40Py0jM6h+HyKWddzQ7Mz5oOBTMrdqBnf8UWmA/IU2WQUfuD8TRafpu2pZjaflxtG/wBRh6J2az3/ANK2GU9AjaNlgxfTtls1asmarOztXyTYBSc44OaHNLSn2Ly4xdGDVZiFm0cbTLQ1jWRh1VkIB35FObMIJtgBwOduxWPEjFMyjbj6TV3/ABQ7ApuARaDiEWAugEBAQXd8KA4NEEcEzAUHNS3Cg4iltB4OMTBC7iEUE5DiU37ZxFIxNDsKe40PymkZ3fFD8tLO/wDKh2az3oKZkbtR+47YUWmHyKbLL8n/ANoP6jdjRaHkdtS3NabqKiFcndu6iFBiaQBCKmGqs3CRqmbqpgpwpv6nwjasBDY3nopvBU/gp5i3DqFMfaVE+0qJ9qidE2bmu7iov9qi/wBqi/2j/KMYhcy59AuZGaBTJpQubwufwufwvWjawXPqFz+Fz6hGaHRCfULn1Cax4cVzaq+ZQdqoO1UHaogwN6EdVB3uUHe5Qd7kQZsVA6qB9ygfcoGGKAuxUp9xUp9xUPKIvF6h5Uv8iseqh5KAUvkqVSohXJrApQpUApApQpQiAoBSjRSt0ULkPtnEUjMaH5UKO5RCmGqmCcRBBwgpwpgpgo/1Dsp/BU/8SpvBTzym5TH2qZ3tUXe1Rd7UCYm5Rdoo2mg/yov0CdGLd1z+Fz+Fz+FzJk0jb+i59QufUKDvcr5zsFB3uUHe5QOqeOXHqFKfcpT7ipD7ypf5FMF2JxKl/kVL/IqXyUW8w2UvkqQeVIPP+U9okdspQpGqUKUJoE1pv/pSt0TZHRgMFK3ROA5Lu5QGigNFAaKAVnkFH7v9q/U+rj7ONpl+RSzr+RoOZvzQcCmZRtxtXSsKsWxtY6BPJDbk0xA4OylNwVpghGHCYT8IqKcbimPacDwiOHWg4IYJ1q1qY8PvHAuEw4RbqmYlOdKFZ2jieERwKAonaOqmRtr4AImAimzxvo6IfbK5vC5lzaqB1UL1DypfKl8lObcg0KUKUKVuigJlAKAUAiLk3AUd/wAUOymluZ+9D8Wb02eRu1H7h2otch+KbPA/kaD+o3Y0PyO2KGFDc9pv/pPMGqzEGx1XqsmDUXgvDdHJ9oGQimuDhEcbLIONo6URRt3h0YYhfTWcrY6p9qGJlsHlWuX5CZakuIl6mhnXc0WjjMAEIwvUScEwmMIq1dBpTXOkB8IHlijOe5OncmtDTDwohygnW5Bg0ImazJ8KMG8XudGAV98UHQsopkXRiblZ9VaujcrNmHCzEHnh3UHBEk3BOYA3yrBsAU8kugFaNhBC9qcwBMEFaXlMaAjgmCJjwmi7g95wClcHXldEyyJeXOVpHAJjD1VpkKHSg4IfbdSMxodghgKO4Utyijv+KH5ShQMzqH9v5U2X6baP3f7aLXIaWd35Gh2dnzQ/I7YpuAobnf8ACtOgVr+kYISDC8pre7+St8odohDpxs8v+eNuOVu6d/VtW9ABBQVnCL3P1Qg615RdFWuT/CZ+q+hnd+Roh/UHzwltOmCa2CewOTRyN24emgxG952TGwXRWLQnZSnAmUIcC10YtUji+9QEIItugEGwT2YlNwTvU6Jlm4GJPDuoOClfG5SO6oCAUojFOEXcIcIXoKEUGgIhQgeEHzG5NZrwHAmCveaSh9t3SnrQcE3AUHMKWYUd42odldsm5RtQM7qLTp+Qpssgo/cH40Wv6bqWd/5UOzNodlOybgKB+o/4RzjhKAiIQ/JPa5xh0QHGyy/5olaH4dODrJpMUA1qtYSYprWtURqojVTDVNIE1/cphqpm6qYaokRCnapwpgi4QKa4ShTDypx5UyjzfCn8FTbq7ROPKUHeCp/BU3gqbwVG/AqbwVN4Km8FONxQPgqb+JU3gqbwV3G5ROiidFE+1EmGCBOii72qJ9qidFfFROiifaonRROiE2ii7RRdoou0RjFc2i5tFzK9CK5lzK9XrmXN4XMjFD7bqetBTcBQcwpZhQcwoOBTCJRsojVTDVTN1QInd8Kduqnbqpm6p5EPkKYKcKcKYJjoDriVPup/BU/gqPNh0U38Spj7Spj7SnkljruiBPtUT7VE+1RPtTYxdd1UXe1Rd7VF/tTppmXLn0C59AufwueF8EyeVuGC5/C5/C59QoGc39AoO1UHe5Qd7k4GAv6hQOqlPuUp9ylPuKY27Hqf/VJ/IqXyVKPKgJoeFIFI3RSt0VoBKblAaKUaKA0UAm9d6DmbSzKNqO74oOBQVmSXuPTi4wmPhMdM0HicEOEeHcUTAJjphhwdgUOERw68Ijh0QoOKNq0GCdaBoigYhGnrQUPtuUwUwUwUyjfgo+FE6KJ0XMmzQXP4XP4XNqiDEXqB1Up9ylPuKl8prfKk8lS7qUItEQpG6L02aKRuilGiaBAXKUaKUaKA0XeduEOD8PkUsw+TR3jY0PyO2pbi/wDL/VDszN6Ois8jdqO92wTrRrcSgQ4RB4PwG4pZh8lWpgx2y+nBFk0J7wwI2+YwvDFYWnqWYdDja5HUepHAJndup2xhFTtjCPC0tQHgDFeqRiEXvxQvAKtjBu6sZ2iJNyY8P49/xRbPlCFtFpHVWQg1W00QAmRlEVbYFWYgxvF2BQVs8sAgg0vvKseo0Ke6Up5AAihCCNqS6UKdwiCmF00EbgoRcuia+LirUnAI2Z1TcAjghQ5CzDryrTMGhNuCtHylNLnlOdK1WVo8uv4daHIfbdhT1pbQ7pS2g4ilmUUd/wAUPy/4pZ1/I0HO3Y0WmR+xQwobmtPy/wBUOxZv/qmzyN2FH7jtgnfqu5YqxaWzeSntmaQmiBIOIIps8D+R/wDVb5QNSmiACtrrRpdGWCtrT1bgINVk2WzaONpkNDbrQpnduoyOvCYC503Czsz6jS4ap9kXOjFOESAgrRkzVK+URwVi2A49/wAUWrTGYaIMmvPAi+PC2ztFDsEFaWc5F66KzEAntmihYP6lAQCbZAGKdZXxTQnYIBOEQmtlKeyZCz14HBChydO1WLYmPB7AU0AK2bGCZZhvDrQ7p9x1PUUtwod0pb13odiKWZRR+5/bRaZabPu/I0Ozs+aH5HbJuUbUNzP3odizemz/AE2bUfuHYKBDowx4OMApXXvOops8DuVaCMu/AgHFWjGjAIYcbTI6htmGmMU3F26gD04nM2g4Lsahx7/ih2UoYUOALlFRUU7BBRCioqN5UQohRRNyBGqiNVEKIUeZRGqmCmCJQIUQphqohRvVq4QTJQFMNUSECEYFTBTBRvUwUVMuv3HYIUHMKW9d6H9KW9aHYt3pZlo7/ih+U0s7vyodmZ8qKiFEJx5TsmkShRCiFEaoETvUzdVO3VTs9wTnDl3U7dVO3VThThMMGDZThTjyplHn+FN/Eqb+JUx9pT8uCifaon2qLvaou0TC6+7qVz6Bc/hc/hGacX9FzahQfqFB2qfGR1/RSn3KU+4qX+RUvkoC915xUv8AIqXyVL5KiC+W+5SjypB5UoUoTAJW7KRqlClClEyc4DAINapQi0QQaFKFI3RStUBFShShShOAgoBQCgFBq6lQCgFAaIi5QCgFAKC6qAUAoBWsWiITIEKAUAoBdU8RcgBwh9k4/cKFBxHCKiooEXqdqnCm3TioqJ0UToonRCaJXNouZcydG7dcy59QufUKDtU0GGKg73KB9ygfcoc2Kl8lS+SpfJTm3FSjypN1IPKlCaBF26lClClGicBFm6lbopG6BSt0Ra2BuTYSjZSjRQGigNEM7/hQGigOD+38qWZRR+4fxVo8thcheAUSBiU/LS3A/kaDnbsaLV7Q0gng+0azFNtmkw4NxfvQL7YHyU54bim2jXcWZG7UWrueHhMZDHi7KUOLb7YruotHgBTDXgSjaaKycS50UTAL1Hxj0TXBwiE7BDi95BgAvUIPMFEQii8nBWTyRerdwlgrLKE+2lOCBiEXtCBjw68H2zu0KytC7FF4GK9SOUIF6FHX7hUFDyoeVBEXhQClCgOA60OpGJod03pb/ujvG1D8p2Qobi/eh2LN6DgmZW7UDO/4of0/IU2eUUfuf2q3e2eCY6bAIyPuVqYWTjoFYi09SMbuqtnytENVNayzaKzdM0FP53uEbpirBpbHTi7O35odZzG0JKaINATrFzraJwVs3JDg3F+/F1zSmjLunX2l6tIFtwVjH0xHhZ5G7UARtjwc6UJptCfCdlKc44BWTnRlcjgrIdU/u2VlaxZemEl5KeYBSxZEpoi1NyhPjKUyzOKs28zinCIUj1ZNgjhQ5kUbMxvTRywRZKE1nKnWYjcgJWpjY38JY2nBoMY8HZSotAVmOqtGlzwOia0AVdfuFCg0jE0OwpGY0PwpZ13oOcbUPyO2QwobnfvQ7t3ps8jdqBndsKH4D8hTZ5fk0fuD8VLG1MeFm2DirYRsnjwmRAhBWljPC/BPbyABMbKFYwY94Opodmb80PAg7ZDgWxI4NzP34kRUISosa7FGzEpAVllhwZlG1BHPHwgrUZUEcCoOaYpjevACC6oWEDjcg2CcwORAgoCjqaDhT1oI4Sw49aCxqFAo6/cKFDqRiaHYIUDOaH4Ut670OzNodldsm5RtQ3O/4od270syN2o/cdsKH4fIps8vyf8A2gn+oPxKuURqojVPIlN6mbqp26qduqmbqotM0dVM1ThTjz/hE3tuKm8FTH2lROicTK67ohGGCi7RRdoou0QjF265/C5vC5/CM1y5lz+FB3hc/hMjKFzeFzeFzeFAzfC5lzeFzeEYwQiuZcyvV8VzaqDtVA6p26EdVA6qB1UDqupUDqoHVQOqMeEDqoHVQOvCB1UDqoHVFfKa6JKgdVA68IHVQOqh5TrgmuJcoKVQQCgpQpQgL/uFDCh1IzGh2CBCmGqmGqnbqoiZTBThTBONymU3gqbwVHwhG+5TH2qLvaou9qMYhc2ii7RcyMYFMmlGy5/C5/C5vCEZnXrm1XNqubVOBuieq5tVB3uUHe5QOqYDIL1A6qB1UD7l3m/oFKdVKfcoeSnjlx6hS+SpPJUvkqXdMaIfJUgUjVI1ECcbFSt0UrdApRongSO2pbi7dWxc0Bw6Y8PUHqBnhOzNodldshQMzt+LbSNo5hGCfi3ei0eWwgrPI3ag4r1HB8HdeJwKbhR1ot4FvyrPKFO2MI8ep4+qyMIp2C9Vg6qICNtZjqgV14vfIppmxRNysxxLg1eqTgEx0yc6WCtjcrGN5XqPLrl6lo0wxTLR8SHBBPtSTBqYTLzKcnAKJGKFpaTX4fcBUfCidFF2idFcy5lA6qHlQvUFKFKEQEAFAKAUF3UHCkYmh2I3pZlG1Azu2FD+m4ps8go/c+KLTLSzr+RoP6jNjRafpu242j5GxVnbzEAthFNxfvxHNbxVu6UNPlc45pjFfTPcZwThwdlOyGAVo988rUHuDTP0VhaOe0xT7UMeRqmWhmlcn2pa6EEy+0jBfUG4BWDS1t6faSkBNiUC1/wi4tYAEHWrcyc4NbMUHl+CAg5fU5QfKbe0cDgm4Joh3R4C2N4crO9zkLR0SEHmaB4WoCysRsmlsTirPLwGJ4WmVMsh1VtkQE5EFbTSwHVNsg1isxBoC68XMcX43LAJyGHF7JlCUJoThEI2TprzcpeWCZZyoWXMSi2+KOWCZZgK1aXXBMbAJ+I3RAgmZftih2FPWgpuAo7qHYIYUDE0O6b0syij9w7Ch+A3FNnl/wA0fuf20WmQ0s6/kaDnb8pj3+o5jvgq2tJG+SrAuNmJlafpv24/UPBDmEG5Wb4tCLpZz5TDM0HhZiDirVswA8pthqVYthNvwdlOyblGyc17XzNGKcHuF6smgMCNkDbTL91PwTBBPH9Ru/BwJtocLNsIp10pUTaFWjJmQVkyVt6OYbL6k5QmZRwOBQMArGM54OsmOMSgAChZgElS88eDxeoREF6btUOHU8HCIQB6lOwQaB04Q4deMIohQv8AsGgqFBbMhZan7godhT3UFNwo7qHYIYCgZjQ7pvTZ5RR+4fxofgNxTZ4fJo/cH40WmQ0s7vyNDs7PlWt0r/amg2r4lYJ+V2yGHD6iBAamgABQBLt6HYs3UQrgphqiRAprhAKduqmapmoHmcuWKJBUwT4GXdTKIUw8qZDBRA6KbwVMnvlKaC90zlMFMFFPtOWCsrgplMo3qZTeFN4RwUVN4U3hR8KN6j4UToo+ESgfCj4UfCjwj4UfCiieEfCioqJUToonRXoxV6iVer+ECr9Vfqh90UGnrS3Cg5hQU03BRUQohAiYqIUw1Uw1TiLt1MFO1TBTJhg1ThThTbqPP8KbwVN4Km8FON2Cm/iVN4Km/iVHwU2N93UqJ0UToonRRPqC7tKidFE6KLvanRlNy5tFzaLm0XMmzc35Ln8Ln8Lm1CcDM2/VWsznSgplnIITKXynDlN/RAeVL5K9FkY3qVACZydI0cxgpGqRuicBy7qUaKA0UAiLkzK3ZOIaIlepbPcJBdwGZ1Fo4NAJwjSzCgwmFDsCmMJxo7uNqYNTCXWYJQoBExoNIoP2WhwderQwarMQag9sYRRpH3RxiESFFTKZR8KJir1zLmXMhGCgdVA6qXyUReFKpQpQoJoEApW6KUaKAV0ygFAKCfh80sw/zR+58UWmWlmB/I0HO3Y0PyO2pbi/eh2ZiFmA8u4uyu2TcBQ3O/4X1V4DVgEfqYG5hKma/wBMtPX/AFQcEzI3ZW17g1NaGjhMGvfHwjbw6XL1LWUuAuCY6ZoOoTyx8Web+BtLUuIZ0QwRe0dVZ2owTrYi+CCtXkXDFeq9o5xemmIB4lNw4eoyMI8C4Aprw7ha3wChBqnAMELXmlKtLWVG1tG3HqiHY9VG5TOe6AVmXB8pVqYNTJxzRVlaTx4jE8IjhaWnQJuFBMAh6xMQVGGPA4qEzk/2qUMMV0pH3R1UFKFAKCFHWluFDsRS3KKO/wCKH4Us/wB0d/xRaZDSzu3NBzt2ND8jtkKG4v3odmZurZ0rFZB0zSJvPB1q60cWNw6qyiy0DY3FsaBnf8Iia32TxFjh4TLSWzgGmZfTtlj+f+qbPI3ZP5bVrjhxtbI2lsNLoq1sg9kuCc3+nAJgg0BAf1S7zwdy2rSOuPBtkfULnI2ZLm6J7eWHC1MtpGCeC9wKAgAOJwTcE8kmUIWTeAaXPPNAhR/q8DnTsETK+KYC98yfZFz2nopQeic3nThFpCs7OVBpnirZpLbkLO06qyZLxHB7L5hijaRuQZQ6MLkRadSmNcOqhE8HJognsJNyFmZr6Sh90daCm4UHEUtodiN6W4Ud/wAUPwNLeu9HeNqLTI6lnd+VDs7Pmh+R2yGFDcz96HYs3Vq0uZAYprojhZWAsg6BxTWxkd/GgZ3fCk5ox4XKWEPyoOCZlGyIBxQY0YcO8/FDv98JCXRPCKbhxuToRFBQwTcTxfZtLk2zDeFyOCuKuUeHUqIUQohOKirlFRQUU96Y0IlRUQpgi5CJKjwjwio+OBPCKieA+6MTQU3Cg4ilvXeh3SluFHf8UPymluJ3oOduxUeNpkdsohRCiNVEaprhzbqYaqYaqYaonmYphqphqpgnESnZBwgpm6qdqnageZymCn3U3hE5buqifaou9qi7RcybGUbLn8LmXMhmcr1fqr9UHB4BB6qB1UvkqXypUxolClClapQoCYqUKUKUItClClClClCaAoBSjRShdwUApQpQoBABShShQCheoBShQRCAUoUOHUqAUAoBEKCgoBQQCIQZExUEVBQUOAo60Gg4Ifd60FN4xRUQpgplFDqo+FE6K9GKvXMubVXpsVA6qB1UPKhzKHlQ8lS+U8XFSqQKVShBovUjVIFKEQJgpRopQpRonASnZQGilGigNFAaJuL91AKAUE7MzhAcHZTsm5RtQMzqHdu9Nnkbtw9U+vIRdC48BndsKC0Nw6vT7ezszAr1uYew9eD7VouF6si4gcLZsOcKzMzAV3nZPt5LSWW7i7D5FLMKDmFBwKbgKO6h2BQoGJoNIoNI+wcaD97qr1er+AClUoUoRFLetD6W9d6OoodlKFDcXb0HM2h2U7IYUNzP3/1Q/NZ70HApmUbUD9R/xQ/t/JWr5GEoTgTF6sLRxcWuVtbyWkg0TXWjGWbj16K0D3NEjoJocbURvgrd8rLsSvpmkPdsvqbaSUDEpg5QjE/UD+IT+38gmtBtbWbVS9rcIxT2zMI8L6WzMnMMFZ5G8Lc3NCsbmBd52TmB3F2HyKWf7oOYUHApuFHdQ7AoUDE0OQoFBoKH2DjQfvdaChQ6kYmh2FLO7eg5hQcpQwobmdQ7Myh2U7IYChud/wAUPxZvTZ5G7UD9R2wof2/kEWhwgV6A1Vk2Fq9OsWOeHnFEF3pDwjytOysmwvVu2IadChn/ALQnWbXwj04QT+n5BPsg4x6plmG8bPIOD2Oc9Bd/wnAkXGCGHB2FLf8AdBxbQUKO6g4IUDGh1I+wUFFRUUCoqYKI4RUyij97upFDqRiaH5aW4u3oOIoOBTcBQMzqDi2g4FDAUDO74of2flTZ5G7Ud52HGKeRAbhTDVTN1UzVMEw8oUwUym8KPPh0UfCidFE6J0btwuZc3hcy5kyaC5tVzarmXNNj0XNqubVXp0YKDtVA6rm1V6aCr9VfqoHVHEK9Xq9GMEIwxV+qgdVer5lfqr9VejGCvXNqubVXq+KgdVfqr9UVBQOqh54wUFBQvUFKoIhAKVQUEFDhBdaD0+93Uih1Mb1EKYKYJxuU3hTeCpjoo+E2MSonRRdoolOjELmUX6LmRmgmzwC5vC5tVzIRi5c+q5tVzaoxuvV6g7VQdqoHVNBlF6lPuKlPuKh5UvOb1L5Kl8lS+Sntw3UvkqX+RUvkqHlWY5ApfJUvkqVSib4UoUjVK3ROAh8qAUONnkFHf8UOw+RSzLR3/FDsKW/7oOIoOCGFHdQcEKOpod0pFHWgoUCjrQcfvdVFTBTKKCidFzK9EKClUqlCA5lBQ4OwQoGJodi3eluUUDMaHdu9LMrdqP3DsKH4D8hTZ5G0d52ofh8imzy/5o7/AI4FwC/5DdCi8OZEaimzyijv+KHYUt/3QcRQcEMKO6h2CFAxNDqRR1ochQKOtBx+8cVCgUOwp7qHYIYUDMaHdN6WZRR3mh3TelmUUfuHai0wG4ps8go/c/tofh8jhEDqn2jGC8pv1Fk4wjerPL8mhxAfHwj9SzpevWZi4FCVw8K3szZf1Ga3hWbw9oIos8tHf8UOwQob13oOIoOCFHdQ7BCgY0OpbR1odQcEKIqKioqN/wB440jE0OwQo7qHYJuAoGY0OpZlFHedqH9N6bPIKO/4otMPkU2eQUfuf20WmX5Ct7eBkZj1TfpJr3lMsADF1+itLCzeNCvpLQyljsQeEVEJ7vWtYdqayzYohBzQFaGLCvpXSue1TeFN4UfCafCj4UfCj4UebDopjoo+FHwnG5ROiidFE6KJ0TY37qJ0UToonRElX6Ke+Ci5GMECUHkxXMuZRMy5lF2ii7RGKiVMdFE6KJUVEqJ0USir1zK9XoRV6vV6vir1A6qB1TgpfKlUEQgFKFBQUFBQCgup+8aRiaHYIYUd1BQNymGqmCmCjzKYKYKZE3KZTKbwVN4TDdgpvCm8KbwpubBTeFN4Ux9qcblE6KJ0UTor9EyMLlF+ii9cy5pxsuZc/hcyfGVc/hcyi/RRdomTQ+SubRRf4XP4XNP/AGrmXNqr9Vbctm52i+nspnOeVaOZZi9C3cXjluJQAVmAPq3DUlShQCtrrJ0F9O2CmZqmuY7A8LQwYSvpRF73UMwo7vih2FLeu9BxCdgmt/rcDgV0VliTxLHTm9Mc8WkOnF72jEpr2nA8HC0jdgnl46qxJc2+g9KChR1oNBwpFA+8aY3qYKYKZEoEwUXLmXMoXqCgoKCaLlAKAUF3UOwoKZ/uju+KH4fIpZh8mjv+KH5fkU2eX5NH7g24hfWfoHyQF9PdZjynWTXwinwb9S0bI3L6eLvqXu6c3/fG3/SKsv02bH/1Wdk7uTRLbCG3D6l/KWBWTJGQob13oOcbUPylCgdd0OJzN4Wd9tacDgrRhxirJrhxeeYhMZxtbNrkyzDeNrZEmYKyfzFp+wUKOtBxoNIoH3nK9QUqlUL1BQ4FNwo60swo7qHYUt670d/xQ/LS3rvR3jai0ymlmB3NB/UbsaPqRGwd/lfTmNkPHC0bZkhzuicXWtwwVgyQHfjaNmY4KxcQZEbZwMC1WRBcSn2vQJtlCLnY0t670HONqH5ShQOu9DsW8JRGPA4I4BDDi7ltSYKcnBDg/wBVWbT14BFwCxtY0daDghR1oONBpHGKH3nU9aCm4UHMKCm4UHMKHYGlvdvR3jah+Q0s670fuN2NFrkdQUzruaDnbsaH5CnWBDprMwUfqNELBxMXlAAYJvXei3a2YOjAr1ScU2yLr0xkpTzylRCiFEKIQcL91MFMFMETzBRCmCiE43KKmCiooHFTKZTIm8KZTKKJuPCPhR8KPhdcF8KPhRTipvCiopwimABRUyjwiplFEoFRUSolXq9Xq9GMeF/AqCgoKCAClClCgh951PWgptBxFLaDmCioqKcbigblEKYaqIQN7lMFMFEInmCmCmCmCeeR2yDgpgpwpgmux3U6mUyJ5m/KipgplaHkKmU4U4UQmmEdypwpwpkTzNUfCidFE6J0ZShMrR8nVetbHpcmOmEYpozbqB1UDqnXCMVJ6rxE3I2VlBCwLYym7omWgLpHZk8cjtkAFAKAUE2F+6+ptvTbAYqwdPZNceBzCh0IIUN670HEUOwKFHU0O4F4THOJMeA+wUKBR1oNBQ4lD7zqetEU03KKioormXMuZQOqaFL5UqlRF4UoUoUoRCGCgFAcBiaDmbQ/KdkMKG929BzN+aH5HbUt7t6Dmb80PyO2UYNj4Vn/AFXF5wTrUnlYEWOZatvxTeu/G3OVuqawttAOkEWFl7ivp8p3X1TeScYhTT2M2rUKPqXctxvD4o8zInGKsXuFm0AL1X+1G1dEcqntNFC1PVekTiU6x5SvRcMHIC2HVRtV/WTRaX3r+up7UYhes72o2145ULZqDgevB2CGFHUqI1XqNXq+E5zigxxxQZxbQcaDghQKOtBodghxdgh95yioqJ0XMr4qClUFKEKDS3rvQcRQU3AUDM6g4todlKGAobi6g5m/ND8jtqW4v3odmZ80PyO2Vuf6Dtkyz/otb4TLMNVrfbD8wm4v/Ljafr2SOdnynNDmwKIdYwMbor6l8WyhAS2IGjUOJTBK5wtAhZkuc0aXKyELJm3A4ih2Bpb134wCc0TBSNXojopHaotfDFBr/cpbTVQtNVC01UjiTehZL0wpQnDCkUHGg4IUCjrQaChxch95yFBxpFDqW9aD0oKbgKBnNDsW70HApuUUDM6h2ZtD8rtkMKG4v3odns96HZTsi2eyl1arB8WynM25FwGKsml9p8xTcXb8fqOUsfoUcWKMFb2wNwVjZdzk7AoYCiVrpo6oWLQ4OHE4ih2BUVHiCL1EKIUw1RN4UVMFEIkQQIUVFRCjeVMFEKIRKiFEKKipgmvacCoqKjeoqIUUSoqKioqKionh1V6vV6KvV+qgUQoKCgj98oYUHpSOtDqW4mg9KW4UDOdqHdu9BwTcooB5nKKiop2LaHZTshgKG5n78YhPhFp8qIUw1UwRIgUDcE9gcYwvQstULsAhGLlE6K9OaXAgqFtZwGIR9d/RMsQO69QKMYFAXKHlSqVAXndShShShEXhQUoUoThcVAKUKAUAh1UFBQRxHC5BzCYRRwQReA4N14PjC5F72lNvA4uUOEE4gBOcSFYMgzj1UOJpFHWg0Gg4j75QwoNI60OKioqKihGJXMuZc2qMVA6qB1UFBNFylUqlUOb4UoUoUoThhuoBShShShMHKFBShQQzOUoUoUoTm3t3UoUoUoRaIFNAlGylClClCDeZ6lClClCcMu6gFDh0TMrdqBmdQ7FqfadGqyHPwdgU3AUDF29BzCh+UoUNxdvQ7EcOd6ayFqjgg5vUp19sONuCHx6KzMWg8bRwbCK9VvG0eZjFTx6Jhi0cetBpFHWjrQaDj98ocIhRRKiolXq9DFQUqgnC6iCGNDqW4Ud1D8PkU2eUUDOaH9u9BwKZkbtQM7/ih/bvTZ5G7UDM74o+pc4BsFZuh0Vm/nwxPA4JuUUDF1BzNodgUKG4u3oOI42ZjaOKOCfZB16ZZknFDhbxNysxBo420IBMk4loPRNYBanZQhx60GkfY60HhFRXX75QUqgFBGkY0OwpGY0Owpbh80d42otMtLMtHeaH9u9HRMyjagZnUP7fyps/027UDO74od03QX04xu4FPtPTZFW1u90CLk3AcOpodi2g4IUDrQ7EcIpjQ0nyjhwF3G6h6aBRAUdVFR4O4RUeAKiookoE8Inh1V6vV/CChwH3ym0Owp60FCju4lOwpb13oOYUPwpZhR3/ABQ7pvSzKKO40O6b0syhRUQohA852CioqKccN1HwvhR8K0cWscfCc9zwL03mc1vlC0Gq9QaoPETevlQOqgdUReFBQUERcVBQUFBAYqChwOIUAoKCOCgoKHAKCgoIhQUEYBMM0UAoKCgoKCgoI8IcChQKOtHWgffKbQ6nrQUOEQpgo3qKm8KKdghFXq9cybG9cy5lejGIUDqoHVQOqdgoHVQOqgdVA6pouUDqoHVQOq7/AIUDqoHVQOqcr1zarm1V6bGULmXNqr13FX6qB1UDqnYfIUPKlUFKmDlCgFBQXedhQ7pvQRcVb2Jsw2GBX0rZ7QnQL0Gr0Wr0REr0fKltB1U1qi991y9R+i9R+i9Y+1G2bApr2nrQCIm9R4nEcI8HYIUDE8JhqjahG2C9UL1VzOQEAhR1oNBQoH2BjxOCH/wBQeEQoqKir1er1BAXKUKCgu6g4IYUDE0HFtDsppZ13o7/AIofhSzCjvO1D8BuKWZaO87UPwG9Js22jGR6GKZZtYXEDHiMxodi3jAJ9m2U3L0QvSdqvSdqvSOqFj5XpO1Xpv1UlpqpbSKltFLaKFonG1QtLQdF6ztF6r9F6log60K/qFekeqFkEbNui9JuiDAOBwQo60Gg0igUAqYKZE//AAeqvV6goIBQrKGFHWgoYUDF1DsRQ7KUMKGdd6O8bUPy02eWjv8Aii0y/IpZhR3/ABQ/D5pbhQMxodi2h2BQoGJoONDsEFAKA4N60Gg4IUDGg8YolAqKioqKidFEq9CKvUEQgOJ6f/BGJpFHWluFBxFBTcKBmNDum9DspQwob3b0HO3ai0y0swo7/ih+WlmHzR3/ABQ7BRUVEKKablMoqPhXzFROi5lzIxuV6vV6MYFCKvV6vQ6qB1UCoI4jhBQRQCgoKCAUFBQRUFBQThcgFBQUEAoKCgoKCgoIigocShxKHE4//BGNIoOIpbQcRQU3BRUVMo8ymU6nKccFMVMpyi9Nfcp1Op004qdTlTlF14U5U5XqFOdEIPXqeFOpk0/+qKiplHmUynU6c6LVMVMVE8G/7XyvlQUOb4UFKFAJ2ChQ3CgZjQelDspQoHWg4ih2CFAoNDsEKBQcaDQUOJQ4mjr9r//EACkQAAIBAgUEAwADAQEAAAAAAAABESAxECFRYXFBobHwMIGRweHx0UD/2gAIAQEAAT8hwbyECBARFxcMCJHA4nBk9GNtGO4WROjCnSPMsMGA1C4ji+AlqS1NYORyHNnNiICGrIbkRCZiLYNo2CH4IaGwQtBrI7bCMPY2+GL9PV7vQzsVHfOnyKLeOnulR2hYqG8nwrwKeyodmWL4Zc5ouCtQ6LLaLuYqFd80WrlCotfKtZQibBtECwiELTHoosLFFgVFn3RauFLgb4Hgdp4Ev5Fi+Wzjn4YhUev3T29HfMVHkUW8HwnuxYqHb8I6OfhDLaLwqO8plah0XaneFRc+aLftCos+38Ydh6DoLKTvMXYXDeXQ6ucb+yKz6iKWFzsWQRsIhjSvoToGvJMIz9eRYqP4U2aLiVHfKhjWfB9B6DvnT5VFi4Urw0dsWqh958N08iFir8JJG8i0kkkbNCZAgQE1LxIiIEhAiRGgjhiOm97CweJxYszOBxOA7aEy6M4nFnFlv2/jLLMVSGWfeLZmaEJLHBKR+EZDEp5dSHh2VcWBO0qIJyCMOjOj+zIolGWIJJWGxOmwsVD7Tp8jot4BUeBR2RaqH3GE4SW8Jwu5kkk4ySSTR1RJKJJQmUDeN4V9IiFgRwt5ODgziyWhL0eETpJ0HAtciwY2kahJzzwEtTkNCZHLEsCQiRICSlkCBDQVBEQIaEIZghEIZbjB0ioV3zRaKiz7dfeUM6uaGyE4sfCSNzMD6km0FmWuXth3AhWupIZsxKrOxFIaRARIkSc/BEiRMhmQsjiyehLRjbhliBOgl6GU+TicTiZCnVYfrh+op/EgRtNxCSToI4WZGrERHe6iWKCWojaCWo5jkzMzjkzmc8CpL7nNn3EL7IjjW0JKLg2DYIWgn5Fiodi2psfCFRMtou5CoXcplQysWW0yoV3zRYuRUdXLrfuOLJaE9CXoQNk6RO7YGnkbhuEtRtqbxzZzIGTGsshESrCOhtCKWbBAhEJCo/jRYWKPLp6uVHlXkVCt7LGRrK6Gdp8JENJ6lmXG+luofU3FR4dHaliodvxIISUTYWCIz1PCosLFF/IVC7lNZQ6DsWUXhUXPmiz7LKOvlX0iLC+SFMMaCmkoImkHjcJaA800NcKG1k3OnmhnVzR0fDborUWs9KHYt0d//FN2NlP2llK6sKhdpjNkEJtw7JUdhQRznyCKRzV0wv8Ahx8y80rx0doWUOylZxnBcwrE868YNGWRSugOmpGriElsmUWKLwqO4+EOiy2i8Kh8+VFn2Jk49fLrsEXhOR5hhEMshprpyNhKIcznJY8EdIqLuVFtEo8ai6WKImbvOTptY3JScSUu8xYzsxpdYETj1cfOCSyJGQd8nPqduqPKpTmavyMZKVj4fwx5l5p8OjuxYqHZStkjyqIB1+hNEko62NkCEv3aCJPqzIhIgiCJDDZLTjgloK4l6GwToJQJ6CdBOgnQMeJxxMjDBg2iNZGsjWRrEcvMjVht0SFxLURqwUFb9v4JDy9hI4xoZjiTmmJ5g0M2FjclllN3OmWDzqmjgm/B0+qLxa4xaTuJ8APnn7EMWEFR3pOKpvQjJuTj7/eEkizNkgr6iUSSX/JKJRKICXkMXOWbxHUR1dBvG4bhun3E3zcNwQxEgQ3M/QTzI6InqN4bkc2gnESXE4jyOD6kbCNaI1oZ1EIk5ODqTlEu5AlmyGrGkXYkSGxshJhaAohQW4wX8qJFdSKh0HYtovCoufND5fYqOrl13hskbmIY9cwMZZqP0S3Vs+sCJJ0IeLyQUCIIEdSBEgCGFEW0LLhZIVm6mSLirCubjEJnbIaPI44HAcyurYY2EbCCupXI1I2RIZvLqNJQrCdKUaNrnTGXejrKXBAmeG5DkGkVLEdWR1ZBqRHkwtnCRPI2TbNsaxkhLN7mwbKNgVJZOghaELQhaEI97YjDIvkUK3sqMrd1J2cCwnC2Mhzw83wGbZ0LVF/KlXUXiyhui7FtIqLuVFn2WUfyddwZCzwkxzwOZ1U8BMCSLG0bRASKFjaWYKYSUJShmSVbUOxb+SxomZfrLMSBULx0dky1xQ++psUd5/HwtZ6s6fc2o8ClX9lR2rLFQ7aeag8wqFQMtVF9JXUWCodB2LaL0KhXfNHmLKLPt/BWuKP4UWllCvovFrih20Ms0dxTfyov0rtKO0M/C+EFn780X0l/LRa4eRUd8vHwxdpUd6LFQ7aVui/mKhUTsWKL6VymWM4pJGxiUSiUNmhNEkogJqWSiBAVAkI6kNSBb9uuws0O2i0sVH8KLg2T4EzyP/xCt10XZk/oUdjS8z80XEqL+Wi1w80+BR24qPAqO1ZYuKP44zhGCSGpAZZECJHDOZLRkvRkvQcwLIccec4MYEahNLPEDcGRcTa4XM5G8czm8LQkWIQGolwtnCRZkSOhtESwkNo2jaLft12FqodtFhaqP4UOxYGiLsg1mbMLIMkkkfuEkkj9gTJJJH/cnBIy+sQgQIDaziBAjqRLyNkbiNkL/Q3zcN8iKU8vA5MLujgzixbWcGMnKxLUTKeoY711SGgnb6E6CdCOCLloLgRsI2kakRddFCUdKX0E8CeslqObNx2I7kSBAVQQIRC0OjkywiXUzKwybuNmoZZQ+YVC7lTKjrodi2i5CoufNFi5FR1c1uwqDcNwgZDH4jaLDwtgtknTQX1HwFjdCQFBIS5uRItBLdlxt24NarRiR1r6EJlMmu6nKchyGWR1ZDVi3P05hF8+P/UBpJwbJs4TtWA2Rsm0QGRsCGhC0EX3/wAYQsbOSi2lettR5vKnwaO3FQuwo70WKh01ihv1EO0sjKlkIh6m9qHZlqi0Ki/lSKjqosZYqL6XXzRauRUdXNbIdyGhCwuWMDsW0OqWiGEn7S/QyRNWak8DGEzocPVEEZC0PPSonBdtUdsWuKPKptcvzR7O1L9+ix6Zio7B4ou8rzT4VHZCo8CjuRYqGCosUXcxCyiJmyB+RA20doWqYqL+VHkFajqosLaLkKjr5o6eRUWfdbLXzRcuaH8V7sFxIrkHutC1cKfGMys9UdGjr1Fmb6wCtR4FFj4O1WEDtwlNdB+/2LPiZypvL2nCPdrR4XBEdWR1ptOmPobUe5uKjsnijxhUdjSxUeLR2LLFQ/EjFlqi/mLBtuhWCFRXuC1UJRAkdS+SBA3BUCWLm4R1IkBEgRGdg4M4s4jJWQn0J6MnqJaDNdDcYCQZ6CejECQnWZ1c0dPNDOvmi/lTdzHQOpGRluXJOoghnkVPh45iuRCKgRYLjb4JmXhwz9ZJDnkrZbCrRS/4NEu5SCutS5rq+hqQxYeaN0QD9TMn7wQzsOghBZLLHJ67InCNOc3yzIrjCddtPcpFQv7eHwWRdmg37BWWEkk5uBAhqQ1GyfAkgiQ1IkM+xHDxZwY7SJaiQnQaTqI8UfQ+glNmRqwEtRtDGTc5BbmQ3GkCOBsm0SGbBsG0ItBJoQ0IRCOsgjB2FjBcqeujp5FRb8F9RODL+WEkjLLkkkkbHRJCdiRw6kJ0J7CJiU3iGpvEU/BuG6QdRh+CZJr2DL5TVFsERrB52I7nMR0f4R0f4OuY5CNDWuCDYXAkKVyD2QhoS3whaCEzRkjejo94STD5xPsfAm0CQjO8Jh62TpfpOl+iaOzJ5/gzqUBZDiOiEsEnKY5IKNY3RGpGoOUnpR70e9DFIzyJ6zeksJJSieiObIf2EdX+iVcsZCwNs2TOZdEbJtjYQiTcEIEIhGRp2ptUXEholLZbZ1PsCxfDuvl0W/YqOuixltMVH86OnkVFn3WxTKMH0I2CdRu46TGdmZyHJnIJgg9TmOY5f0hjG7JoZE8rGck/+JORmhQWNsbBtCF+CFoQtCEIpcGbiIQ65Sh6ncohRF9HT5nR4YksBFmllh7exCdywC4wyr6ZioYSq8ZfgqDoblYX5PQhryWVPZ0Ozp9dvR3Qso66HbMtcUPwpsUJ6NMG5zLQRlqzWDu6O2LFR5tPXzRb9io66HalevhdIqLKowTNRaKi50iovJdUTXS5EnNGjQNJIaEDcot0GsMHTXih+AyvbBaNCw8mtIG3BSOzO3oy/jNmiWkm0uL5YnC18qLeOn0NqL3PlVXQXI3/ALRqQRR7CoXaod0FQva3o7oWKjq4UdsWuKHb8QAsGyvq7w7ujti34V1cuixci+A7UJLFWcJL+QsZLXwK+i0VqLlF8VGdATMvQTKhKTDV4XBSHKeoypnm+xFM2HieEo/OlsupsAoHSO8IkvsDHh5dDJ2PPos+mdPfp9qaqOxxSdwFQve3o7wKj2t3R3otcfA98O0odvKm3RdzEySUSN+hAgbw6kI1wIER5BDRnBnBktB2ea5uMQHdWEykJ0k6S9h+uFqAj1I1EajcEcrOgASDRISEtRuWYnE9ZyHIsfAvCi0sUK+i6WKjI8+MMnURDTfB2FcDUDZdmZ1EPVZC0TvclvGeTEzX3RkxL0SnqmMLf3WCiGh5j7glIJBPG59Ut+FDvAnhOCfsak4SN+4TyRKJJRPoakDcN5DK51CYWZvG4bhCT2YhyfhPcsZCzHF4SWol9HQ3Bv8ABy7QymXQnQ/TgsKNCxGtEa0RrwT4Dek9ZzmfmZHVmT+2MJZcm0bRtBUmEkQsewF8C1cio66HalchfBvoMtfClECAgRCIm4bhEQ1IEDPGUyZxf4cGcGOc46s5CeolqNwTsEionPBTowKK7/TYpokck9CRwQqp8s+pG0+psrCNaPqRqRGpGari425Q1qLZW8jY/grzn0PQj2I9iPWht1ZM3HY3BMrs1hZbjmOQjqyM+Bzfpvfo5RTL6hOTKhBQpKOk2BtjYQqXOEUIhELDrVDtDsPgu5HZKG8ipdhTXNlG5EbeoK0p3jDvaOyFah2cfCWLkVHXQ7VBUW0XKh2+HImpHA2hxWFUWNg2CEZGCFhYWsXYTL9iMy6xalezGyXG7mWQ10KfpqECRZPd7EwTlULVwNuUkfpVuFsuiDLWIf1h4eCSJDrW4Fd1lkxWoXY+aO4naKj1+6O+HYqPT7o78WuKH4fOMnZs7T4Dux21D73zTn4qO6eDi/pJCZlDDvKUrUOzimxR0cio6qHYVFj4d6odix8DtodqZ20OxYxuYrp3qUxGlu8cO8Y36sbiztiRQiz3MnlZ74NJqGKRY+gbyzNASSnh5V5wTPR62d2bOi/MOwoM95PqQklK3+pYn9Y+/wB0dkztVHv90dszslHp90dyOyo9PujPzjslR6/dHdjtlQ6KztqrYAktYd7SFah2cU2YTh08ieEkkiSSA3kZBAgSNiBvESAiDeNw3jMQlxprDLV8idNZodF2RawvUsfILHI8fEEINlsjLN9AiK1NzGHfF7j5uGV20PBXTQ1Z+DBjeByNt6wXYUd+O1GfRD1REMfzGRTD0Y39jeVRYzs1Dvb/ADQ7uDtVDt93o7dnaqHb7vR2B2XwHbM7JYTg4gZRDUgQ1IRThtw3D9kgfY4s4MZzk6m6wclNkCH1PqfUa/AjXgowhkZCeonqObMi4st2Q3IbkSFJDEnBYSRAgQhrIQtCGhCGlghEIhFyIRCMi4WPgvVDOrmi5U9fOPal7+qcgH7k4+YlDy3JKdESSN2CcLgs9SGWdzrhnr9WTIUZGnoySV1HcNxG8hhs+hfPQbI2RaCEKfaGfwwXYYbfLtoRHL+HJ+GYQ7uhDT8HsR7EO8GWm8iZbw3I3K1D1s9LJ/1M0LNFkccF9B5GfWc0Rr/BsPwkthlrpwO5Jah5Obscwt49DGqzHbUTNnmjm/TmwXlIGyNsbBsCfkQiMPPMkZhCU8aENcauqqspT2U2KOnkVHXjmO4sos/DuVFzgtXwdNECkrpwRwWFJCNpGpG4jdR1jriuo3QZjhd6T1kxA8zJ8zU5Bb2Z24lJeMWrElJEM8Qts28IlkdC+Iso+ykEcojqF0NgQJl1myNubE2BH0jRHTsmbSIaCfkIWgynN1Q1D/AZJv5BmoezpZuBQ/e2odnwdqofc+aLnB2qodtDsDtVDs93+Io2LjnMRFhHeUdYWLwlRbR0c09eMDs/iFlDuqLhb8q50dHNPe4vjAnIIBcCZXRYT+B2ON0ViDXd7hl1EtLjw6uFHbM64w2KsFzx9BLDUPdZHQIakjTpGhXomZl+rSoskMvxtf5h5/ihDkERvrsWXJLtehlR2FHoNqGdpo7h5VFzg7ZUO33ejtmdqodvu9DO2VA5VkIv5UfxiwjD+NEFijyCoV9FwsoeKBltFyovFq+CwXwS1c/B2BSsGcFP5YZWVxtj2AxG+WFnhMmbkVF/QwfjRc4O2GRoGk4yHPLpZ8vDog88ybaVqK804otRWf0J4DWH1FL7IS+sO4eKfQ3H/R0IWmzBNLHdvHwn2G1HQ7BQ+580OzO3UWfd6OwO1UO33entqZBHM2eMJ5UXBYSSiVPglG8jeRGLmQNRm9hW+RGG5wZxYszInqJ6yQbQE9GCnCTzWJ0k6TiWC0wfU+h9RqSPqfU+pnpgt+GVF2i2nsVj5xY/RaHmKW3Ly8PPPGxucD/kOZIbEnuOwTgNrDulPbk49w/GDz+wQmy/oTTUlz0zGhInRZwyMZFgHs7U+y1xglbHRig6cy+sZw8rzRe7Ypw7fCSUXW43DeRvIcNg6Uuhum6T9RP2cCO5DclyHbQ6gssFLCpuMJD0sn/Q4oyVsYjWhLwjSGeZI1tgZDOefU5DkPQxCcSY/tGh6G2bY2kZFhMhCIIOjkVCvosYqHQZZQ7KLhYvgsGJwkh+CScD5CTUhqbxvCSfBE2A0ieopI2FEN83zeInb5EhzfhEeR5MtB2PQjk/MAy0+uMBvTeDo5zd9jefqN+O+g/gSU/6jncyscm5iSCWJLRT9J/uE6Ar9EwFlEaxzMawttq8a/oGy/D0oXmM7GQzPemWko3/AOG9NSu13JYG9TFQS/8ABvfo3v0c37hpc9AiRRx1GyNkbCIWeRmfsMsX3lDszsVDeRb/ADS8v2obvEr9zEUMrPLjfyUeVeRUdX1R0LFHkpVFcLKHQdqdmi98K0ybshqyOrOb9wO2bZD0FRYRCyNk2RtiF+SGhsCIVfUKWSE8Bm7LIgiuUL+2LExsMb+hPU3xoHpe9GHevxT6G4sbPGbma+dZzZ1SdU1HsRki4VLLMVyh4AqPNHpnddA8jxuoG0FVX8sjMceg9p5adGKzLewv++dHd+FPY0dhS7BR67ah2Z2ah2c/ND6nbKFlewgxIaFwOcfIo8yFQrvqh2O2o8gqFQ2Ok/Gh2LfgLpZ8Fha+DcLXFHRxj2B0cFkzLxzAlkJ/9eF/dNCROhsmyh0ZZLcdOx5IiGsPS2pt9mYgyJtKMmnsIXyn1XOC32Z0+/sKbNiiW0lIzJJ2Sa2BpkjUi1qmb3Mns9Hej29huFI1avQZG6suMPAFgkhBWLzftEoNj7o7x4+H9pS7BR67aix8CwjbR3HzQ7HbKPNL7ZsIsfMotXAVC8dDszsqPIKtSPmoSNmSSRsZEoklDZCUStSGo6kWfBYWqHQWDZaPPFhYOh5Hg+SN1lgaPpUzbN7ZnRmW1eh0YZdaThcao8nBMp6HhIw9TrT2bwJjOIy+k3rhZ98xPCELmtYLD3dlgujlbkGdYUw0LfZnTmstECcmTSbAUynh7uzFRa+/Pwh2/wABHY7PR3TzQ3kMvpJRuG8hEs2k30bA2BuiV9jPWBq1/COj/CZLJ3OYbYwApeA+pk/6mQ8kZaIxpLrgXJmJUSQbc6m5N6T1GTdmTdnMcn6c2QEaIo2BsGwNJsbWC2SchFnwO3wjZaoTHX8joedRZesjtKPLGLIcWknCx/SafX2w3sS4aSS9yvIsJJxCSGqFS5XkWsjPBDZP53Qm9KejyJJDNOuxtD/WNsLaUNXO+Ek6m/haLqG7Jp/hZ12C29p2iVvD/wAEy3uBb0ZOZ+T0M9LJ/wBTmM4J/sEzt+sSTKtRBBI/qGz/AA9OrHrR7EepDkKXJbXsieDPcxrFLuI6/o5P05f02xtQzRtDamyESydSFoQtCFha+XmmKhUFzg7Ki7mKjuPgkj8aHYtodlF74VhB0Zw/BLUSKZmXNyb49jGz2yf9ji/Tgd8bIEUDHFj6QLcK5GoQCNAypAmuFhz5dgup2YB87x6yN4b065nmsF6WJP7D3MyZ2ahTEkf7DpEi6/o6xsT6/pzfptP9NgdjiSu3IScSOFKWZ/kCMKWFpjY/hshsuv4QWPSxHqLuOAXImEWHgsoZJkI+mdN3MNLsk0v1wIqHG8hNuNRSQzPkROWis6kqmov+mdDezSnPx0eo2oZ2ih28/NDOyUduyYbTYqyuzG56Z0eILFHg0XOCzxRdTv5UW/CuzLaHbRfLPgZ/OjzU9XNHRyscrcJjsd7hkEazO7bBjStR3q8GbhotWyz5vOML/K80ZJalhv06i6jCU4SJ/mZx1mYoSktjO2HeBUNykoNq3Uh0cIP+ml+1LDu4qaumjPoO4R5IWxzhL6j1NdS8idXOVmWJMfT2IQia0ZHxJMY0WpDdoaHaq6M+9LFe9s6O4finzPNHaUHZnYKHb7vQ7M7JR2wWDsfU/GPkfwZUi9wWePhnVzSKh0XYtosU1nwM6uaLFyKjyUWrlYp9WZMi0PBJrFCZOwueErvh7zanxxeesk1MiRsbs364djTLQ/4uRaFSF1SJMirSwr4FnkGZOKFYVT/BI93qj9Ci/l4q8LBn5JYqPUb4WmodgjK/15wbnMJIJZOjMlz3dsEzxU8mb0h0FkPAwYW3MNnkQNQXfvFPleaO1oOzOz4LCzz80OzOxUdoxDkJPqLWnTGz7dKVHf4SSXuBl9RK1IakNRQbxsjdN4zHJuG/gLgSbkdGR0/BDR/hsEtGT1E9Q2i4gDem9wDYJxm9MWfAzrospetdyEMTR2SwzuLPMbJE/dFI5uCIFh4xZ621hhF8g0Elhm5g8pxQkrzNVgtBmUmuMOzZm4lHWoMcMfVm6iDjqtuY4w74NPFQvW1ZI01KSanY/qHO2ocMlFzSTwWhkyBGaEKVQ7ui0PEEITaMv2TIk4Pl7cySSS93eCVqbiN5G0Fr+r8n+kbA2Apw2zw/WDm/BpHUiu2Gn9B7FgnBzXG9N8b4cD/mPbdDZ/pOj+k6UJn9HhchGpEaAxk6mexHsWDV5bjmwXueASSOb9wNkmCFY2hsDbCKwQ0NohoQhVnyRjYKh0LGWUOlL4GME4sh0ofskCBAVIWsjeN4gm0xBTI7jZCUg+jE278GcWbUkBswGzN0zPBz/hE5/wAOjO2hBkOy6EP6D1o9yJ5pFPjWGQ85xWupvv03X6eljzjWczg/SdH9J/sEkiVixxEIOGKo6ucPJsD/AAhdRfwzi+mZ60e5G8RvDqPVeBD1NTr0Bn650kXDyyaFLdLkz56fO71EhS/05f0e+82RK6GyLvL7TFojZG2NhCL0dSFoiFoZEaZf7UPvaLnB2yo798Pdzp7ujtCyjsXT1c0WiodF2LKH8yZmzdsRvYxMXf6TLr+nJ+kmv6c/6KEjobeA2gq2QoVkwJaIfmQcj/xis3bbqPC+FqQqZ5iqR2RCwg6cDcEsebcDzwKH723wh6jah2Zm4dHT6vR3cVHh42UYmk0nJlyJYmXy5LSwdHDs0L+Wj2dnTf8ATP4e7BQ+980OzO2Ud6ps4sv5fCO2LaOzdPVzTVEUbKT+ZFfxR2R21H8KOyO0odvA4nO1aDJOLsmxTCQiw7KjvlPbUP8An8xh24zjyuibPjF955o7sWKjx/FHub0MKamCVsCtlazE01Ksehs6b3pmOtmO2UNkb6HZ8HZice5U26O8/jB4Mf8ASi5wWUdk6f5YsfIR1xnHI7LCGpJI2VhI+RZ8P8aLCxxRZ4ovHZUhYuxY+FvM80Jm8+KfU3o7h+KrCXdWZk2CN6vVUd7LXFHY0Hm3/ShwrmfR1aCItyF0M1SlKwxFnxhUez1HgzvfCiUbxJkXQuNxOEjsx19YlECGoqSes2x/vEPT+myM9IfXAbxv9haSTnmJYt+CH9Av8mEdzmXJ4Qb4mtp/unpY5eQWcmdx4MlYShLLEI2CdDRH9A/xDYfhAwP3rD74l1CeslrJ6h5bsTMnoNhy1zkyGr/SOoiR3/TkEpfEaKxY+TCcGW5jI7FkU0V8F0KHy/dHePAqL/tnjIy9nSlsn7Zkkkjr29DYGyNsLUFotP7CO6kTnuq1EwTMz8skYsMN4Xx3TQpesuh6kza/BD+gzCH/AKYTmEilmHTyQdR/oI3wjk5uQ+WW8hXuNI0Vxv06k/2iZShZRpBZIoiXUxH9QWGb/Y2f4e1HtQ/7huOx/jI9pCkJPO51hbDexkNX+jb03O4t79Ob9Zy/rHC8h1zSyNmPTiiUgiCOvybSI0IhaEIdY9tJNsz4spIou5DxZTIhSxCSIgEPmY+3cIv6BLM2FmLtM1cjZqHIjdGEkiPlBI1OGJkNbqIlSQJIxcXAVoBp/QlCcmU/GaA5sBIm2ogHcm7N5+jUFw9bNh+l9n6cELpUVMtM1kIz5f7EaxGtEaH4RXEM30H/AJj2o9iM6SE9Z6SPQRII4db1PSz3M9bNW/sbn6ZvfoSP7HL+j9vWjYNrALPIdr+H+cbM2gil6Zjd0QlCw9LM/BfyCxypth5bsw64Kz7Z4JxgaGjJw6kUPaFVGbp9CkeZce2mFvszGiQiSxtM0wMJLJsysIUn1fgk6K20QhqJpvKNyN2JkzQhNNSicGS9zNY3ITlp9CcX0E6ViMkQgtzs/kkJ6YOuHEg5422YOkrXEzPcYgmVoHJs2hnROOjFYbPlgsGNgz4k3rhM4nC0QhQaPTZCtpM+o8rVFlEuXVjnql+vhJOclrHQvpaCagZAJfQQJKchYm+SRbSBfRdCGWSUB531wTGUSyKbfKGNl9/AGeZ4tF2kWU5BcGjzKPCpv56Paa03clHg02e3PFo5rMcx5rM2ihPyLHbjmKfYu8GsGFix7X4YO+MkuwgkoEgHl11H5Ug4n0HA5MzJGyWRkZ5yx2mK6QsqMajK+SWI+tDvI/uGxHpNVgbhSZsHvRvAkNKA4z1ZEBjUmQS95kM7jsyCZuThjsJJ5nUhBu+w+zSKnjMUtJZIsLueCHYsFCXsiwmq7wgc4yFhRI5mYF0bc4WUZDWFrLvRBSpyQQXiDPBlvVFmORfNOrmi/nQzq5eMebzWf0Kj3ybh3Kh1mBEWyy543UXstRUdg8Uej1p97ZDeGZb7MxTLqhrB1gGj8Oe6rGxnbyVjOfh5ozUpfvTwxg9rqJ3ywStxK7iYWE5BCgZtoW27vIgligJsv0dmSjpASJRj6TVCHmmInA7uCb6FQ7PdxYbA7HbYuBf7iRGRBh3OMipJEUhMkkfZEpHUhqQ1ImbRtjZCyyYopFrm7hE+zIyQPSBM1ENdRR6M4M4v8ODJ9QkUilrGz6kL4b1zT5KOjlU+TGTjoIyWkWVajvaPMvIvgi7z5U9g8UW/bOm/no7/AOGNT9YQEeTwZH6lD9eaGh+jiwlErUdLkXgjqbiNoSKV/cJnT+mz/TZm0M2vrwm92OX8Ym24WjYh/QR/rPWieo2DD0Eekjejc7W6nsZ6mbD9Gmy21LClYTo/ROgWhqCWpEakf4hs/wAIjZ+DEUctD2I9CN8Mu+pMG4IUy1zucv0Q1/Rrz+iDQhRm2bBtlhHQ2RtDZG0iJZG0NhE/RCpRyJIhEDQjMQIgdvhOjn4xUdwTi4SEohqQFJ5jcRsh2X+xByZZsRr6Tbm3NtZHJ+GcjJaCsrPZC3c/COn4If0nsR6kQZ6099HuoTepF9CVPpZ6mT/qQwJTlkSZ7HhIz6i8kf1SP6JH9Y2P4ZB3fwf+YX+E9qJk3/wOSgyE6scm87HOJtmR6mepnMXQ7/J/ojc/TOT9Fy7ya42+EQWUsBlBsjafhsvwT0GWgh8W1xCIL+WjvvgjCMOzEiwfraqhvwG/IQXFhO33cWNj4Li6DQmxSSsPNJN4UIzYJdzZC+WnCBFPVsXBClNvRFtRtj1cUSWqOjkVCvos+E6BfDac2ehkdf0RXX9CknL+my/1mx3Eciw2yNoPSECh0I9HK/o2EXxlJFZXQUELTFdpYW26L2YX8SxY+wCuWZbfNHeRUeo3+FexsxgTP0s8JtEx/wB4gzUPcPKo9FoWKjx/FHr7MG7SS7SdbCUjL5RcZ1izLtgglk0JIZlc93Z0rIyXF9BC1REl6Dy/JDytLh/JGPaHYhy3OWgqUmD9uaJXUlkZHQQmQ6qZwxkbsxXm7DZyyThkFoCTfUnOsQtWTdMF7q2ZWGjjwclj1cU26OkVFyiyl1UdIvikZoNmmoawXaoRQ1N7k3bDwmZaiadhKp3yRL6C3uzYa3FZbnUFIEUcu1HUHMkyGtlfkZIu8kIumZHbYpszBBKnU+RvXTkLTFZXvHngVC97ejtBUdm8UeNi3IpBTLVaM87yNE4eu2o74WuKO3oeXyw39GyRjmRN1iXVYlbSZ/qe7s6UpbIaJR8kCJeoQl9W9HbHbIdQmmQkd8H6c0X0vBm4BLfDBQbEnjYiSEPGXUzZGVAY3pkSK2M8vbyLC0dX0LFlujpFQrucJwsFahPNQ2YXw3CciOOyGTaULD+GKWXRDH0RnoKuTyNGCkDkJuc2aNJkZWFJPEamyggWvMszd1PsbJQ7Q0qdUTsLFH2Z3snLHwPL9UxmT+RKWI5ZZBF9CVfBkNkse5HZKOvh5oSV7xfBi5baDoe/ZCFpZvyoX19KO5DS3ZQvY3o8LzT6+xI+vRGtBJY9bbCcdT0JJJHkc/JAlam4L+hkNksNl0HoX2f7Q7Y6DbYCfqN17CZWgulP4zn/ABkd/wAJcl2fQ9CPYhuTtuTDknmuTJP/AIYU0CQyrGnPX3DzYS/SdL9P9Y4v0tsjL6UQWM0RpfhH9AjS/DZCTl5kF7Ue1EIKK83xvCesWe4lrwXIQNZi+G0e1liWfMZxq8OjF3G68+DVhF5yeyhZLB2cCjLGwbJR2bMtMLhhb7YpL3uLrSRj07y/uJlLgU87pJWpK1NxCVmdXk2Rtf02I6mGbEBngt43RInZ8EbX4Z/siH9om/Atz0Iv/iPejP8A8hsmYvLVNzfvzAPSR9tnuZ62bH9JtoWFKyD0PEMwTQNdIj+of45nD8oWiGy/D3LAXOdJfwRJUJksu0TNc5n/AIIf2EI/kNz9MzOv6OtrobY9ISBklCBnTGTaG1GtsliIyVjYGwiFoZZaFzg7KjsXRAt+WRjZ9io/godmWqi5CoV3SVCu6LkL4bWNhmJBvDdYGelj/wBQyMuWVxvS/SNdCdOMOqKT0Ij+oR/QI0vwhoh9HqR6kjc/g+5Jc07X0ZgT/vPcxf8A0HsZvfo9DLY16i0O5t9zYNkNJqP8Y25sRqxu5tDYRCFX1M7FQ3oa0Z09M6WOWX8gxd3/AEMfIoucHZKF729Fz680ocnuBJK2LerSnsaHQO2Z2So9/ujtmdlR27p6uXRauRYoXhoucFii74gqLnQ2QXw2Fqov5DrNrZlqsEkrYNk+cWFRZmN93wF3MUnqNjG4Teha/bDu0OB1mE1K1HdPHwr0O1DsxfxUL1tXRO30YqLPZmP65TH8rfW9Nng8br8BYuzO10L1tX8J9XZUezsZ1+R95hJJ2TO2VD9+aO2Z2VD/AJum37Y8beAVCorhbQ+nxCoudFj4nYtNuRcJFmatBKZ2pnWcLXMi5XJIVPQt1NiWvsO5pE5dCb0CNuhHlHUSPJ2HTjP9osfIYzNoaMHi4MhdciHbEK9v+EJMks5NKL/ewqPY3+BHY7RR4nl0X+V5FRl+zCNEoWZT/TszugVHZqPF8v4a97ai/wB7YIZOeGWEHdKHbHZUMVj2B21HZMmhsh4SOsuRMnCRPOSiUQ1RKZogXRtjZG8hMo3DbG0Nw1OA3DdG6BYEl3IbiTRnB/hwf4cWPP4rLTMyHyedm+IjSSUhXE1ujFUIR00M8DLIV7jy/UWpOhHmVJtM6PJgjYaXKCGTeywjITaUZawc1K45pLqNS4eJsiUHGDoPILbPFFR6vWjunintaOvh5p6wnBs+bCR1WmmShvE2YtIbX9Nh+mx/RRNrIbH9NibAvJ9s38BvCfvEDjP8Z6EyP9Bx/BdRqcvyixBn6An/AGEj+5sv0dmT9OjUJcfpsX6OP7wdEmRGr8j1T1IpeKxwYuhs/wANj+HoRPd6jdfiN9+I3o2HnsPgEwkUyeXm7C/0HvZ7GR1/QrO5zfp6mzn/AEypt0YBSPcbA2hsxBoQh2Gx/DbC0UIoENCFoQtCEWYQQXIXwWV8LLfsysyJQwgQ1N5G8hIbIZcwNibAbWTIrvCb3Yn/AMOku+hd2/xjmsfQj/QPybyuhRF6SPcQtV2IOmbXgkEZZZiVZM1FxdVP0RtV11Lckjj+jjgEttXkf1CP6Z/jE3wNhf5Dc/iP8RHoInSFXJ4Y9rGkM3f13Ikh/af6A087dWeps9zZy/psdySFb+CNibE2I2yUOHYVMGDJxYf5xs/w2EQfGQtCFoQZUPdxWof8Xijx6bX35o7l/FHbM7VR7/dHaHbUdi6bKPMKjuKOypO3ih2ZZRehfAZXwsS55Fcn+mybAsrGwNubQ2QlJkjYRCIRcLKLEhO6xuioT7JO72/SemDf8sC4ueJ5p9vajxafL5UPvfKo7yKhsjT+Kov9LMimRmMXdQlmLUfdfNHexWVHdrxR4FNjl+aPVbUd2O2VDoewO2o7N02qPIKjuKLpZQ/Ch2ZbRYFi/n2dfOLEG8kw8pwZ8QnB3BL3MnQVbLoYHQkNoh5UDpO9iDksl1HKizSN5FgvFhmLDODOklaRs172W+iyA64rsv5wakvGX2QG/CJvW6jJlOhUejsqLfRnTf8AfOj1Gqo7+KjsHijxhHRCutUKCfa0eHleaPXaqj0GhYqPY2osIqPP5Ue82o7kdqoYzj2h21HeqHTXc6e8ofOKxNe4W0Og3lhkkknP8fXzhZRbsQzR7GegmBPtGtlZ3M/uhJzckhNTbaCvnRvTd+SLzTtuOcCC7F9YZi5Newsklh/HBG8mzEWFKwhn1ckK6qSHcx9PvBbn6kGFJbHJjOl4l0d54Uez1pt9WdHsdqPbaFjijvF4oTICwlJMvbHVyiUz2N6H6mqo9NodkqSnCT2TqLUNobY2RAalf2DTf9jamxESp5S/g3T1g5fxiJXtoISodl0P9kcfwcX+DEubEl7kOTaA9ITdFMZA4uaxvuxu+xusHAV/2P8A0C/3nuY7cmpOj+k6P6Tp/pOl+mY7XJ0fo4jihLkCXS0RqEahBI6yI0/w2P4elEFhA9iPcjcjbqJ6zeG9HkG4J4SQEs/yy2M5HNGOcObiGu7D6QM7XDw9WRtC5FHDb6DsjDrmGWx2zWbZEkk5BJkxWSSEQx0+AUIhqbw2pt5sjafps/0ZQkeYSY2pgbfDJnUzLo/5D3MbX4ZD+kk7A3PWiX9ZLAp0UGZe0je/qN1+o/ksepnqZ6mO20fUTioZ9k/2Cf7Bw/RoU5HIRrCX9QWE02lubAbUW4OuQqkJ+aLn/A2MmX/Q334f4iN32G/urDmn6sif+J64IM4ziXm2OpAW5+j1Nif0yDbNqbEigX/Y2RsPw2JtCEsv9CERhZ7qIfeO1UOj7A7IknBsnFDHyUXc6GPfnCSTzCo6sJwsZZRNBsh8sUK4XxS8JMIj7Bbgv0eWyLZA10MT2aRsfw/47gYJQ74bxcS2WG9jPWxrBL/SGrNz9M5f0k0k3YjEXQZm2mzNuNLfUbYSyg6TIaCZuDtVC9bejwfNPkYO3BkdoH7HvI9IxtpH1Rc4GnhUdh/Oj2WtDCkRvMf3IgWCt0ctYev2o70dm+BnstRUXffOj1G1CfqO3UMVgx/wO0o7hR0LFJVGaecGsLFyKhX0XCzBDpWuihXfGrqGWCYZNg2DUSMyM4hTOOwpNn1YzZm9sasHp6ImZCVtiG727QZUds8Ol5SEJkprIXkKWWSHSvnkjTrxhk5LURM0ttbc42JlXNfYR0qF2zajkakTkp4ehssHUrY5pSl9Bfd6UXODtNHqdXRZ986db15U2JqwXTWvQfYIu0MnSch3Qj2m1HcjsnwEse2dPstaHyvTKjsmS+lQwWDE/JnbL4U7Sjzaerl0WrkVC7lJZR1/Dbnz8avwzAzIupJFY/RPdF1EeM6CCSGzDS1EQJNmegmFdm2KddGMunILwyb5FjS+8juBYNkWqC0VpJHctOx49y/BDrb7D0ZzncWHpkhtrpvrdRSTtlJ2yEvbqKEynKBqGy5+cdwERXFk5mcbZGRNycywe3ssXj7jLcvh0OzOv00L3NXR6e9DLhTw2jzcERqA3C1FdzMrXR/gi0pghY9sztFC9Leiz7502erPCcHoXZMycahsJJwj9Q+TgkkkZXhK1ORDUaajwubhL0fpvFsOotL+i0xsjbGuNwh6RN6RiIfUWubx7wM0yOb8OT8Guj/BTVn+H+AexHoR6ETm4nqIWHJPUMi4TaierAN6M+/xrwwXOTBm3HNzXbFpAslBKm4Yk5ykSmd/Q0mJSn3qhQtRWd1Fs3LsQPyXc8Xsi6zLcDkEzChyFpuxJJJaUEhn6glZ0wVNXRvyEgaI6aQ4an4QgVv+ROPTaxNQhw00xEQrErUdejof6Rth0Uh7kBvJS/ZPrtz/AGBM/wChsxJOGRt8ds+87PJzfjOf8ZzfgiJTcto5PYiP9Z6UJJ1OsEcoyDodP4WyXsNGU2egxryXZfR7yN3+o9DG3ladRsktvUnR/RQtNm2bHARkYn/sczH9Uj+kKkkPY3PQj3o9aN12GtPOotckxpGWc6T74mOXZjVue4R/sN79HXdn1OurLqTKGn+nN+s5/wBLOMv+zYNk2CzOg0kpRhHEUdCXpMqIG1NsdMGx/DY/hshEyOjNkbY2UdYQoyIWhDTDyCohL5xg6RUJZsbhS8axBW+exK1N1EfQOK0zOfU38DmJoydxYBSDcHJR7Ge5k6X6NBZK5Ol+k/2cCTEjL4oR0/kf4Quun4St43v4f4ywBOGczf8AYe5joznQs77keT/QqKX16nL+nN+s2+5K4zkcGE3SbM2pEo6rwf4hsTY/giVqsRtjbELQhaEcij1+6cqL+QhD9iGoSQsFq8iX2yLSTVCTyGym87EcVmH/AE04lJwsJy/SXR7G9CuWQ9Nv9iRrcJDplvL/AIC0wvYzwY7rsPdcgbOukQ0Q8jfQZFBvqJnVHvRa4wa03AtAxhMISMUnNyPNuC1Q0M2GYHNuRyh0ZPWz5MiNmqLwsH1gyqKZHUyhPMZtZFPC43bzFlLW7maQNr9Wg7Q/Ygbb6jISdbi1JFiuzMYluL+Q0mdtGwNlEQsiOfNFgsWKgaJb095Rb7s6fZaijuYneqjuR2qj3NqLaRm+/wA0dHq9EsunufhYMQuT9h4hmb+siamRE8i1IPTWqfQdKrskP7XO7b2HOygoU6HAh+Ar7OqOEPuFLVELY+ZeRY5dOS/ggeh+QWVqxGSCLDS56GSeRZCPIfZFJnKhq7vchA0Qkk5dD6nXgy9DYvZR2bOwGuSaxBHc6yRbPH0I82rwLWGMaleBvSNRDY7ahrpHGQiOc+rE2CmGJ6Yb5LVF4Q1KgnNNZzgrszCjEIedYtU0YqGiHCE99QWbyRlQs46E22XoZaKFhZ8btp734ddhUXBUd+qLfpn8LfvfhR2zOy0dl/Oj3+oqO4fmh+xqvhr1dljnPY9upnZv8iZdYz+xRs7K4/M6sZl3TlGYmTC0EiX0SGKxyZo5DgWo084tD8ryLHfJJ7zuKexfWWFzwaVyxgmuqOzGQ4ahiS5il7NnZFrGRGykQhLJDJXYQ81Bny9wdlRZ4odiwSSSOC+C+aFBl0VJBKExEiwWBrYJJWoygs/8i94VC7VIVlR2dC/9U38tD/s8UWM7RQvS1dDZX7TT6+6j3W2EkkHOE8JJHSzPaRA3BttBlOf2jLhtCTaDIgJ9kF1Nxl4M+Ug9c3TueLGEhYhcj/QepGUS3OcQjfdsO6KE9yDafotJ+4IlmSTh9Tiif7hOlGlWYmRiIWFyG5hXFJtQnBH9UWpn2ozUuwyl4CP6A+nGzI6k/BrqZwelGz/D0o4sFj/wehHsR7ENLsN6e5G+HIzjWmZHpLAJ6zqgz9Y4AkrHEKXqyP8AYQ1ZDVlgizMunhwEOlwbWC2A0kW/IFizwcJJLg2SJwlakr8G8bI30NMpInPobuFzF5DsPQj0okTHmBa8sZ+xvD3M5qNn+j6BFC5m5Lql/ijFrYLkUiI0CP6RsvwSulP/AGPQj2LBu9i5uD1keiiQZ72GTFF9bMjl3deCP9gl5z+mb/6Epzv6m2bHc2zZG5l0+A9IWQzQ8jaijgmf8GbY2xthaCIPL6GRGHr9jlSWyfmPob02+zPCSTsqHbMb8WMyV3kjbCP0lDZj2nfB4bsxsj2EbitTKTfBpbPOBDRXZAWptBHgJ1miT+NFzgtF/wCwmlywhkkpKWybow6mMiDWWG8Jj5rGlanQ6hBK1I6MglWJJNl0Fi7i0XxTlRqcxGpDX+GCWZmN9RyEf7BEs3+kBYO2bQyGXQ2kbCNgzHw47QVHZPFHo7USPNE8HzR3HlT7XWj2W1HvtC1xR2nwJRi3chJMzdtBMLo8CLMztAg4COzxlxqVUmSL3D6Ili4ohux6G4zsEkTxhOHrb0JXzMbNuLcIu8j6AzT+BkthIbUDKpn3tYsgumBxRcXMgLsJFN6ChpPBrSjdipGTehmzoE006GcUgklBORBhnVwLG8QBZ2zYmWrw3csJHOhYGyMJlaCgaGZMCyEwJEmPMSwEPpgREkkvkwiwuAqKz4ZwuXIqOwov8HbUT+TwnB2pjsodmyxUd+vFGX6hCePYUev3R4Xmn296O2oe+0OyWKO58DM9ZitaKCInzdCBrYQkah2YiJdGCLfPljMzos5askhtIkUITLEp1mRDhzC5z5DzBZ/ADi/YRKGph1txQ5EwR0EZQPNfIQmhcBLu4LprM7A0U6iwksFsoXaLaBfQC0PwBcvAjPIXShnXxRcIJRG0RCIcjMevRIWSHNiUDzGKNEhimETKBKjCOJr3GzLSx2wwpEoZCckhqIotLPj8lP8AGi8dtRl+2h2ZZofcUd8O1UWvHiiz2Z09w/ND7zzR2lN3JQmfyLHMnVjslR2g7DBNSkLRdrJMyQgSWmLL9+WLSahrIgIyPxYoRreLMiRrLCi5t/02xooZ4TNjZG0w072ZuG6Tu40hTZ9C2HZdD2I2PwyOj/DrwxD+gjp+B55l+FhXQTC8BD+g9iPYi+ykUv6j0IY8p2GpFMJFIpckuhuDem+JTORT7Xjv14PW8UHAGgF/pPS8BkMidAnSOCHlOE4o4I+o859MKNSE638i2n+NFnw6tliiASSStRk0T0M0tWG2NkbEQdN0ILobDCPLn/QzfN85/wAZzfhkLTPoLchp+CGfjPWh5bTX+SeJQKBusxDuN8b79Pcxsru57I9TPWzYfpnnQ312E/7BP9w4i5D6Fidi+G10spdQL70dx6P8PUj2IzxL/sbszb+xuuwgJLy0xD+0S/2G9+hvVkJehszYCOU6eTaGyNsbAq/chEEGX7KHZ8HYqaMe2LMJBxhL0Bl7E43y3BorsufwCpjMMmECswzInPB4NxYO4tVJKgoiIZYKh/8AgVpuYfN+EdH+Ge8T1Y9OSsjYYHIRpHOGH3f5gD3TLuIf2EYv+jm/SwyQbE2BCnkG3QsbI2RtiFY6CFoQ0w9zem97Z0P3tqO9itR72yjvHih3HYKE/Y1GSWcyOJoeQ9p/703vbMZCvIYTpJOHfQT0jzWjzQx/BuU/qpTkJ2HyTfxuDDMkSSdAJR0D7ohr0roQWYqRY46YuglElLgyIjSQ5NfTfo8fSQDajWjAhfsZu5E0nOVAsIbBvFYcAd6iPazQ8rE03WS0iDQLR1hJp3E87QuFtDx+YYNICwoeOxCfY9JpWDodHypKjppsou50MtfLo72hnYUdfGjzeVOde3P4Aeq0LHFHsbKO/wDlR0PfaUL29x3PPOLNMkCJ+6HsD/k6fQ6sFIFsR1cIzNIzLW4pTp5x7cWLwlZl3KRa5X0FZrSOYcaHQy/TFqxlJGlkhISRzCG+RYiReuLoFX2o+F0WQ2KYZ9U6L5aPbsV0RDpaDc68mTTDGXfXJAIYdQpuc2RZCkiVROmSh5kd0iyLhbQkuDOZuCScQjzFmRFUsVW4KmarRUOmvcujyL4Z3NDpnt90XfrzT6W9HZUe5nYqG/N4o9nZ09po9Ldkmkldg17iRMeVny0+j1GM6VswhbCSRijybLHGPbCwalNGcB4C75GWtg6+1+MMsLnAs0bIypIkkbUMEkmfgHyEkkoSs7ZkNSBAfOMoN4gQNUbyN5EdRcsyFYbY3DeISzNobiNwTDIVzeNkbw1ESpHTUo2w0rmqHizIepvCV4CJwY3KC+SsXwB0zyKm/nSCotfdHv8Afw+/mwkkf2aENTeRuCvvFw9EbiN5G2L8XTwNfT+mxwCVmxrbpui0X0HP+M2vwzg/wv5O3ye1E4wRZtsyzXk3xvv09zMj/sgZH9xP9g4YBLVcR/UNT8j0oUBkX9sAb4i4e1ln84v9Q0spN/BN1/RufpnJ+mQ7/o06Og2O5z/uG+i6GSy/Ywk4FpirZECxtjBsGdyNk2TYFHyFoG2jbNpGUUG2jZRthSbIWgjaRtENCENg2jaGgi3GTcGwbRtELoIVQLKyIWg0gSRCIRCEs6LAvjtLFjJ35KIakNSGou83U3Dk/COn4JUsmJtDe49RQJE6RxR9BBc0QCJdLg2f4WCGbN7+G+N0N4ZrEilhLrTFrfohr+jc/RzfpCdP4m2beGsvq8G1P8Yi6RCJLMVpUrDZG2NsKoI9I2hsIhaEPwFR51C7TyzLUh90SZDQKbSX+V5pdKVr+yh/c0oRZTaER883ZCAyhu2Hu7UelLCKWLM/3DU7RQ9QhOZM8JOxY+SxdsK2Z1fWEkkAeqFCEyBDG2mErcn/AATTYu6BZYNnLKCif7InRvInNAwzsZIfUyExCUiAY0icyQZCV+C2UgkyQy5h6wMXSQ2dD8fktE0LMnqOY5sR9htGybBCFz5UWC+CeBS8p8qH3BOLfuGo93ZUd/8ADoucDZmz4MtInR5Xmj2+zMDtkQs1LcZPVgcXAzh0hDYTmR5XGVmfUZ2dUX69K0wk7ELFuVilwLUdEMzrcv8AgpOK2WHq7IeDyCFvr/ARZnJDuRQh2nSxnYMWTh4wutjsBmCRd05XL3BeDRxGcvmjoIJUkzNZNSTBWiuRJDFvCfR0HYhvd4SxmynDGWlIn6xLYzkVkfUlkLZoIaRGQ3Y46lmMPqwnkE6uuEgZYQJLBXeE4Mr47S1UdPPwi5T4tHkQrYs8ii93UdwLD2o7F4ov97Oh2Ox4PD1m9HvdaXyemdD7zyRYQjIZwDeQLmBOTO8jl3IkWWQhKFiNPrCa6UMsZVHVJZhMtMPR2WMSByc34ICBBi5kXQxnbsWLjY8CSXScxEkdsSKqZQ6ZjsRCJbglIBWVCBTgqKEsIQl+mDEssJUdQsUCsJWywcEZhJLG/ggsJJGJJJJlhfHaWqjo5VPj0XyxUdhRdFR59HZOjvg88aj0tqPFp7RQvS3ote2YqPb3UemdUTdkbY2wwuBtCHpNhhE1BPEiy/g5fw2v0J3q4/BLCDfjtrmGiD6Kfps/02f6dMQnR+jiJ0CZ23FxOQhcrALfqxGsRrHMODmhyRDdRAZqYsZKho5IjWjmhKXMgPSsFKMwlAuEne60DhIXEnF8UkKHLzoDCOLiTgMSl5YkQ5vgN4S1Fw2QLODmzkyIkjh7IhN8lhao/lS1BCRAWZD0GywCkvbHeT8M/kzg8cuYdHvG6N5+nsY9qSGz/SdCLolYkt2UZJbOhGl+EaX4Rp/hB0noQ1o/R6EehHrRlGOR61g98JOCX+xuTcEy1D+w97PWyH9hHX9Ej7ZnP+mw/wBNghPtkbU/yjZFoK4haELQyw9PYzYU2XYTlJjSwnLkmdy/FHfC1Udq8Yvihtk9UZPVYUOzxm6TnmNNAs8CUIyseK/gWOKE89DwZDSXQM4rv4MalfM3A0Cck7mNCW8sEoaTQrsVpMSJEJ1InIVOuMw2aiIVoY7YkjQREyw3CtE3nsHulsmRiSSAqs8yfH3DRbYUTrCeXxMyLE9WMOTYWW6I1LBSC1jmzmwEkQFkbSNhEDRtReFR3/wEztVHqN6LPdnT7dqOrj5oucrzS2Xszo9ntR3MVsF5SdENa/QfSTJ7bIalQxCcCe2Q5NeSX2iGwmWUjOWyNPnDvx2w5JeWhEtJpfUciqU+hAqWy8DsSH0NpMyO9WuTboj/ANBcRcZEssvUX3SNbShysIZdCGIl9DJGsHkarC5wZl4HzseMMgEnOQ7mbGZs55My/vhOULMhjmAEoTh3WDxk6iMNMzI/KEI6kzKJkZvzcGwyFdjnsISUjMkhYTF736iRCSI5epkxBZgcn2i1I3c5ZNxYRHMCpfYJUjOoX/Qdwn4mW0XKf40WM7Kj+NF0sUeP8K7ehetvR6LWm3z5Ue33R3i80rl7M6O1EL1lmrqiwbA6Hly89juIrLBIE2TT/kRlM4HIq9v4NYKG8N1itT/gNTRZnr4YdyO1Dws+rYyRIGGt3aMvoiUehHpI06k09sDdDjgiFkS3fUTNptJZjRKIQ6Pt2GKV2CZG7Jk48O0M5fREjumEAMyELQX3qTexhK7GdnZ5BElGC72GTCqyGILUiwaMSgV2LW4RBYFirujoosMwsVq0x6utCUfE6d/gVqP4UWFmh2UXODtKPBo8AVDTR+B5o91rTkj7zQ+880dnTdROyOdrs+GN7svCEkiSM3NLWDdUNiyjoRF+oEklBJkOvR0ZuCfWWbNkNQNWL+6LATTmJVhPNAnI+pq34LcGZksEmjM5ODa/Bwf4OnFqRJZP+Ef6Dg/wShtOxABiR0f4c34NYYha3UZSw5ZHcjo8DgzkOQeWyE+jJaiWsnqJSyJ6jeEw4aJ6ieoloJ52JaieonoZFidiWonoS0FJbHadA08KfaDmh5BJm6QUfKXanaK1HTQyxQ3dotYq90Iam8jeRdPRG+jZGyHlB9Bvm5hwFLT6T5OT8OT8I6fg60MR/oI/0HsQ95WuvJLAUwmTos3+w35vTej9AZrD+9mfo1kfjidP9J0v0nS/TijO5h6ByEf1BnqrB0v7jG5puS1jbq4yVmM3/Q3hOpDV/p97Xgz6A3GbNjASsvtM2RtjYES4OyDbYRlgUs50w8Oh2cImdNmhWkXQWKSpaDNNRJY/wxa9q5dIapNonOaP5ioufNFoqFeh1UoOdY/OG+oLBf8Agse/JJKN4hXEsENzgyWocHInSTpR9BrUL1Ddm9wXVGQ3OTAajzo6G0NkbSEpFHRGwbBDQTJw8kLGDyeVGj3nRd5Xmn2mtHq9qO8CeVHs7Kju34J9X6aY98G/Kj1ti37y39EJGy8C8idiIsa/7UXODtAzViCkIc4R0fhdPmG3ZhqIT9BilkOFSciySQo1bGSaSocWHjVy6DSbKNNxC0mlcaUnrh+ah5OftaiFlmpxsfBY4JgTsjOH1EtT+sM4bEiCpxIbsZVajL9Ak89wrr0G6sDc+TO+s5EKf1H5izWPcYZ0Tng5NJljNpOLHuYicFaDVFLEfDQ1kGg65JlBYv5bEliJsG2hpFiEIjF20M8joaOeh0zqoedCosfLzQ7KPi+fhL3m1Hfiyj1dlR3DwNa1d5IbfI5us1haLTLUTOlZOaPe2GJ0/gMUXeQbFWdMhptfdQ7M7GRvrk3oxPfBtzlBaR5LFpdEjY5H4pgsy0pg+t43IHWVPyJaKsmLIgnkoGYWRtIsbnBYwkLw2szoQzkTU2FkR94JJumdF0JAsjILC440oySHSRqTqhyubk46FPqkZWkiPfG54To6EISQghixVnlDw8qlhtnCJZ4SbNAwk5gahIWNjLfkZdQsLHwZlr5eE1E7Fv4RKjz6H3/lfDruajsqHfy1xR2DwsE8Fft6D3uEQThrZ9MJJH0T0JGilLQkrKb4RKYUnlOwsWzcD/mEDSSixowT/ESTgqST2HQhXrKxKIEf0yUStTNeBGOUSSNkx0EU25KJJFZwOpuyTM5HzCSs0hQtBAlCa+43DeN4RC5INCadSGpDUbNkNRCUJ5lwIyEmpvG6Rqw8piRIlYJzscCeoTjoM0JehLQ2BtxYt+R0iws0d5Q6ZfyVDPM6HZQ7AVDIU43AQJRK1HRtw3kbQ2xMPbGyNsKudX4NlgtwY5QokvphNw3BKfnm14Np/hCbfg5BzlLL+BvsJsf0bi8lYlhizA5o+gjvdEciCgpd6y/ZvSRchyZ9BJn1/T0k5/0UXHRYhtET7Qg2zbNgYVurNvBbI0knZm0bZHZDieQ0kbYl9DaIfnC2SIiGIg2SBCEkG0bRtCMuRIQNgiIliEpMwIiugliBAgNKBERhFBjZqms+VXUWFmEohqOpXJvYEB7WP3EsCnSWp1RtgjUiAa1iwefVm7NwS1DaCm8k9ZMs3UJV6wkhXOQhgTOZsGybQgmLzhtnBLRrqFHYbI2xthF7eiNhGwiGgi+x+CFobBCEX2jM3ZQ/b8Yov4aHYb8+EL52r3NMLr0zwlEkFC03yThcxLjoNpUk8hLrhK5gdzULC/Ycm7QuyNoFxOVOFr0zpucvzR2Lo7Q7aieylWUNRWrkVHXyXxvVDpq7osCHhYL5Zzk4fIacXMq5m64GwIyIRGDLueEYWfaoZ5lD82DExvwLF8AefR3oscUdn8KO4eKO2Y34qO0o+EQypdl9nXZoZvnVMfBdLb0kdhk0SM1xcdTSyTwO1xCJtbhoxkfLeyIOIlqbiB7yWAync9Bonx7dmU3VHJeKWjM7LDLPVz+CQuTxC/LMShLD2N6WyfKjzaO2EycUfxp1lPWNi5+FuWMlhbQr0ioKqa/4/C9HND+GDLqHyaO0LVFjuvFHdPxR3o7ajufCj09nQ7HYKPS70WmZEymJbuOKltxE7wLeipMaUumQjSuMQKcyDO0ekk9XOzBJMlpM24oB2OEo6CQkjq4EYY2pKE3wscqnr5UedRYy1Ufwov0khqOjkWLwThI7qiwZRghqQ1EakdTcwm1JEgR3GzQvinH+FDp9HPwq98Nd/R2x2VHj0d5R2h22M0lfwk0dgoUSyEkkNS8P9jbG0My+eAsHFZ/hDR/hyEpbBLXh0N4ZSnQhvpQ+p9RYc0cX4cByGhI0iNA5idTqsQkCWszGfVkFGElf7CWojURqM5mLAIwHGojqdCCguYjNLI1EBARqEpc8FBQCuFmJtcBIQ9RJ6ktWS1OQ8DDCmBMECGhARECEQIwQQi8L/wAJnXRaIkkbQknmbhuYc7CyLMSLckw1j1xU2BrXqToRsBPSjMWOtKxtY4jmhL7QjR/CNP8ACND8FnvEajMwlwMTWdlgyCnrMyJZJYZG9TJM7duAmCYuY6q7HsZBf9BpuKStmHsYRZISs8mwiGlY6+Pmh8npnTb+/g/MvNCOrlR59FzgtUdfFF4soVF5BfBdC0sxfwlj5nkhHXAgcWM88hinZhdFxNFzN1ZDCRLggQIISLF8PBYuzO0o8Gi/godmdkoXvb0ek1p7ajxfLozr6Z0tk58qG+35wV5saLx6kmZ/6Co8rz8H5kKix8qPPoucFqjrouUu4o6ORWxdN/AHZltHVSr5UyECEQsLqLgrUK7ii9wWOKPAo8Khj/nQuyqPHoZ29Hg+aPVaio7Wjq4eaG9muDvl/RafER3HcZPReiQHC/7J0KwpoJa3IFqG1jRKB9QqjInL8/B36T9yjzqL3BbR18L4Rc5o6BYst+B0Cti+bHKJQkm5DUhqR1MzfNY+EXCxUfwwUzhcOyo8Ci1cqh2wixXYUWcPy3s+2YvgnVw8ieNhekjPsrQ1B0JoZLHZIe0kug0OOc8iURN4clH1IQKENtxCSWS6JCltYLqtf8I6vw5CeobHJkxPUT1DaLkNyT1E9QzpFAM7F0yOK6qBxMRJKcEfpsDTZEXOByijK5OhE6EZgnQjZGwGjmhaGIm0Jk3kbGCXWRPInSidB9Saf4CNeA3gzLMWS45YUwxOBEgJZsRwoCXzVy+FXC1xR08UWioZmyN03BJJ7YlAWwl0ZHR4Z7hDCWTOU5DkJfUS1ktZuBkG1GaoHUlCqTLM2BkWQn1pD/RPqTpE6UNPKV15J0CdKHkZP02A3RX9g3pGwJB+rcW5EBBNLOyTOjry2SqTfRCgjAXBKOkrwB6IlOw+sRC+xObVPyNV1GjSnBAp/ZQzgTzR5H5odlCEhUN3KPLJvKRLqk5w7YT7DNQmpTc48vxJHswMWpSiQ3yLB4Cxsp9VF6Jol8C58/N0ioSJzdwIbkqsRmQ+gkTtI6mSjmcjmyI1gS0yNg2CBHYZEEC5xCwYsfLBik6aHqbksTxu+mdDs50exviyRo9F8JgkbyN/kZLJdRsvUBP1h008hIgkmmXgZZmJ0yl+iRneInkCYbeoS2+7CXqEJ/ovWXfNFvJUCeCk+VC94bBjx9gh5en84XOCxPGgkvjkwjzd8c0ZYiRH6BMgIYsdKLC2hXUWsUWC+Dc/m/kRqJanJkBKYkCCwsUTlodiyPF2cUXxWxZ5Ah4J5KFym3kofe+aPC80WZ7PUQ8PVarCMI/pH4Ytbq7RI9CHYP3l6hK61zjuCiYsmpGvhscB7i11WNTgKfMo7hgssGK3BiPMFi/eEJLIs3fC5wZ1CQmM84JlugsIZn5txIipbEhzYrfUWLsFjepq6oWD5CxeHIlDXUf5yoVGwsfA7KbsmRj2wrIjBl9A++o7UVqPLofpbUdlSt92dHqNqO1GaS6olygZyOwlhIPPoVsBccO/cvZJC85yI+sTupvG8bwp9hvi1DcEfU8KXrhKmJIwIYM/kyGjIaMhozpAtjOLOLPyhdMjmJ6ieomWkJweY4mVbqLcI6H3EayVyIkCOjG80cTgcTIsM0JaGwbAsxJnDRhmRqIeom4txzZzHjRsDSK8k12ixZ04LFZQmdvQ0WfdDd0hqQ1IaiiRDPob2Cyri/sNwl6m8J/eTdN03Rbg1ELqcxyYSFY8xDR/hHRnBmbQ7DizmIbiHwkdzkxJXVLk/DkI6M6M7M5je4Lp/RmR0GpLTgWYX5GRuaGTm6zem9IPZshO0BODSQ634xgjyFAhLI2jYICfpNYYy5Hf6IQv5shEIhDS5og0QQsITyYZYRBY9kWqhUVq5E0lmdDmIJMujwhhkZDuqLKV1DpFjZQsfzrBWo6aGmor9DXDxGbjLqToR9CNQxOh59Ry6iOrICD2RaZsC4eQqacG0bBC0I/mQiEQiP6GRkQjuxGBljcEVsv6BIgjDzfg5/1DzjpJia95DR/aMxK643oUm5H8eZ/0VZlTAjSX0yGWveTIQl1+xYqMwgh53y0C25Q0B+LoE2w6o9UirjsK4MAvUM3Um7hKCsF4B2cw3eUWJHhcHyUImq6DT1k2CGLgEohKlBYovfKOgWN2g3zlgstiWmKNRZktTk8OwKiEQQZY5JJJG6Q/64SSWMb8qPEwjDvqF/M7Sju/g7vArKj2dicJG9mlHfyB2zuIgZSvcldRpOifxnsbY2+EPSsmOFygTQm+twe+sFixRtNLQQ2ms1JqMnugjDWaWSEKrQlQlbFCZ8mEI2hnJ1G7oMCXZyczmrG5N0bgUoGoxGl9BP6FjFOx8sddHSLG3FKGn9+dYLkqLFDOvmjp5Fiy7nRfyosO2o7FfAXbHYqjx6O5fijuha4o9/ZYwdw8UZk7icbQI3LzCL+Jq7LO+z1tsbT1+Bk3LePwapLEKzyzc0OyZ2mMigE6josEkkMCUShkSSCGpK1E0Ss3U3jewSpCOpuERKEAgRwkioil5c4W8RGglXwcgQGgjhRFQJII4iEtDYJehLE6CTJnkRqIDcHRcW7BEWwvmtLVF3Khl/Ki2nuaL+VDsW6OwEkolD9kWEoZSH/AlEolCPyIakNSAy+4lEolD/qHX1YSSN+DwSStTcGzK38Ba2C3RriYlKh2IYZaid5GLGIR7Lr/ABgp0imlDGyrYMusi/B8m5Ibgtx0HwzJ6jk8CqEAtHA2jYEriEWwbWAqnmQIEBShDhchDMKpCZDOXsIRHl5jw3fQzoghCW5EkELAzNjVlkIVuQiCBAhECKBJEYO1LqouxnCv/FLC1ReuaGX4JJWoiLiWMPEbaDAnYckQa5M+uA3BLVj3ElxyZDVkCMxt44lfRhbeHFOQj6CJsENBFa0Ng28BGT6jA28D6kxhuwkxBT5l4Nk2xaAufSwtIjoQhpS4M/Eo8CjuP4HN94h3znh2TOyoy0TzaOzLPg7yzoNMiyMrmxf4EskJ7jqP0xd43CdsoATNRYIIQaokguILD+NJYu1JXUOh0/8AjbS0lG4Rwp6GwSXuEcszmQIiJCSxhcu0WfdL9zofjRb9M6HSuxVDZ+9qOwO1+KPY2o8MWLszsFFlQir1zY3Op6DJv/Rhc4O0o7r+KPMo7Is+HMiMKrwlUoaJR0CtLPCQ43ZFtsZJFIrWWKpyFFGQS/A1i6Su6HQbNEkdSJMuT81gsogbRCrdouCsqOwVIqL3Kh9xR5FTa+6F2VR4IsXdwduo7JUeFT2qjs8E4LJIkZ04NYWMUnsJ4QTyQ0ueiwTwpw8qi8WYSMv5EkkjGmiA0EHUhPIVCSUZmxNIlEoZZCZK1JQ2oFJPUyJJRIgQJGyXImRwN5CMPE6BGkJegtAljnB5D3EOc3gjoQi757Cz4RUbSxUdXFC6LCcROePl0X6fK/NCuoW8FDOzoXbVHjioiENTeN4QZEiROwE9RmnIbBFVYSgEZyEoQekHQzPSZg3A66S1ZPVnMcs7oLKc8fM5ESBAqwKJESGEhAgQIpeCJAVKEpEgSxuYuMCJAgQkiRICWIIEIsZYQQOl1UdWL/8ADdXNFgvhGyRK1HqG4RPFkhLQZhoH1PqfQT9yNRGojWJdYibgRyl0gAOln1fmgAQ+qhIEaV+qEtRAQEaxcgyNRAcxTe6IjCG8FhM3/wBGcxyZ9yAhyG0Q0ICj3OpCxt46FNTs00MZv4Do9/OQo5hXRmWw6UQXRNwPtyK4fmlCZZCVhK1LYXIa4SOUkMLpZR3GDSEyWshG9CIfnYTTFQ6KLCzF01d80XMbxZ87OqkmoN4icS6xI5kah7idMCJAjJxQuYsUd5R338UxUWclDto+deRUWaF2tHutabX3Qu0o7HStOkEMLrqMIT9CEQhu6IfyEwTrJsSrY3mNvcRY1HBzNwQb4ihNj4TuhJQJXpQnXCO5PQQrEiC9SV1HRRYLF/BNoVqbhwY7LLqK3zsTzEiNZLUYRBAhEHWlaodtFhao8ajuaO0LHFHlUOgeZeRUWfujroWPTOnzvzR10bHAVFv4P3FHZFlHeUWaISFUG1gQhFPKi5CeN4sohKhs0JolEBUCCBEZWzCbJI3CNRPUyRcEIgvC+d0hltDtoZ5PgVhZo8Gi+i7Vlrii+g7pRdFR5X5o9/ujzLzTc5eaH78iJJWpm+yIakNcKJljgziSCdlpgp2E7DO5CHLAt10Ejc5EaiNQjnN1wG4S1E6hD1JaslqJkzcoGc6AmaoeYMqgZjobzCQgQwEsbHQbJluL5FmNnj/wMuUMt+AMtfNHe4yNkNlHh8BPPgkS0NhDX9k8BuIHQ1HQZDLoS0JaDaLDM+42TiDYwHSG0bSNge0fCyLoEptggnlj8B5T2J6EtCegxlAUvUnDz6iHqIeo5MhExwNoRL7IhoQiEQWyMfDov5Cx7AsVF/OjsqEzFlF75ouVFwtovdFgVa0txtZbjaL5f//EACgQAQACAQIFBQADAQEAAAAAAAEAESEQMUFRYXGRIIGhsfDR4fHBMP/aAAgBAQABPxDQBnkwhRxnWJfYQwXtOpLttJqWsVBc8F/VoTh+qBIUxbpcGM2pVOEOKk65FrCLxpl0xpyjmtkHW+KUYXlnA1hwktr7J1I67K7XRcaGIRZ9s6WFqg2M6KdJ4jy3iBYrgxC7uiUSkZ819oECBKm0rb/k0oiTB+UJcCEPifb0C4v2cIMuWz8zlLg6/r6+iv4d5eqT9jl6Pmo/BLiy4lfV9w9Gz3fvSpUdEFQlTafCQ1+NB4vQ/dWENH1Ftr0fTCLKgwzbjA1wY9HzWrFUrbK1/F56XpRpwgheTLzbSElrhKzEr4IByJRFwcxgaAM3Jn6Kk1FixY8u7R1IbRl6E/tE6A4MNovYMZasNXvMm6GrPv8AV0vR2Yr7UIaUdf8A4YYaGl6+Q+iYjp8hFMaDHd26Lly8M+H0vT9DlNkZcGYv759GXS+yG3o+WfUuGlkzfB3qPxGjGfNena7v36CJ29DRnwiGlw4e0OPbVm+6sGNX0pvVpXLiza7Qlwubk2krX50WhKmMxtrs/jM2mvCGkfq/W/nhq8p8h0NN93htoTcn3vpQhMVL4R9xNnclxdJhpVESglnMFgiwK5hBNxZtHe4C4XBVcYTpRaevWdfSI7qA6kfgNDR2+jwmF/Czwwl6b3kfkZthtDT8jl6KF5Jm1qRoH7vLi6ruxLlQlH8mIEqJCCn0L93nDVZ836eheZPhHqwaXNj30uXGV2pkehwXSCSkpMiOgSkpKQmA89Ss2YbObysTOrHOpW3nXnVnVmV4VOpKGgCQJQlZSWrrZlM7WdzQNdTlg+aW5pfmlZp3IZC/P4loX/oiVLx1L1GHJ1YajE3u76Aza3NrMfe0GYJRfJjvaIBIXlEwmG3mdxoTNLZRpdcE3pR9tTJsLMOooqH3OJFlTrAKHKG3iiPrlZsCpWM4tF2x+4ENLqPLz0kmZc/R1hLlwQNkvWpm/CDL0FjzUXiJcvRZL3L5IugY4R+GWSkUlb/2xlJXnK1LIs96A5ykpFYsCP8AMBpVOM60I6qfU6pOcJdsIqhyuoTJwmarl8o7DM9ncS1f8IJ/inWaVVwg1ruWGwbIa8JXDUw7xh2RPEYvRE4udi05ZeMsb8UCcWJ5sIepnJ6PRhwyU5OM6Mo4R5KASEQbToEOSjyiAoVwlHhCHQICnEpSYlEpKD1sBRKlETTglafaStRIEqb34zDQ9G5g1WIvmly4Mo7sBLlxFQATqyyIIFJzHuNoxcMXXEBboRI8hCF3Sw1Wcx7mRRNpTBJOxDcuMIpokMWp2R60OS+IJwfE4BwimZtLy6mDSy93mp1E6rXp0AvKX/rL5XmdrzNjB/NNmAhzkeyYbx3Co6pOvoLMRuudjCdL4nReIf4punb9hOu8Tcz8TrZRxsUBG8uhcgOW8rNPhjNW7t5lOaHUxGZwj4InnFYV5+Usmf5GCnHzO9OlAIxNsR0k6GdNCGowoBxcCVAJUZ1SdLlEfTnXeCGCDr8Y1qFpm3L0IsPOB6HchruQ4IGjDv6TZrsm1A1390GPRnMOuPazZoFabf2zqeii3IwTJLigmyi5CgOcSLhekWblwHL9njBDQSehFl9UzlU4oo3WPmCWIyFTDSRdQF3dECIGVusDFNxOiTpEAatoCtpRymOUovaG70Ba7RX2zVjruj4hK0YrOmF67GmDq/cfm9UBChKXVMu00Zcf5OJD0BgN7nqxSmPeDo67b6dL1WLkvo9AsfjDQ6rw+j8rPgGqx4+rStRpppt7Uo4pVbizKVHzZXQE8qCtdztPgEI6CDZquuEZuTL0OB0htrudptx1fkYsaGlX0bb7NQYM2fpmXF9O+3M0bkud2DZuukJDhDD920QwpVkrgjJTvt04MxUk5A3ip7UHXZF46Lgzb3ENtVisupqM+LMw9PQka7dvoGXZivs63PnftB0WMb7vU6OnMxDzoeh1r6ELUuvvsN3D5yfrcvR8C+oa7iDSwUF90AWhUpfInE0+B+Rl40IQ11/+D0LL94Q1Z8WTX5ObHY9G96/uGrMPc0WUWrh+GAIGa+lhAbQvvpYvAVMitFETYut3YczDPKUZBEKnEnwPR8iLEGXqC67kVENGYX6Qly5sZidLlzPoMQGmIpA95pemROiYoCXLJgflmEfS0D1NCpOku57eIKMjd5y/60shebKtALc18Z8aUwbYpt7ibNV0IdVi9SDZpceZF6N8VjvsGvfHaI3Df3vQ7M+796tUBiIVOB6QZcdNjro1UbSU0c2YhC0Wt5YkH83FopDVxaRYyOy00VWpy9PTX0/rUKDVTsmpvtSEI6N/Dgejd/eEPR8Ob1/E5T4x6D+HPW9MItCI20QzzecJkzQMykSFm5N1ZXwzUoxaKeC3/Y/dgyzIAQgcvASsiJawTjETNW94I2Mu8UvyYc7G2VuzrJ1M6yO3EoQ8PT+ZAdq4S+AQYXykecIRFcFQ5pOxBxi7hQYToIFuY8rMepnMvNs6PxOhlJ1EpGnvBHiF/wDGGkcvuh67bHB4NlOerzOjBG2Re74kqLgsOxM/bOOh3XkZsd4baXHafCS9fsmzQyxKpwEdGIrdy3oz7bH40NB8BgBHYhL0XENU5Ka2SXcKOBwE4Z4RaDGL8+UpLJcSveLesMPtKDLGFEv2yslSBYpgUlclnsPBojnE84jK2o+5DnQ50edOpK3c4z3hnvvedBOild8DQAGs6edBOlgFXGd+xBNEShOdR8MJHV8TpeDOo8RC8yPjRRNPCNRlKisK5zb/AO4vD84JcnzDYxd4DIOb85jhz/BKysYcWRzg62nchC2ZXTiGVqSiX54qnyQ5vAhEaKIBwJTKCUbCArAJRKSkBVaMI+ZCXLI8osehfGCS5mbkdiEWXH5I8TEWXMJhgxZcOybDU3mz8s6ho6C5eAIL7VxCvo1ZN1NrsKgpV1IewzGYCiE28tPKoCuKEFIQZnRTqkeEw080ifGUZlhZEIDMKxleAxR1mOAajwKswR/aijTuvnXwgvklZDVGZfD85fK8zsHvCML2Kpw0ZG0ZSIGgLWJFdvCyz+GCNJgIWFxxYJkIdpmf+Y8GvWpzvhAIxLPvFtme0D4vBLP4CDVKW+0Qw+cW7wP98Afyxitw3ed5j/6wtt8kNo+U7vmPdO3OW1v5YF/aHLhTrevwsGymK7mHIwyruMY4x7zFSJ/lTo/Ew8yflhXsnTTooBwIT2/1gORKORooP2+4UZjRqPsPnuXoxdCTwTADW48XX96LhC4mHZiaxLFsrLm/tzhFzBlwvwQ0XoI7u0+JAlaOa8QYxI33IMvRvpDY9CEIsWU24RhN3dLR0NUI7RoOybEqcdNqfq4eh1GLcMyT1EFzzhqyvNCgAXdLKthJdNbR4uOnnQQHgQoWcCAEqUHKU6koi0qbjKFTkLZAAGsm5ENfLS9FXWWDqx/JrUBZA1dguGCqGtz4k3HT87lFfZeh11fjSXGXGK/dPDokGfI35Ql6LiKvw3lzNwZnOEXW3sK8NWbL8yaEHQ0R3+G5WucrLsaOnyX2QZUrR2OkJUSPM9sSGn0YOjNjKYuUHX57qOmPdgy5ccbJcXTd7EAhEmCgwhpU+TNmlQNOYaHDshwjHeXFl+Mw9DpuT47Ul0YvXfjsvSXr8KLoM+Az470Ouww12MuF3+9SZpyk0dH5forzsn3qkIynj/3dbgvvY7XP6PQf0cpcvMuXNsc/s0XT9nRg4g6LiKNcsTQ30X8agaYny+p6B8f3DQNPkX3DW+L8EfjIaJB+vOVoza58HQIkL83xNkYGm67Ql6HLtF4JcGMVd5hpWlHuzEUlz7iPEuWRJFL9iDKSkCoATrTraRb/ABgDeV5zrE6k3xxjKniTrkosm5K+8eSnTQ58d3/Fw0PRvx+H0KpVrux+LS5cunqHSWP0l6/YhrsmFeX2aMGbu1CGv6uh6E28iDowgUnMfD6MuxCATOb0DL0Pp0S5WmKOX3oOu55D6dV6fncj0fs8kIamu+/j0Cw0K0WBmv8A2ZcuXHSfqpT2kGWSyYyuLJdaFKjplCHITrR73Q5kYchlOTCraWcjS7qCOzHCMjBL4B5h0E9kD2sLUDmIc0lPiRkxDjmCCDrYR25Sw5bmg+eNuOV40epKwAcWUuMDJO5FOcB5wiSjtDlQCOhHorik6MOSnQQww3JXMTo50MOQmDPxcNK0HTcjxaGjPQ7+urRkaE345bghNmnvFq+GY0LEW7EnxKMpERFSnsgGU5wgKXKAVvASnOIgU3wfUqcYCUm4OOEhOpOtDmQRtvX5nVJ1SW8EaXJDXAxNq/JP9af7EtYib3licwzl6APsyuZ3vLcS3XxOS+DBufhgOA7XblAGPgiP64CX8ceTxzd9be2CV/w6QU3PNA53eYcPzOu8k/NhxCe8IwM806HzD+2l8XkgdYCMGdD6sc7wQpPwWdB4gbkeJ+ZBZUtZKjLbTDQsihzG8AN47nmY4Nwiw1OhDlkRNkJIKbTEviU2nAB2F5y72JcNNrNqEWLPJMsgwY6IOv3E26s+o9G9Dh6bslaM+ehok+Im3StNnc9VzJQlF2YhoguzMrTDpYrky/NHMvDEtGjClvHOT8otLWag8pMuB5lQCN42Gq2KWIoBcwVUptJ4y8bbNpXo24IqLbflhMKetsmDMXspWcvcRTDE+NckFD7If2sDm/ND/UxwPBKnS8mdJ8zpvmXoOKLQWhGQK8Z0ptBsw3aRmBbGdDEKnjudY/1k6LxK+CCwBn9oBWxOgSjlKIMH7uUaVC4/6LhtCtaex+ulaXunD6sNtAlRY/3EH0QrI6MX6+LL1sV74PE+MStdp/MzML0qhjz9I6oBwZFkLW3YYDy8IODWlQCM0PBDXHsM+BL1PywQJWmXeStfuJt14T6D0fC9K+VDb0bu9qz4ObYQNFhdcGXp7aVNsCHBunRSrgSjlKSCJoOU29TSBq8Yjur8sOwjyiTZSq1cKdYA9HMwtAZcdwSwT2RNr25OMwlA3WEl6Omw2l1ouPzf36PmIr7b0XA5kjF1X4eLQdHX47oOPRajkPoX5uCL0YfoxlwdMPy4Q0DS1XT/AL9HOxs9AlXH/u+h1+jEx7RpUqbZ+Z9DaVx8tUuAYVRO7ER8UJoyoXbvDMNhC+dHot7yHxno+xBCMZ8/CcZcz9ibXo+sgStNybEfQ1j0bu5B1zO3BiGqtd0PVsmXd6Xo67LVm2bXu+h0nWBj0H11XeYcNIisUwKC8IlX6cwqvRT3vpKIKe2BiQFPg4JcsvFYSWu5EWGhoNdb7mXpc+WmaSqNQrpZZYxm2xxXKABZ325j0Ew5L7EUIRvJTDIbg6YdoeRn+kgVAbiUWy2zjVYuT+Qy5ejoZr+PKVoaZdH6foK+88JqGGiE0YMV8U2HoP282cNSoG79UOLoSpUYMc5YMJXqRY9CQnGSG0QS/uGtky7qPwGtk+/CpVOpE84LKbp1p1yHKTC3xJwJKOCdNOpM15wMlvGPWgo4YIbpW/8AhM/4JbmjsqUN2pB1EsKW8ZA3FOumD1QXHOonUS8g0LvbD1bI6fRNuvJDbXIZ8a9GMg6JEmykPcHxZUTZ3UmXohUnquQVNvp90NvRQ65oQdy47n7Ax24bCERcHoUOtH3pemx7QIncMuULf8hZ443H8mNgBCByLTOYDUwG6HGMGXFxCLHNsNkuYh/Kw81SoS1QfHamleMWq5ui9yoXNCB0NT3BZYey6DdXkBMXtcvA5hDH0ojVwb2QDkYNWMd4gly46TpB0slI8vS+5Yy5cIZdvoj8UslOcRAW/i2dSU8E6aC1vFKrJtOrOmnVlgDZh8zrviUvZ8To8Ev/AFQCUsYnXae9rRnDkPMr+xKpFc0IMPidP4j/AIpj3wlycMx8zEZwP55Zu+UOOePGHJYvuPl0GDEbQ4sH4J0sOThzZvEmydFAuBHkEAq7SkpylHKVFKwlaMZm2rN3cyjVh30mzVCLHuwZel6rhmPe0HTYPWDKSyKiMgslOcRzm4vBA1vKysAgOqkaVqJ0tF71e4xGBkvKOL4QuYlHecwTpocpCx8rcx3WPKxdthHzVRqF5a6zK4TiFn3JTl7ypud2Ko0ubdYcnwY/4GGSvIlmPnSlAIuxPxIuNophgE5RBYAw9eUPBuVfgoqo2Ig9Y7EyRqBNtMZTOdHjF6c7WAd56pcHjG1namO/vOgjnSbEjmgy57YMMewDgEz87MGAY6pAgGDouEBu323D/cn+Mw4/jgkpbFXTEbihGWHU+EaTOggh/DCXxvqlv7IFssdfMD/fHiQYa+VLZVTcsFwOxxZ03yzPc57nB1w3lZzDAtobfC6SmQMoVYGQnRJ0CVyRSvd+fQzNJiLoq6tPhij4QS9wu9MWPzn1o6fOR32jVirssNo6M3/hnQ02+ybSVqfGQhGfCZsejD3IMapDV93p2w1do7977hBl6MdGNjoCVxEdSGmRBAnLw+05/wAYqbpRzqXZOMqv8sAW1pJjW+U6/lKv7T8FG88C2IrQYHFDZZYmcQL4FZUcMJm/5Q5Wf4koxCb+CY8HxOkTaJulV8z9RYpJ2RtLtcoDMrD5HGViVKjBt5fYwly467wm5ouMNu5O5mJQ0ULNMulT4RNQEg9A9FaIU/7Ag1IC+QPdNs4Fbexix1Y4wtXryiyi/c/QQNL0/F5MIRiBng4GpNn+L9B03L6Jsdow0vB0PzL1f5uEV9l6FQ7/ALl6MY5krS5eS+0DEZN/AIVKgr70N9t9ej5ifG9HwINWfchoTa7Jt9BAlRm9NpqujNoaLOPuy9d3fqI7Q0YaErUmIV3oznINAjFjl6nm4x2S5ejiqkJxWLKqgmD31wGLRI8GIFJLvUFANl/LQaDHv+5Rs0rntioORW4DAzNjHuXD4GUez13wyvLWGJMTtS9h3ITKmhZ+TzhHR5OS/NQZcvS/sfr6N5ybwYZ0rQH5cJlmysDCeIlaq5KEq0XG4YWDEPT/AEusIaCx5/VoDW1/Q+YIaZc7/lDi6ej8XVnCGl/d/UV9lpejx9f36EmSdPR5v/DNhoiBH2igNPNP1rcb7mbWly58Rh6Nn5Z9HwEZXo4oS5cWU2aWSkcBxLlkWL7lJZKR3AiiWSyIpjv1jKh9DUgym1DR9PFw26sx3k8rK73IWhntMYefAWh0+AxYyuBuMWWDGQdkFBHh0Uq4ukLb8ohOUMwoMexUyEj8GpDm6/kiBSWRDJrIbMEWjtxIIChJwOWpcVJy+hBs9GAf6ovXecgfDovX5396W6Mzk8S9EmH7cxcNPwuU2muIV6OPwOUfhehPP/rTbTH9mJ8bqsZ+Tcg6srh5aWSyM3+P6dGsYJ0t1CdYjyHmKMdyU46xOrOUzO04GFH/AAlOHglv65cbp1oTGYFi3ebuUAbcnGUf5T8GdF5hxB5gbogdErniuYlhaSjiHk502rZIv0J+5OepU3bx5+dZOtgHLKG6G9G8HFtysLgwntoRZuPOOGhDbnxNFm5PgR0uGx6R23SMI7RROzQksIYzmOhZQDfErk3LiXcJlmfZmTbQexhFQDhbEBJTOPstfuR83sZ/QLGYFyfsy5cubjl/wwlyjNHnHWuccwxZb4Xs2QEs0uMyPH7E2g6kH1PuKaqRglkBLIR+LMAlkRCLfwQjJwJdx09YgT92Y6pOUfMo38kdR/ggSpsRLczo4LwSjmOFyWcBXwxOrXwwbb5IGFkjaVHwThGn8cGn/KDRaze/56E8LzE6ryRgNC95i2rZoi/707PJjTttfnVXDD9EeBBq2ntMDfxganVYwT/AJfBccKtlh/cREBz5Qch8zoTau0F+2dDP8yIYGzKhidCUcoy2Da/2eglyiKc2GuPYTZqwPAejem0lQ1mRqzb6PkMMGux/8AxaHUZRxnUnUihm/uER4w5OHAEzM8JboThyygZk0miymIP50C7eOOL9cJnZ9MtWPDpl8GrchZWQL8MQTFHUeYcSBqDllymnWEJWcK8GWZR7xX/PCJq/ublcnm6Go0F0OCH9Cyrb1gh/xj/Qs3NXydJztCa+I9NvKSCQHUELJUeF8ELOTlSdX4TnPwghzLmjmhF+H7RT/GQ48sOstcFD8s/ViP7Yf3cVuvGS+rFN3zQP+TM38mUSsYbeUfG1hLtywFEMeWgVJVnyz/MgWwe0/wAqMYBTHiMajYjyidCUcpfsD5WBDSp38W9vS/Q1++elafgcoaP8V6O4m+GDq7RV2WjczHXXX6godiqRUhiL5OpFUsEXm6K/12hrbBzTa9G16oHo2e796VCG+zmz0HoNzWabBNmrs+kwmanKfE0HVhoIJe8tNp0ZdwQmAiThLtx4nQeI8olClG0pOhEIC/aG36aBKiWGNxvL20NIzPCy9TfNxlCHfOrqVSxaIqL58QeSb7rF9MdOnS/IhAdjJN5elf2bwntlXsQBc3kBs9Cpy3K5VuMtVBKUhB2TmmTsy0dGzE7RWIaXPJ+9L1th3/4xe99Xod3b9o6/h8p+hyl6235U9BBb+CIey0uERfn/ANEIOj8rlPjI6pk9P3DXmv8ACfEfWjp+xyQNKiYmb5jVgv8ANiG0aIcCjtFqI8hiT5f0fG9Ez9vWGriCu86hNnb9I9FuTaa3oDVMM2EdVM213uzMA6f+NHXemYe+jKhLr4MNd6Z6Qx+Bjt14s4S5TbsZuJ6otXtpn2CVVtqaul6IKCo3NydjBPgu4gxgAjuMq4vFw44kKOZ8LuQkJITD99kHEIOIU9zDASXHj1RmAcLvvS5csQBJgSo1LQUNhAiu+bDrg636+hs/1U/M5eh2fmNTMj/VT8vlqMdvf6BU+f0R32H1E1fo+NRDS5h5I38W2jo7NSp+Ryn63LR0+c+4aM2PaGu21SfOfqG0JC+pSg0D0V12ZtS9GfO/cJcuO0eLL0WRfBAlkpK85SzAxPOPMg2zBjrTkMrDQyvjOknVjW5hQLKuCHJR5SG1MDWYnxgnFj6nhL3dNR0rV+SENNjOB1fuOv2YOuxmz3dfkI1d5kIzFU09kYYA0+3A3FP265nQnzFiZ0SFBPA87i0KFfLTKLKnWL8RAIBGLwq7X/yO3s98TG2HCnwxMgl2XHGRbLAyOnjvYOEGD3fvdDQ2PP6ovwcIgr2MxXZXuMtCv9FmZvHwYGos+Yy2Xf8A56s8Z/CGiQ+VMA5fR6BTXu/gaVKjr9WJknP6Iags64rU2RxcFWcuqkXDr9WCEslxfm4TGNZouK3ebfZOpOkjziX8EEoXW0yVS508s2glOS+p0HwynA8IJ/gl5WITH+kTPu8k/RiIaCc4q7E7fKdMVzwAZL+txTY+I8UeIFweJgb+EWghLeFKJXZGDLeD/Ihbv5R5vlHqwukT4Q5U6csIcGJ0SdEhyiABU6adFOmShtCVsR5BOkTpEBIh0CVyEPhZ8E1Jj0DP1hrsmzuehV34aYilRFHk9XTdcVu8INiWc5cGHJd7fBO5W/KWSyIz5DQojAncONRik7Vf0lOcsqVzibDCR3gq3cQTirVo4lbsQV3kBA0wo+GI5keGf6nSeZVuXvP9aEdMqGvAlhfSJ7n3ScvzzMP63FTFhtTFNVDAwnb7pD77M3BNgxp2QrMXcVExa+GHM8kuwfJKAoBYV5SFR92U4eVKX/3REptcpvcVtNO/1Sf6RKuvwrOZMe/wnYeyHLRbaNnjADCCq3pPwWG3HkzftWCjQfgElQf6SZOBD8LdwgDSq8CHNeCf5ROdKgsy8+8tGnj92VgeLc94fiKHd4kw19kp4eTKs0+ZRrGz8wmBfwTpZRdDxCWQVFsOUSnKUSvu/SFuxNQw5ueKykcgpp8xDRipxYly4tRNZNXSDoT682+j/hLiwnedI8PRezpq7zhG0Gt+jk2/V69Wjq3UnUTrI8BRY4JVgcZfB5Jnv5IHEEZkBuYMOrSf6aGaTbMEO0/IiyuDaqO3MCTkLxP8olv8BDmIuVZGE23V7xt/LAICZ0GZurfMfEilQh196rfjc7/lhVdBn7LD/VAm/sxhNjfBAEaKurRelfcA/wAMUpJwJIMNNnskX/jIB/GSvbwxraJKEg46QbRR/EQ5KFtFfxS0RCPSZNcGK9AW5X0wyrxQtHY6P3DGqrLwvpg6XHZiF/qvQ/e+yDX56IX5/RoOn6fJ6Pko+J/l6F3P5ak+d+or/RjS9Fj6vppUqJh7TNuY9A87GIx1QCcmUGFEdxV3ejcGyYvkr7h02ZtjeHR9zZHc0WmWpoaCztw2PR/z0rVqV6NntA0xHZm1pUTTBExC58CbPpTVYK5wlRjPm+j6UNVlyC9AE6oKoy3cMlx21hEUL5sZEaIgcErS1fRDubkMIb7Mxk3LRhsFFGEWz3rTIvB+BYa7fn9UUzQR6JE+xZVccFdVQsWtmbXovfxAOkSefDS9cJrYrnVysSiDGXoAiVK+PNMuo/LIly5Th6PElansVuUpF2JZQaENFXsvj0KhojgT0Xu/d+hgPaCheH0xhLnBxDbQg8qfncoaM+R9DD92J+py9HyP0hKgTY9mPSOGn34xQg3sogaukFQeTCokCpa1c/tNhqY7u2GrC8WozIpyzYasVjyr0PwTa1ZsaXETYzY9KHVV258LQ9V6Vzi1Z8s9GfYehIvIa1dWiCNzfqZCYQVjjt61Ax3u/wAQ3GYEOXk49Mwm5cal+4XdQ6wHBxTYxm11/wC4ajyo1aBlfTgulX1Cbx+e8t0czp0C10Lv7ksA82hLKKvN6asOLZupv+M+FtIVo66v24alXOByPw4OQnyDBV4djt9yC7RL+yvnDU3nx379H4vOCGju7RWv6qOu2/FIa/AgoeX0a1MO79D5j6lMH4NagydZ8IauzPjNWLyv1MoJ0QHYmNH7jLJZLI/i+4ipcRHnSjMbftlXEn+tP9aN7CGX8onskwwLxmGluEorDKmqXtKf0y7t4ol1tSXro15QwS8BvuTF/KfmxIx+LMuD5l8jzHlEIMFNu1pfCQRa1lypJwM1zSMtSsylNXR0ZgptNWYdsi6/fBxLgxY6Lqaqq3uIqDusO+yQUq6jQgheZoqFLAdWZ9UB7eHBdDY4FnDTuBpxoM34shDRyMVdhCHSw/T8vRF4AvvMcVW3CwAER2Z+hzQwN5CpTZ4CQKhrHSOXBfXTJuX2RDbVZteR/KLKGCjuNMbjaFs2yyCVL0CYiHufZpZFgOgHzT/zS5SKVEBuKJMSk6kR0IeUhynmVqPmnHxHWJXI5wyQNRm5jDl4bAMImUAWnmSoMvhgux4M6HgykF9uKOW4Pql/6oKpX1SfqP5lxHVxFOceG/JOR8UG3J5RV/JNlK1iV2veVz+DObHafjWJUW+KeyKLJbyexDjplo3M4pKrh/plCB0t3OPWUzL5izaPlnQfLGBtlNkOVn+RA9vFG5hBh0iAOEpAV24CtWYez6FXahKNeE2fQMM2vQ2rpAlabM5Ppl+iiyBRKRSUhYzFZXnGM/MUYE6adJ5nQeYHNuYjxn+pK7czZQtmzEAJgus5EjbQHCiKz0hggzj5IJwfEJA2eUUewTBKHH7RnEJ/glvzUKrLGqxOmIJwO9aXYTGYhnic48Dyx1Mgf2REFRZRY3anN+c/EQDRV3uJOqw2reUR0Aotq83FByeEFGbe7+IKF+ZnCoJ9w1Xn7zJinswOLxMP6JmybdxebmVXvL+dHFuRXKK/jYGEaZjnu4CyNIk4gMu/iQHdPYl5oAwujJ/uktWfPKxXpkeLlGH/AKZv/ZmGvsmwI+WJwuzQV8MA2BB8QXwkNzNzqP8AQEC28Ua8HiO6yqPiVyEomJUD92eh+Jit+f0ehuWsrsPQuGItxLosWYPn/wAxJiHpSt9YjhoMdxDXf/eEWNDT64NXd2nx460Jm3oy6CaGs2NbxFj2hoTcm3Wp8CG2joNpoaVHRlFQafZH+yn+jOc+adRVc5zF5ZzflDYQJ1FspsRTcyv+Cf5ECJRHRTpfEIYGyww1wwlk4TBsR9UhAuODK8o0uX1wHFma0yGPDXaqEjoSSKYZxLoNjXElQUnLVXo8zkHhQLCkeobxJvKOzddHS+j5Eg49D4BreIUC9yOzrM2znRUGKouUAHRjod8DyxY9GKf25ggZKG1XEMRvrRSF7mZIAXbEUPa+mYaJYxfzLI1GTVbXqMElX8GfobRCehjwPQbTz/5aVpwe0wrf8perrq/A+h8ZlcO2Dx6N7+qejbGJctRJ1ID4hKxBZpFxG1Nu8jcYT9/X0Oj+8zYaGg8MGu92it+Y0uDKaI1b7h9Q9C2Ho2yDXcmI0NNntDaXpivSZiGtmjocp8GJBjFoHMdElMN9hivsNaih3UHR2fCv3AoOibbkv3Gopo4Sx1I0Vdo6FulAVx5gjpbd9DjomThalzG8qZQN5IGNEJ2cJpe7q+0NvRsOQRmUj/VlL9jJLa9A3ctUaNp5UPBgE2UKIE6jfDJ8fSZswSsqxFxZPfHFwZcoU8696QXWwKwNNkb9Y8xG+MdCjs0djYNS81swGtRrbgwsIMT+bfDaGhGrdH79Hwb6hq7TA+Wsxfs4+h8tMzXQ3zo9Cx/qno3u0H4+HodBzfrFsB0l9G5zDyaM/P19Bv8ATmbPRf2PpCXLj8TDQchqTd2Zs0uDF5oNS5SAIxiS5eiwvSAgJWDTGG+kHnDnQ/ahVvHlp0UdA4f+G/FcHX7+laDKE9nW4q63/EWNBZdCcHaLL9ZmWCMOUZHvCF1I8hidVnVit/APCjY4sOLgDvMefSa6KuxPIzZDVFk4fPmEVf6QNGDck8GDoac3/nlEYE6psnHeGNPzuWZ602dk7MUui6l8mIQRhG19+lsk1CMOzuTKmaLChvdy4po1IDINppAwgvIFVfZAAk0vh5pbNTeUrNhHhS9aex9SG0rSrjFzl1Se6/7ENFmSOjEfl2ly5cR1D6kuXLIVs8GbqNk6xOhn+lEANK3uQ/spZg88t/mi3DNzOdhzYm0rfdKS93JMeF5U6RnCDA+mcB45/lk/YRi9GJ+CTPsjPgQlcRTm4TIp7U8yue3vKOS7Sxcb4xxlPA8T9yPL+If5IjNGP8MhLq40zbaCYSb/APFlf70r/ZGoZne8yze/LOk+WJDEWSPJi5VYHBSECmTOmhwTAUA1Nr/w3o8e7DXddZw0WbW4797R0Kx4LDaVEsrghs7ThctK4JHfDVflPFm4MsmAfytx6y73AedRtxlxBe2XzSCaXGMB/LEGoidV7HDQxzGF8DQup5lvioJKm7P9aVay7PAYw/7QoRHrNxFmFHvDuTH1m62+YXAUDkJQiR/3nK8SDmPNDtSVOgLhcFIbS/swb+jMbl8MFsKmnEvmjiWjuYu1DaewSA9RjiAF8m+UpCm7EGar64hyKZ/45hqerzU6zwhi/wCUOH5RnaAYlw4hQXZ3fxHYV1zTPh5sP1cCVYQvef5j/Mu/mR4YxlO+lrbMNTQgo/glolx50g7g9AMVQJiquUW3Lsn8S3HykobvFsIib9SWn/ZFW1806PkmBlb4ln+dA9vDDY+CHIAqDloHsPE6JKDhDejqNPoTZouIZjE+VfUNCfJR32Gly58r9TZL1z9AVJmwjiDnTsQQ0WUeOrG7UNiLAiMnKbD/AMFSilLs8CLJH+jlv8EQ4FHeJ7JP9Qgp/wBCLP5RAxfLxnRwL3gOj5hsgMGbcL9Wc09lwVKdtd4Gl0RzgqeYxHg+8M53gYf1rHimbNHUJTgo8Iqwhyk+w+EK8/GVe5XCEbf+EL8PqBDjv4i1QDH7wf8AZN+YAfzoAz7MVKlmuSRf+XA2lm9WWH8wQCNqtSsSV9xOl5If3idx7sW6EqwWZimEEeYw0DFQPFZ/gI2iS0p/8IFsPsh/TkEpPcRxCprs3OkznZsB73AWh2NlWJxZgClIVg2f4w0SVL1cvoGNIMQLVIB3WFZFHzqc26vnN3I0haLbOHaCSDicR5PoW5+3oS55OBq3HaghozL+3Qum17R1+fEVhGV/ds9Gx7T8Ll6Fh6/1ATJYBuDOb37WrNf0ub0bZNpGO0ygznP6eh1309rT0bLqw2hr8vUHXdmyLq7O0GDGfAm3q7S8TaMuOG12hrZL0GPDMx1VNy6YVoxis7+hMTZn/tAIQnkUME93M2/R9RoLhoZMvggJnXBT3WGgQYxjKuXyQRaBAMqKAjJewNtdENHT8voQ1SznYoQ4eLGNDc5TTzNrjF5EBLSVdwtUHQCMN/uxNhrUGOUJtaliVRaXlxQEppm0TmNk8HoXFR8xfCSsgliWblwGSkCKB80PTd3JsWxaoDG54JgxewmAY8QdKgwdX0iJq3ATEblHhi2qD3ZjRBHyPiUuXB+4EDciE8PUTZTlpcV9t+cNf3+eGhp9V4RqzDq/8tFhHXYmA/qowdD5+g0PiZiH6r0P3/8AlBW5/JGW7lPprgv1nW5t7MNo6uG5n1DX5aCh6PR81hA0ub+96LX7k2xlQJsdoa70wEWXp8KGu9Hh/wCCsnB5arlfY6MaMwZhr+1zhpa3RBc2JMRi/YsdLflB84KdWit9i3lWlhCmJMOp/wAwFFA84oRNw5uILA6eDbxDaMNA7F3JwJ/0wtFOTuQwzLuxyyimMoPP6o7PMMvVUSVzuQwVVqdcnTBvz2BECBMmgR8/pmXaIQhPK++BjS1gL8sIGcPqjs8n6oYlodYFMzZ99BqjUQ9v8nRFQxorcCCjAQlImE2rhUxHEg7NncKmL5iNXJjRL0A8L0HLwLfP0cZtuSPC1uZv0/qXrn2mPBy+mWasvyYS9fiMsG/g9D/Tyllai05qbSw1xf6zosuZvY+oqCL1lVuwSLxPqWSkpEe+m8OCdNOmnTeZuPnKdzP9CdDOVBHLi0JXI/F8MVQt9pS28Gf4rP8ASQhlNhR/q5/l6e9VDeFOqQ5JOsld/wBQ/wBk/Jh/qIkrJ7w0P/Fu74mrq/JIauSXFyTWpudz7g6Glsp5JhFTQjNktNzBYLDD+BcEy1MPNYlCMXNKaTiv3M5CyVwS5bMV0sWtBS/VSx8w+YaXBcs/OKvl7QVYrnD/ABpFl+qitc38mg6CgosqZwOO8MSFPaiXq4IvW9WgUD9ksY7n6ly5cXvNAhcIb2XBIdWWoGDLuzPtHwy5cshCkuV05AcchgfkHDA0OCRQatu+Hc3CMrMmipeZvwZ9CFCsxhb8hdlZSPoAn3cMZSJb+af705ae8C2Cjy8lH+uRAtlZtC015XxEOL4Z1Hyg/wDZEoOB4MriLHYWCL9oc2yCWvdqYzyroJH/ABY/3JBTYeVk4A4com3Lhm5yYP0/4hxPPGugqkON1K4H5SuLws5njYp/BLJTfAvjp6v9U6nwQbdN0lkMcv8A3Qyu/pAf7Jvd3OMt/snTfLDFydWBx8HjK8eCKbtpQW3ghwBxlpk+J0PidFDlEsYcUpKNMY2yjSpSsNKmDdI8PRWnaG2u5NpD1Y0VB20WQSEVsEoyyCRSBuEHMnUnWIPMRIPzTkHzMOTGkC1tPmAScaGnIe8VTm42R55jVjFixTvCXgoQUsKQXZIx12Lk7DOt5Ju1admWcPPCKbbcUzF6JroiP8+Uahsmz3hw1bSqzhikKuqRBqzrRBOD4i2Fo41CAWAhByj/AEyNuEOyH8OMESgF8LLi8MDhr3ZKM3RWh29lZT/xQqbivcWJ+mZmX5TLAC+xP8Vh/Yf5gdxDNhtQNyFdXvnSFuW9KRTbsAgTavSiWlfmkZurgGGNOg7o5idd0oy0Gric2pVBOKwhX1iSkTfKFmkK3TNf2TIDYTsMVKV5Ztlfd0ImGmr5puTxT/Hn+XAti9pe4P7M/wAyV8EocCDY5r0ODFZsWXW4cn4slaul5KUXNn6vR4X2kNHTa7v36D+fKGhor7D69Hzk2v8Axh9j0D5E2w1+khrvTa9FK9vRkpt9Lo6VRRhtFv8ANP3YDjJdL78AGfMQCm/NHdfJAuHkZaFgDDk4clK5PITEfY3ch/REDt4JUjJyjnJDdFsWhjiAHtCL8gLVyItNkgqbZNoBwcE6BKJSJXUf2QgQslGIaLxUBJx+vSpU2nP7NFacJ4APEvVgPP7vQNhzIrRs0+Iw30Wg5t8DS9Lte/8AxmXof68tKn1yQaLTRVkEFK+c6AqEJUVZvKZPebXl9QxhLnz8j0fh88TV+P6S5enB7RakT8Dk9HxGcnX8ejp+HzIej7H3pUST536hFphpT3vR8xBR9DjGtwfJL0WLHvNvocj09G/NpDRmzCJpvTZD0ujoly4QWHV9R32OrMi5MmlzLuJk3RDViLsuyArObHBSgrwRBJA2Cbtx32kdbHU+0htEHclR2mAvAnjHoA5qX0y4Oqe0J4dSfC+voLhAjYI7Eo6Wqu61x631tK0oi7P0R+LStLe/6Lb6fXm2ogVkRdygeaUUxgYG0Fd2EkFGEmGHekiY02jv9eepn5ukNFgXUVrz+qEITuhfCQjpX3UVq/ghrrU/tNamYaGLUG4x+f8AaDLKQ2iolno3z02+3or+zcgkvXY92qxMHuRwVi9KW50SyXNkVYbR4Q5KU5ykHwiuXKc4c7XqWOghDfU2ybPol6MadVw21y7EQ9hqwe4J6G5MvQ4N0ENbjvpp8I0YbQuesnvBtqkxByHw9B033L7+t4ljEtnATwpBWC54xM1bAON89Kg5/BE0IgZ2F8E+CgwdMe5nyS9GOiorA9DKsgQiFUBzcR1c6DiKreU1jbICQAsgquCA1SB85iQ6jislwaIMdC/pwQKJtjDnMKhUuLBG99oZuTYEE0uZcMH5SEWRheCCy5/4Q3J1CdBBVAALfNIDVn7k/wApHcH3Ev28kxwEwl7VNC895S4QW2Haqji/NmP/AL5YXI3Od0g83FfE8Q/tiPCf3IvOO4iyqwwl5auHFBGQLLiy5BS12rbbxl8nkynx+cKMsZyLLuT/AGkOL5kW3kqjm5QqxX2J+4nU+Cf5BAV5JjgxyVWlaCWGFEtUcIH++UTV7vcxbi+Yvx8ked5Mvhe/Fm30sTRgUYMSoE2sskw55cSXIw0WNR5Rd2oraMdd5+owAXB5g1Llx2gve+2qxlvQ8qKLLihBQ3g+3LJcAQ3cnlQcS9QD2r7cBUpKwS8lfuyDmPJEtw9yNX/Qgqw8wcAmC644tKN9SIHVaJMJWwdXHlHCCKOV1/ERsZ+wwXa/sy0Y7I8SGDaswkcTFdRCOPPmevly0nIE5MX/AKousdkEF4XcjKC3Z6Bmyt9yfgP+yvJ5yDvfA4I8LUG73ymFAVFwhAnF6U2lyiWAzgXx8THDDgK5ljTzYm7Zmz3le/DYcTyP5mJc5jjaWRcoE8wxU3Jxa2xHd+OG66un9E/P/CXGJwW9ErAPgphb+eJZuGzGQt9bghAmHzTJdTA8JidIy0SWfE/wYXPwkCeBmPVWbdEC/igX8U6bxHkEeG0QzAEmOUdgAFexEtWSugQAEqbOjnWIOgLXhFvyNWGIsQV+ME/gQR1gd2KXOA9iD2cOAAadGqvm6gbYGiPs5VJsIJQHl0YMsxZtAJdzfcuJuGOE5VDRBRmDljZGFXkc4owKURi3MKZcFq02xmOxA4BGQ9TE0VDEN5s9Jb+qf4cUQGaTl2SNUFE/4Sn+BG4zqZTwsZfz+IKtIqGy94GlPLVrOz5zpPesNt928pCFiW/4i9co/wBcz/Pl5FSi7pxiQonNn9TMv8cNZ5AaCrGFZ9BD+shasXYg553qUmwbcKf4krZFSQOOK3fA8oYYVxT5M2J9zfuFe3kmTXS1bsMbP5sP9rA8giWHIH3GFP8AxTjN3ZP80n+ZF4DBbclCs+KMyHiIVbZjxbCVKr+Jm2tU9YQzndb7kWVVoMRSOKvuItSw5OnQgPuFE7ww02EQwAPrGzZBbjTgsWwwA2BsIpElcTB84OArVBslfdLbiEG6AuBrJFCONLW+cILanBzhotxRynQhHmXBmu8MJY7McpcEXdgDojTqWqi0BUxsF8IAe1Kc6uKq4qzEIZXPCFnet9E1TrCVK8JVehc2I04YCvNonIhQub4g09Mtx3j5qg0F3lVAruRYTzeXFnRtgAIC2DBLo2Tc0dNyjALwItsPDbEv4JsXcdkpBrvM7d4aJF2Udwwe+Ygi22ThDmlMXKDlocIXjrQlv8WVgkeBGPlBJ04pUjbKxAPES+soCgCBaYUrHCH7h3YI5wgxNHHlo8AR9DGVp86Y12S590uXo/O6DpsY1V/plaA2ZzWpaq1LAd2XiGy8auoXo6V0vMIQ02XL6h9CpfywbQ1/a5EqEGG3peEZUIrHkXziYmzM9gUw+ih5mQJmCwZd3EWA7CeJkjLphiF+0ixlx1IZplVm1H3BYy9TaJNmv9sDDUwipcU3/wC0FeQ0QgeAmOEZKGNNlKeEtveP2qF8tF25XLlyPgisiyibNRjK/IRm6gU71FMoLuHIbaDncCtGFfBDt607nYS9BKBoII8StTuwOKEq4EVg47QSmmmdYaxTAcGDnFE5tl+c5QMUq4vGxnmKq4qHEb01FlN0bjRwjPyQqG0cxlmRxvJd5n0GKqSrxGKWTTwIZoEmBuMe91ZIJm2Oct1GmxwBHZCO7us9jRwGLdBOxo3ictTCisGio6p1ZelkxxwZhHIiOgc4UUUiybpTloCvbLKWm04ey5xwYOnZSNvpdHQV3JuaMdocd3W469rCq12M26YhkWHDwGVhO+SHm4eajEhBRmy63DeevB6E3HBPAmz0Mo5WeGpHScvq+k11LSQLC4Mcipe/l/xTerr0Y17fu6XQQJvkx5YN9UMchmYbzZdGYJd/wxkQsY4FN+1vgYNCyWEc3xmDAq5TelC3u+2CAES5SV6dXkk25R3hfEiAUWUzDG/gHIhWQfY3MGOefCdIQed5avY+8L1HC77lXDwFeKhEHZEY0yWTtiEhsR0vNDUNJ4kxDXJGndTHBVr9oAbSiLHfWXxC0XbTc3+0rj2pFgjAozBiC6CVBsI7RG5xyyLGsQ/a4agoOd3QrKQBzZ3jyU6KV8EAaT3lX8k/2JUxtgJb3AG2PJylqB92Z7cOD9MOp5Sir4MQgW7MqZ9sn6DKTUT/AJxVJEHfwaotfxHGPHpfTRHRiyJuDLl6ZI14TdokfjC+Je4jbw7wyADPV1zNl0fJ6Bl0f4aB0uY9RXxXoK1bjeBBv0EKOKPiR14v8mEHXxPrINNMYEHsfRS5ituAkBUhYzE2MsQ2/wCEo12M7/WCKaU0Wp8E2kEnUI8pM5GX74k6LzD++j/aEGyoXwYgV4Uqcj7J/skxXgihpVe4xMv6M2ss9Uu4wWG1C5cXNn7cQa+TM/5MsuvHN+V5iuUTvP8AnWf7v8o/5cfd3UFLqxgOMvZL9ye2FkuVhlLzacRThP8AXS0xb3amYvP3qWrJAq6q5y/Gx/tn8zbYm9e1ChXQ1Rj/AI86nwgBSnsSlPUbRk219nFfUQ4/dI/3cRcCmbzJz7SnP8iLYtO6LmXqxGx8sex7sB/uzp47cqFN07kW/igP8Ef66P8A+Kf4ko/ijuG9oVUDCUNidAiJyEChA8oMREIKbDXE44aqj0C5elajbPEi0siRgI8EBLJcqD1PuUN51idBHmktoGZ/rTleSPGkcIiX8hR3tgYWF9ZuR92YFwm7cwDgZZrbFccolx8kEbkplAoWUFCwgYF64ogJvdnBKrzSfmpdiGQg4TmLzlXG/OsH/D7m8d8n/IJaOapg54YuoSc7Jyfin6GdFFrQrqcbJBjPlfxB/vv4l0MF7rCDALZdiBJ/oP5jwi97/wBhxvL/AJlH7/cw3FvheaRZsHnNkv44Zc/GZUO05ot5V2IqYfCYUxZ8MX/zjOCOB2mVTUiv/bLGZmu28CGgFQbeT1TB1WxBt4EaCDLbWRg+qGyftFmqImOlwT+CV7H7IWW+NKMAGwHCkwH4oHA5MRG3j4hyiI5EFdf6iVqcPP7MMJUssdok6RRUVxmeeQDzlsuecS3Bv9UA2qiUtSXL9DULB5EINNkBzYLYDax202fSQBa1LRQ0TJfBO0oS1KAR00zbha4CW6uPuPSLbelQH1N4aZ9j9wHRjoBoM2y2as+bK135ajS9C76rPsjo/wDBIAkKf9tIX/mQzru7YsW+GywH+yZLs7yA4vKOkZaFip/hQHaSN29o1yAIslSI0BkOKFePFK2+K6gSBhQo2J0Eo5Eo5Qh19KkbK8DKmZDfeA9zFm5ku9E2oRLpDgdpjqZ8j0YJy+ubSXDRY+r6GcDbS9MesHRTRxvYwLgWtPBgGPhejgxtGMrgnhSbJBl3A38PQlsEnwIErTI+/wAxWpXDmeEhMpLRuAMRlOgCfUIGDsW+zwiEbq/cxoFtHEbIRR2xwnz3oqgSHTc/xjBO2B0G2NugES4bybqR7dgFb4IRUqDzPqA/ZtMEoMxQ3PGBggw5feDRjBNww3tkGISKRsuFp8GoMd5sO/EPJL4HhGe5idN4ju7EG7Jfu1suVa4DQ6F470jEuxUo3VaDsExzubdLi+LCXGJhnwfR982GjKny/Q5WPQQGGj+c2Q/8AqmyCviStPkos+J0uWRjjgCLYVHBCPh6QVARQnMiMJY6iwCzl+2D4S3vIodpnxXmYaUjDAup7Zmpg2ei8XMvzBquXW8FchjiiKKuEYW4ZLVbudzaXezgwg11rPYQko04GIM9F2JfiOzoTrEPxLlzTyegh1Ps9Decm+PQSGu5fH0X+XAxCL2OY6nJh12unc8pgoOT90yTLFQ2jx8/sitCZ/vxPgtGJPz+voDaud4LOExpu8HKDNpVjwQxJoUhMM1YvXGi1GwPyMyjfLqrusPlSIaXLJoibgSCRrmtrCgSvOfjOesPZIaM2nNw0X6qFVcbbqmNGJaAz4/TQRgRDBRq3j9cTzgtHVRlgiYCQohX5avdj33pg7zE6lCxCAFGjOpP4IQzl6Fvs6m0WGWLeUHXd3zZosuM0VKlxmqslwvelkslkCjrNsNLl+hY/BDCrwlBFk5ajEuD5a9sp2Pc2FNCOqfcFRzkrclbbRr6UiFveHWzMVd3/Ucd9UCjWBbhbcfehd5mKXCPEEsTmEdfIX3D9bVcqlmW6pc4ZTbD3rEF99Opw+JUIm0PYRJ+NPODhMYYbjkJ5jp+BymTX/nCLoef4loadZvpm07ej2iI8R1zduT81DRhwVdHzh1IttpHnGVpkvxfofgcoQHFDxL0uY9d/mLjoF731Q0uXKdUX0lilrHOYaQjk59O0KAEZ7v7y9FksjocqJfaVeMpEHGFXe30Jg3nSR5WWYRr6oTljjKw6HJAI3L5IV/8E3cFLe9y/ZJwqSxQWDcWXBh1YoGyywsLYKmT4eaWjb4g3hb+RGYQv4IvFzxJeCWnEP8ALieH+dY3H/L+Y4RCm9cGAAT7k6nyTl/Ig/B8ogylDekxYkP7L/Ev++/iKlY45wABDynkyv2yuf5w3KOeAw/vUP75Od7Uf4kwyuY8P4z8xCj+Cbk/BF4F7EU2D2If1JGuK20Jtx8k/Ni5ZzuzEIPrWb8GrUAqFwlFtkLBgx+FgxWH27qpwECgqCUQLEphgC0IATEq99FQaFX3dLmT7QGlxR6KDRAKgt3ZcBAbInRI7RhyxPEshUuIKelQq4zKzHeIK9xlkxAd1FKl5fEr3BOmn+1E5AIXfEE/2SJ/wp/uwMXAPch7NgXPzGCbfFnXeGOMY0LF2eBo8wDNXWhi+45Rw85hebtDWkQmTCnkhq2shTneDxjUIZ2R/lBS6ulkELq6L/KIrd1W0h/nzoYeB707JDfj0lZNALLygvcfd/E7K92HMebNzNsEdi5xD5QzX0aU5odn/MoZJi8HGD3bpoDl2+MDN/iWZmDRykeDOG2CCAIbB/SGG/IfxBXO7Leplx0OaLgfPPqLos4pLZOai6NvFJ13lib/AO2G0AiZiS+yB+4qzF1Vl3agO3hJUIZcJZd4XiH9ZANvFOm8R4A4vmUSiVMF5KVU5jSiUTawCVKIh4Rq/DMNaq/QeWZkqY0GQ1x7D6U8M2asz7kDXb7zbqkfm9Bns9Ny9GfChMviP+JOQPiP94Qrj3d0hRtjLoTj3NIVuZBCA8u8y/8AZl8vzhzvzgtUUTpKZjyv5h/ZoYb86NbcwyYF8DHlfGHFUgOJ7Id3i5wRhcnVEzH28V9S5t8IjhTtwOtGUwuDA/34cXz4DWcObjrU2htcoCqXlOt8of7XSmoVGUn+Eh/UkC28JDlTga5JP8WAfxToRw0Z+qMU5p5NSYHr/T0Gl1vBYei80jT3Rkc9Nsni6TaLKex9YaE+Sn7fL0L8HGDXM+vxGhqUCxt8YCAo0tlXUZ8oOhpyFcmixm442+yENOM/RHav6IapjIJUqfjcofB+tKJifn8yGrNj/V6FSp8LDg0RizPlfSGtPdT4Z6caMZue/o4NSafK0uDMRoP/AAGU+NElRlLuUcGgxDZuTEt6VbbFKYW5s9LgETdQGErzhax0I7Svk/c2g3xhBfs/JMWnZOn0Yb+wV9pbQ1OAdYQJbtXbzHjhSqzeXLdLjnKfdw21JcPkJ8vo3PCh+XoPiYRS4weJWqofRrBtSfX9J30f+6BZFSMO8StaeHQ5MG44TgH5R659pnjfT6Nh6IF9g+yHoTU8BUmGnyn3m6GlzC5trRlJf8+5LjJaDD+qn43KBqWr2wbaVD+7hPjdVmB/NkNUiz/GdGYWSzI2GjCU98+oOtvZmB0IsNsDq7PokdV3mwly4rD5vR8aFp6X0b024LBdFqBjNsQxsfYVmMKrRhamMWGxTGPNvYgO2ir4zCEU2XJnC3Djle5FFnNAW4Z6kCg6YXZW0Bt4b/lHfR2lg38MGIgHZx4m8NogeoJwgDuRADnCvdiQ7GD4ChCxWKWm7iXWuK8j8oixoaK8+B+H6OK6DxfoFojt/wBV6Dc5/DqBMH5L4L6FwvdXR8FODLeSpPmwK/D71DRq7PaPif5aPqEbg1XpfvBPHQIzd083lBJv0AIB2b+5siaPz+ZGJO6Kk658TBi6PH83i1fmTDt5ZLIysYEuDGE4c37lNEQxfkgVKRSMlbe7OsTrET/kmAs1wYQWXvEt/KTPXzk/3pu6c0+ZzPJOVAcaLBGZoNmn5fxY0BV7MAZXwzqPhieHgzoeDLjzOUf9qE4v/HFThMQ1JXoubI797E093ipg3JDmg3FBqK1s4+7L9Q7pzxSZyCDsgzwQCLixStDYjYNCMbQROQj4KiyCxQXR04Sl92Nokt6NWb+GXdlvSh2gro3cVBmymRPaFyYBBWTlMxFrj0CoTkBjLuKVzhsHQqVNkfPp/AvnMa1u5fI5cNLJiPIniGlkugvf7OlkEiHJsD4bjlxEuHW8PnBlkpzgqCpGGwDK7yyUf+k/wU/y0qLaeyXpR3OWvYT/AFY2UXd4kthB4UD3MGaLMy19WJptRqqLyL9G+iXNBFi3OzgXB5kNdWKBk6pyF9j+YVXV0Q/mWuPfr+ZfrIvSnJxPxEM/7MH3AkJpI6uKq293SOzC6qX/AGn8Tt+UG9ODhTcl/wDM/mLKPE/zBfUGCuTPhMPPC9kJM40pxvhjTLV4BssyGkUYM+MmbvlymIDgwJPzn8T9REb+yby7bN5gzZyh/vyn+ZKfMVaUlRQ+dhda29r7n6KOAi55sFDLyxTf5Mp/swBukcNKg/ppgr4pZ/HHEaG4EULTuT/NT/PILYvaDoDadFOmjy0QHBOJKOUpylCPDNmtFSjCtfqgxGV6qgwxgu6Gl23ZYJ1IAr5kwbk6bzKP5o8fzRRQMbsFor52TB/1lm3mlDBbMRBsyv8AowTi8obVfIhpFPUhTVrnIuU2NrqDbeXHABEHkMEUbpift/lH+y/lEuTOa/yjQApb1mhEaDCVtYO6KRhm7WKWjnhf/kCIfGeZCXU2eNrB4vOl/wBlhff7zEWy2x74mD/q/mGK/L/mH9p/mVROzJ1JslPsmbb7QOO355Ta+r+EFQl4CVhpi7fsWfxFv8pC8DCeeFHZP9ZD++wBv5cvI6tSMLLv8uF1F8rNhqvJKuLyh2LhPJFN4f48/wAuGpLDWzdjeKQCg4nWf4SA7D7Jef8AKFBC+idN4nQSnIjSn5TA1Zfy+mYDQISwa2+joaKjrKMHTjPn/Z6G0c/vgMS9HTv6JcHl9HoWpswdLe9nwGrHoFaLiO/e+jfHbpUTTx1vgeKbDUm2g1ddpho6syns0I7aK1+qbJcNSOuyWZv3MCvYWjzHln7rFtQKWtfSf48dr45Q/wDOCDgcof0UOWR5RACVKU0SEXgRJge5eoZrEWUQCUHfPDhZ1t7SBQAY4BCEolHHFzxF+BDStHh5P5DqR09Q+Rh6DQK/2ujoini+E1Bl0vzWi5cYSI4L7t6PBPyEW6qdYcGFyh8l0IyzyfvUZu+fwn0Cy5/TPjeqqtVqAmnKJbv29HT9vnBr+Rymb8/q9H1vuBDR+ZFm5jR0r+/chqlx2nf0b5rEuLo/PmNDXzoM4Elnr0suy2a7PRI5cNpX/gsR6VxstXpG8sPMRG0+RS9DWQ8Atg1qu0ZMxu2FUmElO3WssFXAa/a4hkCzctFtq/F6R8+o7stFTBCVNd9PgwROUEHkcWZCZDckqw1LoUQErTw37sLQlq7dFn5fOCLTWJcnAYALIeXdh1jYWl0uQlQfKgemg6fBXI13XL56aGiw0PL7MWOm86MDXMfzU2jo6CvwY+jC/wC0YMQ8ePpcplsZwTfiDLmJF0I8KHrUcr/oituYaMuW9xHoVFfwzIjLhVkuV5F4foFvxo+YNLgsOf0S+X8GowXf8zCLlz5SfA+jL8GSDrsmR9GP57Q2ly4uIr7nS5co9iPQGXLv2QZZMR+CbWq1GU7QRlmhWzGBorKwDA29RqzfJcRaBboCdyKFQQwJYvMxOyPkpYHEEod4m+6882M4wEOCWhs/bMZLzvkaQkaGawLUK1dzglUtBWpalHPcwABQFBoULmyRVEi34mTHW0C44iBGt9pfRUUvKtpeW70UxaZzD4gjCIUydG50QiFzgegFjPPHtLgw+c8wQ03XJvBh6H+Tb0L9FB9DI+LIx7LR0udRfgeh1OSeHRdS9fhZLOK5MN6BzQypQ/LlyyCRlV7/AAQs0WZ5qkVrz+qXLHFxY/F9GUgykDAjFS2eYnlA7z/YlR/0h3kiJfNM2BdxEtz95fsnZi7gba53BzXhnVfKdWJ4hk6yi6tCc62iFwK8PNm7/uiEIPCZu5+pL3XuBiKImHVa3Ic8A2qcS+wQ/riD/wDUIvfbVdSp/wC/8obdPvB/YEec8kOQRzwg9m+2cXT2sLc09scxFWIK/wA/iDT1n5/EV/b6gsBvXmINY+7+JeP2ML8H3Y2lJZtcobHqMP6Fn+Szn+Bjc3qM1DSVzloyIOOUrlV9oCt3OVZl3+Eq4nsRW73lvB8TrvifrIostpgx5Itijsy5x+7Ksqd2VDD/AMWbHqSpWgVFMZlqCPtLBOgwHVCM5iWqAUKMm+IAVQd3dhsb3GKlxX3YmQaKpFm+kxrRFMrjcVN/8HxNGUQP1SvOWGZaZTeocN8QI3KkRAUTop0fmGYlIX7jD+8JzPGiVX4UfgUUPSGNVmMzpPDKSnnowhV4HDwYQ3PYn0QtjX4PNjHRPHpsYsUu6kcl/Z/MP80lv9U6dqIVnrP9r+Ua8duiCOQJOQBgUjOCDbjxmNxltKEkaSye4gasopUf8nNL3/xD+1fxBqY3uf8AkO74m7rZ2lWdn3h/RstN+2v5h22xsZaEM1dPk+YXqscApDC2+AS4m2yrVwTyUO6TYo5oteL2S/8AB8Ta+mAZa7lF4YRgTkw+pn/6/wAILi/v/Ce5YvSJlQ0UjhP95D+8wBu4n9gM1c3P3WLZU7worHOgoZXBBQ+sn+Wme8vYj/SQrE/vwDgSnAlHKMoG6+ElYlRiDfiovwcIsGcY8P3eGSBUYj3kfjytQDpR3/2QRIwIqJe/T0NDOb6htqol9+Optdk26V6K8yx1JYS2XFjEl6MKWCIxjnyvUz6FgNRe0w4+cwZeSLh+bF6EjvBnK1xGcAzqLEEbcASZHCRbOqqggyaRol3Y1mgnM8BLDJ4ijVBcD1in+eXYqbeKM4djndiH96y1thUf2Q7YBcFQYwZGXBbDZlzaq8agX8JDlStmu0/yJZAOB4kOW8QwwN0qvz+iUSghDw9/v1VKjLVW8D07jy+QHRXUA4PlmBG+1jBuOwbMX9HyUuHNPjSpUbR1oDV1+/EhtqNY2YmQmjXfaPc2dF0Iaug02Gn7HPUwWf4qfj8tWNrv8utx5/3XReu9/F9Sbq/99FRlnPfomHT+iBcRhDu7Pmb5Wii7mnwf1KqGjwV/sQZdy45U4XlB0WZd1+pgEIRMzN3NQKi8SVqYjpb3dGEcsjqEN84HoRiyr0fNh/4OinuaMFkJIFOAy8N/5jKusxUFlZyRB4jcuGemYZW0bE19zFaFZTZp4p3NW0OzN4dANh0OcDJCQwVwIIgmzkl6JOUxI3BosC0AqEJtEcSUMXrGiubF+qGNlCF2CbMquvBWwsVkCgiV0KGQdGgrgCBBZEFXuh17Ct8K3liP7gpOcvfNy5SpQycegcThQpAWIFCpRh/3w1+Sm1/NaEZTZ4jEdcv3Y6VoOZij/ucpmatIVHirymagFxB6kb0AKvAIq6w/aGuQH4I7bm/xrcRRyt+fQvx8MNWJo5fbhrRzT+GCXFuBKd/+UuVq36NHMMRPZ/P0Fvt3iYHKpUuPF1fZDecIR2YKCA1zmNGXG/tx1qV9hA1rtHeaAlSqj+RFhCGoRNM1DRKlQqHzoekZWixnx4bQ4UPiQhO65YslZxqUrgvQSXRcceZ1w5hEkKuGFF+IWw5TtzHduX9nbzQLlXGjmszZVc+xGm83Ii2SgXE/DFdhOmVWk7NGD8N4zON2E81IFfyPnGqO/wDx1ddUYbREVHbDEYkGIctGWLwFPYJwT7lggsWGDgL2DgT9blB3EDBXusTXHtHYbg8cGG2jBOVIJMA6HIghmXkTgPFTxWAcQ8YsHQ+dbOPLP9TKDDXIujEr7svj0YdWIRNLheX0Ya0TGS0bphibDthTusIPRbMnRigaqLHCGxkb81ysbZwr6mpla39EwHl9foIc5Xw+gVM/Rg4l6LHf6c5ei57wB8DpYwSI/dtCB5F4NVINT9zAaG48trOEqckpzlIiIZ2L7nSQHJOigzIhsBRKjZBFCvIEeR8xLbBbMWWeFE1T+5Edy95bs3Zgxs7sFLDHceWbJAaq0ViOGZafizlq9lBYt8MEuct7QT+ydHzwP/BMpRv8UQAgp/YgNiZzkLLZnaH9XB3hjatBXsO5CQSJvCTx/MHNjxGKpm0H0XpcvRJuRwnHhdk3NCtFgNi2yxIKOQgxvGQu5RMoh0W/pNwLgW94baipis3xsOO7ilHTwpULGrKb7lJtCH5F6+0WlqCRbEFNgOGHfqQm7ADQYzNzV40Ui2ge3GbTQ0Z7YPsqZ1ugvtNjAbcV5ECirS1seARKFAPmKc4JLhGhSjfHaOoSqJejCUw/WDaPKQ1iVSvGHD8CDbJ7yy+BwNxslZatK7At9wqaxLcME/wUtKSt6Ef7mCCQRGNN4p0Mz1W5RygwPNC+h8b/AJLbzhDjV55WQ7pRs/8AEoIQZKs6kuF2dISmp3U57sfLZTBvD1ECKqlt7pkoiCgAVZLX/Qj3qcCTOcp2838okTBt14QNKiraTL4brThL9v37Qoa7SpuBog0LJ7sARFXbuLikcTsz/YTPiju/mHA1FFNyc4X44+WZ1MXYriYN++9Zgzv8obimNmaZmPCXav4mZroJBNqS8wJTt93yqDqPQYRT+XMw3PfLirXeVbR9vZIiogO4qUFBF0vJFi7fYwG2fNhnyzvlgH92UTmpl3COqmhYrwzootmsKQU5nvFQrvOpXQRyCBtlvOokLwOUo7yGcQ/qUqyC9BMt5+dQzoXwpyvDD+gjVb4iDPhKuL7ljkqX8Ep4JRyIDCpBUK5QIhUPu0rSpNvcTbrTMl1gulAS/A1ohQTHWXZKwmnCcb1YMGEv1oBngw5af6U4zyQafllcNcolnZBdl8T9BmQMA4Rf6pfb4JngqfwwFjzaPBfhHhmQ9ikaJYcbgZj9u0LuF3/xM9w+7AI/FCwiHC0OIsFPPF/zOb5P8z/hVZdG+NYqlhi+hC3Mg4viJzP4g4jrbeuIeD2hapkGKN4LdWTdFqSx5XCof6EORN1vlDbSqbcUTKhab71FlrvOpnvLzqc7wx9AgNVzinbwoFsPsQDbwo8grVgyIksM+Ama/hJ0/iPL+IOUVKORKOWiFef1gIypw7W2elwGlaP9fAjvsxuQ9QgRYVVbG0OGkGcloHeVoymkMUSxbqndEcPsh09Ino3/ANjBYmPRDvZ/jhBlxkFRct+HultiAtaI0MAAEPsD7oYDANu0fjXizbNAxzQateESDSDuEr7Y42gCq8idGoRiAqWJ+4Go2/wT4aNG7GBQGcwRazetyVOz7sQiw2zaMaYtcjEI6p8f0CpwcCKm9coqaIimBA1xJkjpdwCwTA1qfPdDQWxqqjkwhGxxl0wkuGRi7vrMJGr0o1dt2INLHoRqvwigTGHool/pGX2it1+KBBRApZtETQ1uQZsRJU2MFEDQZfqYRs4MCkBsftP8qVYeCEtQijlKmISj1JslS9D+L0B0A+4aDFjKum/ENVT8vmg4eja8vvTYrqJsHKMdZtz6Q1/U5Tj/ANkNGbXv86rm+/dw1q0jsflL0IiXv9fRofdR9kNL0xC9vkTRR26zOYd5b1OB2FmMKw8q8Cb9EUty5wk/ut8op3W/k1vFfNPasYIJYZpDL4Zd3MQ4yV3FQwF2F22ciojEXW3NGbv7w0ECEoTWXwLS9BSP0RVwmSDZVRbbvEOZQsDNi3kdlYgKwuuRcSj3HMYeVeGfaCPbaV8Xbd8Q4RkHCcps82TGEDSsEp2iDXjj2uEHT8rlA+wit4lIaKgRbi2I9dghcziltqAzI7XbGWB5ZB7seUIXlgLyR8BqzIxP7liWTcC6EZjiMH0Cs8QBUUV6PmOix5iMk2TdQhSErvBR+0Aoco6MpxcRzWSbNIXa7BGIwIRiYc2EsccRIuILwAotveLBqqWpUPWz7srGmJWI8HL/AJ9DRJ0hHV4+pDRhuOw1GIp6vkhqR714EPQxP2zqzDpiTaXp+9ym/uzC+3ovVyb0Ein+pIMejEuXwuENDl6EBjpiwWifGYPH0Mx8+ky6mqv7NmozkHzQZW7PTYoWDq5hIh8wmUVW5Utu6/MgKZCNUAxBaY69XRagOn7EgshAa8zVBswtKAv217zE7oItCMIu6t27Qh8/DeoN+8aGzMCgE4XwP1DgJDOrcATzUJ+TaGS1AgLEyR+PZEDCgB9wYMGI/VtMQ6YEBHWYv1TnRNpxB2Is72p9sE0J51CMuMpHm2T5KI9pBl6M939wcRZc3JQ1AtAo76BNFiKikslnOBFQQJjjCoqiMCzNijzBzANQZRUrzJ00tc6FSpXrZj3GDjVaJ8whoGmTR6Ge10XS+Leo7boej5h9kNd7yV8wlSpU29bRNas2E/nDQgsujGYdsfavQ8WmXLhDHZfjCg0vTcNMHRYeH/SLiDRcuX1QkKZcpKSz8EvmXUJ0kGRUQ9YA2HcS9UdUikv91Oc4KN8Y0C3kIwRKKo4zgy1JtcEgi0hLNrdhlSzdCAC7n8xLAlZWDlBn/qJSK9RjkFZrUocP2qH+VP8AbjqfJDAK0dRtnQmfwf8AyCXY55v4lrGKBblL/ssP7FOZ7Kyz7NygbG1Dd1UrgflK5X2YH/JGFWzKCOYcPzf5gI5XChgU/wCz+Yxai2wkONtc38xpR87+ZVPxW7Djo9kUzGnNdZj2xVDTwRkHG4RxqpHLmW/xQDdvsJkOVwhzn+MQHje4j/UEOFjTmiUhjcKh/WfwnUPEJLuYoYOjT2Zvn2WEfZqLzO7D3e0x/sE/24B/PDEWy9RkdWCUG3qw5T5Zh4+ZbCXMFU+WdB8sA5+YZKOMHMxlyJypBwcIAFQ1dH0LBacmbNK1RZz0UiObiEtfAlIpzjykqbZmlxPck/3plo80o9tIC3YJT/VnXfDDkeDAGEIbcmU/vwa4+BH+ohk0YduTEn/UjQhb3LFfMeB5iNyHa0m1vPnigxx11p4t9/4ETUeAGn1EXBaOdNpfJ8omNHzgc48xA529ZXigQS+EVVF7MP7z/MOOk81wuuFwubJOI/GYt3ghck9DphR/zIs3Ucg/hAbyXz2fEDKX6tX9RcYUWE4KKH/YjnG7pDnSCvqW2q7uD+9xRFrzaAN+WBwN+KnhBi7ZzhSZhXZtlOZ82FciIpspBG7e0dHMdpmV7eEhuDA45NP8uH9fD+ghE+qXGhdoHJKGxpu+z7w7EwXyXzOOmVf3WDjW52v86LLXCN50PrVJi/L6o5f+CLZLi3SrDzcXDRGUIbUrHC4MdIyS44BkY8S7ngwOmUwA3dMsuASRE+WWSbCEELESWAotCAKnDTcFXJjC1ISpeipeqLJfAi1NXllM3EbQDTszHgOc5194tra4gfaV9PAhLiDVb0LoUK1x0vxSMC6I8pRF1MORauctBMCVZpNsqNx6Qv8AwYlyoVmA4PAzmeKclg4l/aI5sRwIPjpgGnD4qM3tucW3HyxTfQFRAq8/yof1U6SEUnBgvBwgHKVAlA+37mJUslW/nm0lwhFh/VfRWzkflEHEJco4lx6ZepjqfGvQqbl9HRdUPSL56Xoqy4R+YGXrYrfmIs30VDE5lJR7x1PMXkQMG74Mnlcv49sbRjzGwu6AW4j5YfJ0YsduhKjCE6XVAc1ixE4LA3NyF9ruxC1xgl95XPinCLbz+vMCglwUmYOhcTb+dwyptBJwPJhyIUzUVqVGR148oJxyy2LU4S6hzRLW7EmbWBIJ4qp7yzyWzMDECgum/wDJSyNl7Rx8AjEZOEq4hdLZxdzKXoA1GWZDX0S3MFSLykbgVNx1RsWwpA85WoJbV06LiwNvRjynbMSHIHlMAV/xi1UDEQ5uFyh8YuAmQu0DrsQ+EQikNjgROdMahU+GalBGZ5bxNyLwYndyigbvYIc3ONTBrciAo5gSlvJovEZgtI9d6LgPZS3OXGW1EgPI6MubnqjtOYjLl4jQOcFhDHn2nxNGBDk5v7lRYMSKbyyfmEIaGn56pjbB4b2bIsQGN1AivRmi3T0O95P0QcRIaNDp1AwNhtn+IX6LFn/VRZbGs2XNH4f8gS+YwMC0wOQ5hvdyzgvy6w2HLOgnCE5oDKCAs41tfyU9WYLOnpSQoQgHLS33YSBQYl0jUOCmGnhZ3ONT8blhJyReljKhEuXvDb3MxIaOuXdXxGwPEj8ZbfIStat7sUm7MZQAUHtK7WKltysUObMcJhSD7sUN7s4Xe1QFiqyph44OF1z1MHlkIqazdjHaVAWEFChVRjAC5qUCUxUUnBHwAc4cuhlJ9XR0J7cWrgyhUQgOEHBk3YbuwgpImc2hCqjEBUR3sMMbBLHmlOb1OEsBL4GICMYKbYtaXNlMBVtzhKkNtKiNMat+hho6ezpmVGGVA6JBg6M+AlStF6EPgYtMgTHr/wDCVGVDTG+DxFd2/wDwhquyX51M8fTGquzk+GejfVwvh6Mvf+IVGVGbLl8wMuXpdyNfJ6BeTDyQIbwLwSrgGmPUf7IFZGixLiwYwobPuFgsLWDm82CbsJiEYabP+2LBiYCjIwNEIsOYUyphlmY4pQK95VWi8uzGVFXdYnv4U/2SWbjsy2EEivOFdwP7qPDEyvgt96hQvDvhlmLeGDgOzoxHLVGU+YseET4eWC7Qv9VK4+G26zP/ANcE/mTm30UTMb6shLr6OOUO52TK3XyNOXXRQnH+CXTWsJALjNyGDgcCH9WT9RFf6p04CuMJT/DJEn57I8aMb2TeFtznWeEK93kgm7PcY5OTzjTi8HHXkh/vjF/1CYB95ySDlIEc194m1BCFf/Sf7EtQd2CYSov+3OqFcsYu0JHX4M/xJSK0vhC1DW/QsrTY7kNtGJDHoM2T4UvU2nJfqG0DQKYjF1hBIJEEvNJARHFnQQ4BVFXMLTsL0g23mj/bkxX8pK5Mw7BUTKKt7YmC1O0u4ITGxvAzD/BhzXhiPHypt0P3TrrAPHylpfzydoHPANY+8staYKzshs/GQQWnuH8wrX2sQBs3LXKU1+Ym/wDYTZPiTqvCFe228hlb/XOm8YcqlKgGmbG3vKBIO7Z3/wAS+DzszMLTuWCyo37XtE4EeWYFJ6jOanQYXHFuVu3CjBR0/jMh5YQmWFWKzGL/AJEtt7dQ8TxwBHjdJePJCo3SqMHH98Uy+TLgAtz0YipvAFcjApKZgt4EHyp7Q/pYf0JOl8Sx0x6RA8pSOgcX6ypWhvvIKPGhiIR3HCj8uipglc3NKNuATJeziIboQhcWBqcIztMS4zLymQlynoO7LBco9qHDIl9ZpUxB7KVrolYei9FGxG4M3KyGZj2GK9I0OHaBVe/CbkRgAcYs+0YQb1ykMStFg7zYQ/8AKvmSgzDznwx/2JZtMIaDDGPyF5J271Y0V5pQQMJXB9pVCieyz/LlhcmghHgI9if4qHFTxFRGJPWvGK7+eTbfNhjzjzcPzC3l4Ed1FCOgzWtp4R3KptqcvxkB2P2IB/CQoqf3s6SA8EoOEAn94wqvRT8u/wBFfyb6L0/Z5TIMIRixcvsmoz8fnhr8Rn5/L0Yv93FfTYAuHWPiN7RAtQIKgY+rrcJsuQ+HFPcA6KVHRW4FbUGVwtbRbGoduAdJwDa1WqpuQfZDEuNE8i5VFY1UlO3BjxtBzYgXRtVo4RkYlEGc3LtU6MD5jx0gvkQbIqt5kcAjuGGmPcfuGlS7VdkzpIp7pS3dyzNPC2oRQeePV3QhBrao6/Cm1LbjvHjGZguELdsF5TPheQl5FXtLDuiyBhXJN2XntwWGRWx2hp8CGkqLXLETsRtsAZgzERakSd9/NI+aUj8M2IaEa1RlBl3FBCdEiKDKVAGavAQ3rEsfhZ0g6JtoEWe+bPRWl6um9C5SiIRiB230O0V+9NbnwsGGiwxbMr1+W+mDeux7R296A0v9nFl1B0X5cupMRvRB8/QgbpfTqM3XKQ12WrMeYh8+g3/4YDq5R0l8++b0D+bjKHEKWNe1y6CqPkapiBReWcHgwW7D3hswjrlJGoGkzxmFyWCZ07J2PIiumBMKeCsEyqv75R0H5c5kRmxC2fxCfI5ZMF34DzmBg27xcwtXeFUC1k3CGcFqHkco5CvvQBNgol1ThUiVcCIZJV/qOjKdfow1KG8u1lGqwrnUFAjN+Cpc6SG4UAGiRMdqDqvuEazzYI5L2S3LHDFPJgmyzdtBB2CiU/t0QTGzMSnqXB1BKrauGPjRKqoEfZQAUT4sGGhCWXRGAQ4KMRd18NDNOxBYMTqSwoRnRbUNCZF3m0mP/Jux4Iuv39L0dovQWMRiXLjtB80DVV3/ANMJemAxYu/3Lg6bLqPQWzwV4Gq6bemJ1Tu4/wCB6Myq+DzxG5N/+Ho/RcPoCpyz8XpNfhxo6E4ob98GDfCAFrkQurCDoA9BMP1Zy+AX9kVhiUWjkwwPLB0SVB5A0ZlZtn4mzQmNkpiUYFA8ITG7r6JXYjmXABVA5EsgrONEDETeiKeqd2XexOzCIlOcqH7mWc4CAiB9cA7BKynOZozNGoZQZE6kefBa3OIcZlHDHnkxbkCNSlIf3U/2oclC40D/ANE/2JyxDkY3aNif7keD5p0sTmgQJGdPOB8sr4YgNlRgRHcWIcHyRTQYYhS+xlTJlu0KJRz8R4VwL/BNtJibfTXq3ovBqM+bo6bJsy4oXpUxEfp1GO02XLXczy7f8sUHR2Z8z7OpGvdhF3DRntQbJcuKRB+fBL0ZQR7xY8wclOZ5p0sttif8pnBOEvSP99P9aP8AcQ4VWvvsilIvJEF/lJmDJ3IekKg8jLjBl7QVlDmRNrezBdbAaF2ic2zxJBdvKIoyY7XClBrVXeBbVZ2Qn+UfzD7fNtcAyvZ+yTb+pMGavbL+C8qzBOJ27R/pf4l8Be7A4vtGXUtZSm5li+xe9/7D4VVf+zm+Igr7FsVCkfD/AAjjvE8KP+RKNfav4ikz5yFhC+F6EDGspILmPOYF273bEal+aaHYqvzSroHdMZnEeSL7rylHDyToPll4PN3ecfqZ5yJezSXuwOy8sUzYLuxJGb95/wBJgbg3NwDQVFNzDkY8nFcIytsh/TTpYht4oGIYSvEOJ4ocLxT/ACIt1jw+qf50eRlewlzwQbg8Snhi3BLWQIQRxkl3DOhnQSqDjY1AwYJfwSwwSoYJ0iPKiHCAOBKIBcB7UtUJetw1HQ258KKaEIgQ4k6LzHlo17JeG9sQ/pLdvknLTso1jeJSM48BPEE4z3IufzlgyG22P9zB4vPLvtLFKCCocnhYXf8ABjSoI8yjpBqrTgHOXfwIAb3WiLO32CKPLfMf8qYK4+9wX9kobaHdghS566mzz+eH9khzPJHoL/6BnPXlnL+TL9wyrVpKve/8i5nwz/OQ2Q9iUi72gOEX1KrjpP8AHJXt4IE48ZGuFFzHOOb4IHt4p03iAXqNORMcpRygR/hwUjoxNHBmYV3ux5Ew1WM5WXHTYKsq5X8uzW9HQRurXHBEEbIM2nGun7wMXRBOQF5xCCNwzpX3YyAl2bHRL0GfCGCXBqXAumz6QOMHbmzE1dMNFx2TH8WPQM4ovnlhhc5GLyhSfpcp4CLGPk3LEHD00UuriCW03+yCCiChLhuMysZtBM9qMPgomFu/CX4RmAmxoSmZesK9BiOGguWdIWSomBlVxJArlCGhEzeYdSlkco9EO8IqiPIi0MZT04pEQY7yqpLiqu5idmRLXzgxhFIuv/JZukbscRXhQY7sCcR6svELcE6WdJMWxOGxRKNDwnEgwQ0dosfaJHTb0QIMYNE/CN/Q6G+l7mq4Aq4LPEsDtBl6bPkJEDTdcpRoMfnS7nH8kGLUGNvvh9XQXRA7/YtTBrc5y8/doMY4Bz+sUFeoud7wQQpQ4RC6z8JxI3GLR7R7DpIWxjdSp7GWClCuxhls0WByYqlSj3lVuTmzhqL7b9RRhDomQHIhb0UTny5xOiDtVkB10oVd8tho4e4YgcbXwONyvahUDJYRHTIW8hmxll39GqqIvujB2YllTOcXaCDn0lkeuLWx6TDYWNzMFOClLzowZd2niMGZIwbXbhDuNKNd5/DocxElxiEg8odcKFR7xzccPE65kKEqDE5WypvXNhBlsEm8+GO63gwtsGB7bN2FRY3EMIgMvRLCMLzAlItcJER5ESWOSBUXNKhYA9spWlXLJK5MNQKVpDQLFlqvQfUzci0rhFT2pw1Y7HkkZejM0Gw1Z8CFjoGiO33Sug0PHQcWJCY/k2QYMZRt/ZHfNB9Br8uOhp/14EWbM3oSrl9MMaKgpOcRHfRtnL6sDEMS9LOkPhkIwn6fLKQUc5lDDlLWOSUdvBnmBbMQneoOlRZe2D2OcM5Wbe7E33HsbRPIxoKK6RzCUbuQPjQQIWuF7wCbEuE3tn76fFSdoEdwxx/q0vFqbM3iBDwxYSbWIdUtKWWxYccwURhVhXsYICZB1TGWxPKDzbYLRDc6xNssQTECyoQaiHl8NjCUdipXoAgSFEaNoRV+VoSEAJi+5HiEGXKkKmJiVVouAwjBaDw0EIYAY0wlR3NgACFSsZBWVlYHnK0nabNag5ly9V0yeuTTa5cNUlDrQkqtMezPhGtRUPRozefKIK0MsY89ML9BTbQn4fKXHmnk1uW9xGg0C7gp/Fy7iRI1DQu+bxBl6bL83ImjF+/h0taEefSdZFg1AOpALxNuc5T+5H+4IfEUrcZRufdCKC/LBNkmJaUSscjDfuDAYFA5KYXf2WjmzowpSx/FVOV8ccVP7kGF8wnKHwNjjOIXeDihG5FRVa2c9CH9kl3/AOzMH/dhRQo+fKAcfnDJ2OzBBLu+GIuI9mYJsY8HxMMttyoYHGnsx6tlq8yjVeNiJHwMDKH5QC1ubQ7IVylPbww4njZXH4p2NJZweI8lH4koqEUFfCdb4n4ECN0tVoeG/BP0IH/WGzvNml4HxJ+JAb3g8vLZDnfBHn5vyg9yDkr8sMXyI9ic9vtLnHWal2+KDxlInV5Sqf8AaV/vlXF86VfDDlSqKEKzD/zNrWJEmw7NWNQAOhLIpFIkF8GGuN1HeD7yrfySjgmUsJmC7fDLRRX2ZiMeSC0M9pgGb2nJ4CWwwuzrZt3fcn+gQ/qkeE/CWXmce0OV73ohtx7zLeMPGJk4y3tEtjD3nf8AOBzfKHZyFytFc2a/gw2harqmbizZVtTzOm8Z087N/BGW4pRQznX9kedPYh/VEEi6y8W5iymvxKOL4hx28RyqnHe2ATY7MlN/mzneRD+2xQt9NTZk4t+eBv8A0Stv7sDWK2veOf4ZTt4EB28ZBVk2FHIgpsmfYSuAJiZ3c/0gf1OHd4shCGEE9502hC+Ux6gkBjaBp+3ylHtEdGK+j9F1zCCLaSEqBfdrjjAQR2SBoaCXBxrpAQGEOt1HmvI5WsaqKphpZ3k+G0WMwfQgyyMFHOkZa21vB/YVwlT8nSEwlXikaxcK1cWTAe0GGrjk4DLEMlOZkiICJYkV96DpeSXIhDoAQd4zukazvBGMPom+cdZbrUaSNKhVGBl4Yv7fJfCo69txEtkd2UlPXcBXsxC5jNw8yL4VMsZCZft7Sv8AUrg+l0NGPEp3Gcr4o8Fy5MA7xvAEwr8LLP4o8b4zG2pnttpV/llHFe8OW+YsxH4m0plyPBAOBGtrn+ZRylSoTa4TMIVrsej60ITDq0+GGgE2PZgQ+X0S5emw/NxWqq7/AGg1CMaGwE8q0NLP3btLhPy+WBXou/DlL15bf7NRFS8vplKaXhctWVbLSSo8rkhbDd37SJysSkgxAHm09kbyPpFuZgOBbVN84v4tPfp0X5+E+LlOhXcsy+GDtfb3h61MeIhC8F2DMpzUVkLG4yrLrDDl7ZvhJZJq7Ey6M0giF53iPBI81M35EcefmR7Go+ZYrcCpbI29+8waz7u06Jrp89E2eIldtZgd44QqSEI4xYTVUnDVZRmoU9KZwnOgHyy3BzVeYiYcCNR12qYtjPzdIR25gQa13F8IlZws7XAjsGPZiv2ymKA25Lznawnz4aVbG4R4comSYNGEwqGU4XCN1iE7i7WznCKxdJRDLzhstwdJediG6OOIcBuY7RYJhkJkjhUa11WERxVei5c4ejZAeWtR0kNjS9Dh9DMukzbmPQ7O/Uirss3nQ1SYaatDnpMNeEVp06kSdb7I4am/z4QY64DyDw4urgdfrqIL7z4LpetHd/MBoT9/pBWNhlD8+pBqWJCbnWJQwi3eC5mDx+uPwQj80jVJyQp2hbVEG0ai3NO8qPjJCWB5jzEVulPJE3Gi0JsnNGg3+/Ed/oxKmCoJbCxw8SEh3tfdmJw7czWJ48cPYgbsLsQ1pmBEbQfAy1KI8kFluiGDyRAFLzAJoSnRhmZ8IsanKAoOeHzPuDzlq9AqGg7h0XkQLTFr7EVpbWp3YwBguWIzCikspvh5QtJQtE7VAVcYVa08IaEdAIb3p3HkkKDHMKgNEsWH+IJUJpgip8+Do0IyQmHOZJFjRnzpQytK3Awlk35sTA04R4KbwzBctLBAGAi6XL9W2UR7srUX3U2NVh9mt6Tvs+j4rL1V99HfaQ1880ujom2QrRjK6P3oaZG4PwqGjFScvrkGXqbVzPLdbi974zMalady3huD6LgPOPeXqq6pfUIbxK88EodWxXB2IEVAUEwfMfiK06EsOME1Kr6EFAGlwyfEvxgIbBKSy2VcEymHK42wZaizeCi3Bu3tDZVrjGVbbvEGaIAgtTTiAUntTBJTVu3SoYI23wwCn5IIAPBjgqxTE/oDG2uzjWZ/tJR/lQwkVyliP0FcJCv96NMZ0BFGbrhsEAD5Uf8AQjN6qeEMgbFCoRRdCHJ8Gf4MbtByEAGZVc/DHL/jHysqGkbFt4EDz22YdIDYtKxhMyiZQiPBhi3x7ZOYSDkE6mJxIIDLTOpnVS6Tj5x4N/eC/wBtMgUEEmagOTmcDvMabzkfGH+WPG0Blx0v1M3oN+8dd/tNvt6H4mEIs2w0Xoq6kXLlkR7UVjbZTuI/20r/AJoJkU5ZV/NH+8n+hBA1HewyjeP1GHOfDLdr8S4Qt9kw3s7o8nzT/cTA7qu3W5/oIf2CIupKgHPkowJVh7tEv/XDkniDbQMOLXjimf7ZOb5iFn8Ex11zCGXFznZDn/COObXBjrKF7bhVBnmJ4VuJ3gwUXjcCif2NwKt28MMMd9al/MsCtrA2xEjoIJRGkHVtAFs5vxwz7aeCWuHg2YtFzKFpFmtzGy/lSg5xxW8wgVEslWwwJ2ZWZbpKnSmiS/wIVV8EDwHxA1gZSq3P6I49QRZU4ymMR2XL/nUIZyxckNhJWl5itOr9+g1BzSECjSiPgCqpWXrgwAAQlxcjohUoif1wzmtzzNkrRCAMoyIRam8ODsm3Xhowa7HfShoze76sYBWaWWQckhB72U+ejS26uzNkNH1sZsmSSJ1idD5j0AYcx5Hgzo8cvgWnnnKPmWbDB55YbfEbwXMW0AFxT3h944yvj5MubvygHB8yq4ixNu6H9FA4f50ws3p0k6SdFAOF/ChyJQcJiU5TJ2f1KBoEWhzX9Bo5uOeMI6XE0PR7aqja6w2ezpHRcD/KXDVZ/wAXSDR+4b5sIqXauJ3iaV/XtLH6ZcuZiaOsOKhTc9gQDLRWvZKpxs/8EUEe8dnYZeJcufJTe/upzzxTqwwzq6K47YOLA0aJo6oQZC7Y9kJagA7zPQnnAQ0nACOlqTgNc2JG4C7qeUXYqhZbFbcC6QBBO2A+Y4W2N5sfUm3EpNkBC+Tq676ZLzEQLXELm7sPHRmreGDLAneN1hNLAcZWuYAi4XbxgxO884SEzBjYGFuSlWC8IDczEQoeJUYZp5JHUmwQFYbspTCORpwloBgjBpuXnTNgIhimswdFRBT4gPDcrZIuAK1BuUIY15ZHdi1mKC2ii5RHOHBDR4YaD0ErQ9DNjPdWkDsJV/FCrCFYuGqpU930bI7X4zqTvGvxBhptm05FS4uhjtfuDr+Lr6HCYHy11xd+32Q0ZYblbwJeWOvC5fdLhok5D9+itDdDT/zmw+ip1M5Xox/k45d3ZYcLIbTGiRG984kqVAHFpw7R4o8vCmpKykPgl9svuOnlHdCDHZTI3UfLU+cUHEuXKPaZbN+SVe9mUULAQQJBhkqq4Gg4TKrbZtylHBKE6MpL6m4Xsw2l/ZbkXO+mLIKHc6pRoCKfCZoACQ0CKjLgxAg8FkEjYAjovKnw4I9xiFwG7ecyKNtO4gy2Q1yClV2WswYQ3wBJad8tFVCgUgncl5Ewl3sl0YMlm0xYwhUqaBm+lMx9GYC0oUJkagQE82jPlwjqXIcSNvFMsGw5ubNRTAYYEC22HLZyqYHwOCGioUg5RxkzLblzGNyCahNkuXF4ptag+l9GyPzaMIs5hpLoq7rCOmxmwvSND11aWPefvWo7e/79GDctVx2nCfQ+d8egRnxj7hOOtgn8h6LdH/iQ1dfvxPho6udLo7suJsK+y5Q7TC7KcIBmKWFK5RzDCxKtw5Q0Kwzx/evGb3p9GL1QATjBJ8xKzEnrK8iKyYiko7qXvz+iB0Tccx7ZcragkL3b7lIiWQIYzvmCcUFacqdSdSMZp/ZFd0nTRcYXeHBVFzazKynOAZuDACEXuwc6AiMOAqTMPUlY0EFmzBMkADDrKdUE6k60sK7/APEC3E6CdBEUMFapBgBOmjy0EyG7Dlo8JaFb1cIDrKeyIbicoyzS0IC1ONIDkGV6xq8pY44QGW+KrqhXFOltd0mxHU1HQjpsn1oOu9ExuJAhywbEYkWJwOrQKlSlvKQY1yJ+DrpVSyPZ5vsg6VKRUo1sm6eL6JTnLOcsjrgKH4hzCPOJ00YVm6HKR/tp/qSr+SZmhT+if60P7iW/yRjAQtigtCdJLS61AK7EPiBI7I71KiJb8WCbfBm3NsxdqT/dQ2XmwNYX2jtE2g8bROV5CFn8jTh3DbcWNvEodkjlj7R5fCzrYDiW/wDWBy5m5O0z0V9oh0rjZDYicyDEeZ8Eub+eYW3Y2WX63Y78yNh90EaHbhaG9XklwbH+yPLlfCERCVj/ALShtL5p2OizEYDwxbcsp4I8hK8YV8JFjOgG2SCo4IhIXUWj+wSvaEJKcISdOHao3ZGy6zpkOXK2mLxOknSTpIUoRT2J048pLTae+IlpCWI4JDvCFG06cr4EtpXlOUolIboBKICEQMkWoOZuzY/8bi6O0xiaXFCmznGGbZN07CVEIcZyx0JbVfpOXH6MG4fMOX8mOOQmxfinTeJQ/jBUOgKmD+CHHaZ4Zy4ZdptV5ZVv5IcT2WKdqk5YrNs5zmvkwPa/Mw1UXiGvHEW3kEokGA2KLfaK8E6WdNHMxEO9SkIBt/BH+mn+BDjRtkt/FP8AGnReIKkCz+bLzZOghyJQQ/wleYJ5JRDEaZg+S/MDEGYRfm4MslwWbkZXn9OidlDeC3XiOJRA2PwsbQbZGUlyE9zMLBOMKF0ecEvUQyPMa4xzAd62JjJm0IitKCrwxeKjMNdT7WKLTQskIcJZLlmn9CDBi6fh83oNt6D5SW9hCMuOU6fvS4xp2o8IsuXmeZPr0N9hNujpv7kQFMANpcUSXUsY6GbPR87VhuGyDR7Zt1xrcdLiwjLFBwjwAl9Erj+E3qHcnK7kw5UyXSFeDJCraU5SjlKVKP67SoDTAv6vRZeh4kGDp8fUohCpxxeI0HT8/Ql616n8fQ/2cJxvJL9EC9V2n78I6ZGbv1TY/wBkvRmw/VPode3+4wsCA4LVFwhTdsvdv8RnsB9xtAgW+IUoiFE87stxMskXUTaFPVYcociqKuzVh5rCFUcECumUL3YQOqRtutzHrH5YtBI8eCHX3zwGBqG3ZfFYjCgew5U4zPmacXZddCFU5ry3Bej9axMTpxgANgjHj+MIS6g3ozf+X0JOzBtr8xKD6NLjH6ftg6/Am1GXcYl7x9RYlwi8CLBokZue+jrDaMBN+bUNd59FqTZG9Np3hwakuX6hHaDmQa7Jte+l6A8ENo6lXeNLizncycIkCbImnkvohq66/wDxL0Yb7uK+yakS8t8w1uAs6PnQafgcorXmfr/wlVd78+iyR0nE/shHRV14K0SZ/hzDKipGXwr4EGoIJPLcKpwgbB2XBMOXdVqOB3qdiM45RCbdDekqMSaKNq2YYuXV8S95sBUAgFu8N9P7IHCqpTiS5d3nLhFs6OicB5HGDywmeh/2Yj3IBKQdgy6cJ+2DiLcGpcxP1zBJem8gda+0xvtSzRiaZLj8MeIuoZe7Bly5t7UeJcuKPL3dFykciNMQlBSszKc500eWlq46KdBOtHGYZbznR8JeNO82y/QuhGXouXiBu9DYxYe7B0Iq9iDjV2n1dDRRHGqzAv3BDQnzWtTac1PiIR0NdRfxXozbk/pgy9MieKjwdP1oOiveFLly4st/4ujEGWUvSIe2eNLlk52UV2WUCJJ0UpFcJ4g43km1xo7cWMzlr4YJ0XDSF4thLXnKKgrzpl/1IXYsl13Z/uEeZvuTi2e5EWMP+0zH3TY+8WbMZzrfbc2nGaKlcEHF9EDiPiIYAw4dWYMeCNLuc6gcZ8Te9n2Q/wAEy4AdoOIvtOSvtKTP90asV61DjfCKf1lBXeBTkzj2jGOwsv49pn+tEzWKuVR0YngfCdP4hzF9oQBScoUFVnSeJ0j7THpv/AnWy/jmWXzKO+Fm6dVGrdHLSMxYk85LHFCRAVuzqMTzYR6QBwnTSkcQUOTOmaCCAJSEhLAg6XLiy9GVKYEZwdmcNHT9kNLjPOIrRSUNyV/kJ0kR4Z1HwwDA1BstlzUHBTS0W8I7kjHtHhRk2eZ0fmLYyMfeY/8AtOR5ZxByweIanIau5H+YGVjfhgf05tLcNmqgzIhy+J+ZALOPKo/4JTluGKAVtgOJLP6oMpTxDjzAkKuxzm5wfZEALK4rF4mMe9czqi95V/LBQvbbjwvEFp2vGNrJCQIsXyZaQ0KZ4qwDg+WAbSFwRlNjccGP8KA8EK5QrlKHZTw6pP39Wiy4BbxLyIaXBj8v2Zeo5dn2y9VWfL8iDGEUwP1z6H6J81H4vRwuR9ChsS4MuLhcYOuzsxYl6LROOG2lT6YQ0+6bWlQYZthpeI5cNtCO+1Db0X6b0WJiIiRh505F+ItkFhwHyinCO4l0uyIGUVu807/lmW6zKDXBA+BOhAQ+zYL7RMaMp4NK0bh5fpmyGsYqO49Cx9NCQJuJVjQWNOxDRcg8GlQjrq/ZouLcYWf60h6GqM3oQZJetqHBvAZcHQZZ2rw9bhXOP/Zpaqo94ZKowe1jFjUhoL4/dK0Y7zo+2Gv5OscZUI7/ACZ1WfG9B+VPgei8HQhrsosS9FnNQehbWuQzMgwmZaQ1WDqzZLl+jBFgei+ibPRX/kRyIcsjyohNyBK1m121Z8b9+gX30+KiaMfhh0ub1ykMvRFM8DPEuXp+/wA3S4s4/L0OQkd9qeMeg/XzQddx+6+liel0ujr/AETjLlxi/wCkku49QXqCUBh2GVhqyNAahUH/AHbB0SUphmsWTc4m06o0ihBQ2WqsSNWvalXuRMsDJyYGhAidz7Wly4uZzH3CMufOPubNVqYqcPv0uLBa8iBhpb30xMPSl6bs2asypgdd3fNppc2PpOP0ATulYsqDAOzEUSznOpHmS3sGZ00eSnTQNaGqenHp+VDbRiS9TwqGvwIvER0YNM05S7cDQeNnwkdGYdn0HSd7zCDpmo7koQfSzPvvzqR2mWbg/ehLjh9R8MNR7X09BDTwbPDBrRjYnB+BQHV5HO8BjGx4Dm4RBaFljLJsZEQS0Oyph7M+5lx5xCnciG4iIQAVs07sKis41BqAjja4kY2EQeDTDjhcsQyErgqoyXT4YMEHpFX/AGnXwfgQS8FRFYRFPJYh/MQc2tEQrrtvCDi7wwl1zmVHDg3Bt6+8zwi8K3/qfky/+0wMzmFRh5lhZTcMp0MdeDDG4rQy7OhP92da948Dui9OON5p/qR1BPeF4fMRrq5z8mMDkbmE5M1Sn3ibjxge0HkIvLDQ2Eo5QemHWSlxlizpVd1py03jH/RDmUpzfMM2ZXnQhyY8uJVjeFOxAOGgXuaErSvVsQ0+VDVnxiGpvrjOP3pL0Y7nVpcuIXnhCmjBEKsPeXbFjwTAWGkES5ywvPid3xMUHCOTkxH8cq/jlePgio144vHQFQcRzvc7HSxI9xxuntwNJABlOQvMP9su4PMQQQjPePC8sdhfLOCdHM5NeTluVL5bwozpanIMHelQoK95Sf7bAK48CDYe8uKTYvvm7L+8FvE94UbfKBC6tVJtiAHPgmzY8Q4ziP6Y0uQs2e7+CHVZsuWXaqhbdmrgliUnsPxaCMHSA0jIe4CCGNDPaFkK8mNjdwQE49qeyTloU93cQZRoA/fKfRXtL7gko0uujxHUF7f5hosYJAYb2UW8ho+YhF3hZh6k1oYi7sbsb4QlchHo62tBEmLBiYiXsi6qGGwzmc+VeggLuZMDGoygxqJD0QmI0MwZTbqk3sDTho1aGqSj17u7VZFOcyQbSjhnWjwDwjJTiF21Euy6s6E8h9ibvwNss8Uz38kOe+YV4jU8Er4fE6CdKUrNcko8JWAJVsBKMxEDE4r8M4TCLiIUBzt86XLJmPxhGrEsNTQfq3o/M5ml6fCngwizZLIAyw/ecEY2S0/Q9miwa3ipzRgpjtxbjd0/5gtp2lygxwCj8qCr0GVlRc4dyqNtJbDg75iK1t88KKqrPFuOAoHqiXpvpWDnyQhUu+6ly5c/T5+inufuJLiMspaaPuWFixaYMyU/bE46ZEQDkdC7CkhoPnSnnAXfEuTgytHs8tfUszEJS3XZMm24Y5jh9c8HOP0o8nSxWXmDXf7eguL0GwlYhfq10Xoz5mhD0Z9dsVyQit3Uz380pJwrhOiToSkJeArOWjMxwe84R0VK59v7glMGfPQlxhvtzISqhDcNB5SUFwuL7r7NEmzNzyp8MrEqmXLlwX9vof7+D0L2l+BAjosGN3D7s2zMhsTfTEhTMxUcrel7bLQZocrbIUleothp5y5u3MZSlRc0hdyobt05OiF3m1CZAOB3IEgdl9YlnRpSNdfA5Fwcejb+2dDTf/uyXDTQi3lG5egWfwzBnXFRthvQgXOtF5U71SVDka3jux0g4aDGEW2bGt4mgW1WPqLkWnGFBTBElRDcOLMvuxiJFXuzZr8GHENfkQdGUp20GoeJcsiAiAl80S4k4ASwuD6cyn14h3Jshqvhoxm9pnRJsO8NKhuMa9X7i6DqRWm26p8b0CannrwQNLmCcP4ZcdQyER0IvR37nxOg0VNyH3COhxASgVoTefq/QBlyF6l1ZcrhiCxvMqEaCCoQRFnlDGiExu7QbtR6kBt0TD3dkbi1C5uwCXtAggpIBwzoY8IzMXGtWz1D1NqnyQDd0jrRY3whjBms+J0mBecKhGSH8E/yJ/gQ77cYBIDOsOHO6bLLASwQIHQJfOejAGF7QcL88StcCUErndA3QeEzm6WQyXeVcHxDkOgG4II453ZbmjLygD0IAkscZ2J2YK3SAMwGb6G3ji1u3iVVpd/nnWoAOWb6sxbcuMA1iGg1uX6AdeEqVBYmzVYl+BitRabGOz3Yyo1EiV6Ct6eKWRSCQLrxUFOydFOmiQEcMzUbJXwxItEHsGFJf0lO8GwgRi+jgAoNtN2x0g1k4IsVbHJif9GfkMSLz4jGdY4ICxZa+OI/ogpqAH4gYZKrwnT8IJlxhuvCW/0ZSWr4ZdjPiVlN1g5sw39k5B4wTbwxlto+90y9QJFux8x2UHW6TAt2QfaLRSb+4IXRchjaUP8AwIcXQBUKC94laiodIGLBxZyrbDe+5MW8WWYJxJi3NDVcE6edJHkS9ergBICGeUHkqTuSR5EEc2z/ABpnKiErNDEVKSA0Gpsf4ZRKhqfJwFbTFkogDuID2pRKIyvuH1CpiUTh+WZhCAG8FDMUpib2OLMQioJIqpUo5Qg9dEQm93mIuir2zOlTad4MQ0wc26uu1BQem5cvS5fpNqI2aMdRQ4yrkQNL4vuD4yvJj140zYGEi7ckt4T2iDLlJFhkTd5Yc07sVhqTi34nSzgCSvYzs8xrrcQ5CdJEzAgxzjbxOlHkkYAfptKiuSdCEf2YlFPIlxZwgEAe8fBKSiUQntf8SjSjlAzmP+UCoh4RCbTG1QFmv8iUcpRAIymt/oQqpiYgCVs/xAvaPAE2YlV4YmPoFQPiEVWFUzea196JmKkcFvSEeL8eSPLBQ9XaXSV9KGYM6XWUeJg94+FL0YJn0FcDaM+i0fuXdTCykss3aRTYw9ob7DpiIohpdVoGVvdgFNoP+hLGcd4tkUYfgYJ8BCzLnBYHafdAhN++QSIL+TAYXWuHeJtY7s2z2ohM73lWMZlVB/JcNsSyK77zErRb2oauobNVnHqkTOBE0390WIaKl6TbL0YftNmuNb1qHoW6YmTE8jlzsJlyNJsOXB8fNKkeQghOrOlAREydqEVjGCPb1RZcvQgkNB+CAF0QVmYw12prQkxW+M+GErRGl3cPiSiAGnwP1FhpXr1GNafg2mSdNUjaOT+mqk8/C3S4b/DiKPx8aCFZyS9RbC0ZXGU47B7AzgOb6S9M27f9uGk/MS3UHhNmJCeG3iBVzi12avCGu0RlxHKVA8lIwYNXg85kTab3Y1Hlh3Go8cJT+RgSiUStTtU2ohWlKgW1CjQU4JcA2gakzeJJ9KGJBqrnDlAneAmE0Rqz54RJ50Am5NmMCUDbAURiRpDV95cNtBfaga702mrtpCVrGu6NkKizNzZLnWIIAeCLEXS5cWMvU9Bz7TJcyUSoy3vwJUWbJukx0wHfBBElQYlvi+IyoENdvK1GfZll3Uy7+/eBqU/XZgaJPkJdR4/V6Nr+41uUveSe9oOm8HW/ii8bWofFlUqtB/DxytQ8GfohpqoDyawzZQDmg2SDWJ0uCyV13FyiwXw/TQjb8hHejb2N0cRhutBAy3XfNm3nHECz/VR+JF0pCgW5Jpm9e5UpES57yDBIc4jzozNwldmC8E6Cc0QmNuhyM6WdBGmdh0QscUxZjdjBDMr4ynSeb3SvEOew50edKkCotm3HVlPeBq6h6g00wXZnWlBbwhzZ1NFDhuKd6V3BjjszpzrtLfFqoJXwRTlDoS1zhSa8aDLeVhlKvOFu0ASc4KNbly/VcuDN+fA9OFVoxYiuiHQmXan3Axq7MFdQeivsIZNGMtEU6cMy4jdhTnOtOpCFDtBFbyznOsRY2ZGF2TOtOsaW9DP/ADOinLEOYS09fyMOdOoSzjA3/wDCMfp+pZzlOegX8WMpzJ005ggqjM+URYNY2VS9CcDd/VGBYEwTpQwUzIO7sxRHiActZvwmUx8w5clZD0x+aV23WIlRUcqQ/bLopphwHB5rlNy9iNlscv5IERt8x3RRFJ0I8IZRBuMvNoDkgsuEINkxgYhyUCijhH4uOHLnLJRCB5jBjaA7oEpMeSCQOEOmIUrYeU6UFom0YTBzGSmUlZ0oW0igsi3CUqKgbQpKZVLFM5PdhyJSIjoaVdApErKJQUJUo0YaVRisQdWVd5siy5l0bhH0X6bl678fj0dDEGNGLEQdZJcocYnwR7ASmiTgxXBynidqcoz5QP8AJCib4QU3kC3aMZac2KOWF48mV4+eAfzRXe/MBKsNvnQAcJXwh6DcnPNqFVBFMsdKIqQh+Yiu5K4DahZuwrFeCcWs6EKOzf5Q30gbZnF+EDjwSpRunxF10wLn5nTllF1T4znTXsZyKVysb/KUtkB4IcqM7qVUu/0TBpU9tf0g60E6/tL3OcI4vIiut7I0F/ixF4EuGg7q3waOiwwaYuMH5ObGuI8XVoMxN30jNpiBJhALVy6dQ8rFUd8hCPaEIa7ZYRirEp0ESouVtCmWTjAmC8LGflMchWMky0d/KkNXg7w4jpvTboRhvuas2oba7pNVh2gy9Lly5ehovo3YqM606SdeDjEEMQ8ObOBCyikqKuE2ZUBgPCYEBiCCiURCKIjJtEU9Bla5jsnCEYuGXL9ZdSLHq/v0Kk5fUg67Yr6Inhr0L8/PW5Q3I/YgzhBnzkV6yGbDr6Bg9ZeRioJcqWq6M3Jt/wAtWO+WPkMNQVUbhyraCqWbEZnklnZhI/Kmx5GVr8f9NUhdBnTM+aJs6spgeKGhB7I6ATpZiG+3Ewh4SCQi8Ait0QVJDojouoHKgwgxwCioSnpxHKNybUVCoRcjp6Nh3mzRiwzbqtT5ktvQJv8AYmNF0rbEeCHPgEEIv0G+l+o0MsvFhxZRsIBAUd4BUrR2g+GOhPhzPtHow0hi1M2xWaLGY9D7JehD2v8AoaEJv/qm/QuJifJHy+nbB0LwQ2Rlza9Uf7OHop7z9+io2OT3zOBq1MR4yJcubfr/AH6Aqxjd4ZlqJQTIRE4jFxPjMpiLgFBVMYPE5xN+LPdIyrvn1F0jESXiXLmXZiwlkpemt/XASkIr5aMFxJ1InmVbEZOEIJcPQYDnOpFsq3mxJU60YMT1hFgDCrZDnTiEaKnVF5iU5w50RfMOYTqQPObYxWFsefAsK0AGGU5MepOKZab0VEi8I2qqBhk8QIAEK5kq7yuKtiDNOfov/wA9yfYxYMZvQ1Zu9ouhDb7ReL0GNIzZMi6aLlLqMdg5KA0Ew6pLL0+UQcS9GO7fsUuWaI9t9xdCFejI212M+Ig67/n/AN5wlkxMyvBYhly4oRA8GJTuPMeTgzVIDLun3GJ1/EOU+I9VGRsyFpzYuDctzGa4Y4HGWeRlhzpgBo5GobQOxugkNoqdJytOWLkgJW5o8DwpYMvmFeLzO9new+1oCQSKNLMw5Gn0YdDlGG0A0UxHfZV4TozpRwVKO06EOEEMqANLnAqdLMNKEeNVqh+UAkB4QkAkREpylICMbgGp82lxm+tiLOeGjEH13BhpslqtzaMZZVTYasK8NajwwntR5SC3Gi5V2j1ks4pfNhiJGCLwkVJwxAWiXJddNTxcXnPtOvhzerebTd2ltZSvjgPEnKAqczz8efhz8ca18fvHmCdfC/fBt3/kgjTf0JnbjgRrlCxUzkDxA4oFUyu8rP1J1mlOtay8BL1/0n5srz8oYAvzHMZqdJK9hOhDQrP/AG0FBMRh1BgSiJA+tIcxJaH2Tm3qBQAoQ4OMKDMOZCTAjxOG607wbVvtLW554R4HwgeXxMP+Cg8TSrSMx72IIWJLOcS3EyXc8YLsJZESnsMDBOMEZ8WbGlzhMILKm+ibOLFPeVZYMtopFZDYmZfoWcNd8BoTfJgJcuLEWlxY77yLoszXrAjMZChq+nHrzJvHXRYs2wAtiHBovIpcxUv2CA+DxLN4alVCQ71KuE6EeVMO4lSiVLuxD4DVYfC+o6Ew7n7aXBnxWKwlaLMA/a6GirrL7PQ0COT602apicN1+9DS1VYfjXW4a/HRhowZ8n7Q0Zh1fuZev6PODiXo5ElzFA1xoqmAiSHrqOlfB9RhnSExcX1DQN28UR8RJE9Bopb/AGi+89a6G2gLb5x4T8wx3bHjL+I94dRcd4hsoy3qALsdoJib/wCsS4faKVNi4Jx+d5lY72e6bXSnFJSQBsT4ExPQ77/obcG0IwxthoqGbJcYx795cshhtgTMUQi8JGAaiIcIQietv0XNkYEIpsEs3GiQHeIFko4QkiNB0qVNjpHX7+iab0dv0NXaOi5P01Gbjl6OXfzPstWPAmwYM33X9mqQq6/ImyGtvd+zLi6fR+9Fhc8D6sHRhLFL2+9qxa7D7Zer/TxmyOi4ZtTYjoz6f1GEqfMQ21skcVK1mJcUlDu5iYlkR7LCqmJiBFXCLIhM2yBcCMQ1c8xBJZGaZdy4iTKTjMRiWXjBJZLOcCQAzOsTqzbXiRRvOrGJI1cY4o8D5Q5XzGm8QbypyqKSru4As3KHE6Upym0mzV/8mHqatRWdWX8sDXbPuegfLqx5QIPI9GPUINfgv4lR0tUbyfjasFF1vkIw0w6n2mpcSLyr7ixoaMxP2tL0cE5/WFly5ufvCGg6YB+bQdFi2cx8RQlOc6aMoEwnhhy2m62hRiYjb4pe6HHnoVAWlp0UE4aAWql2rxBUySuVO/4neBAC5rnw5ucyHdfjzEOZhzUdJV0pCrdP9qAccbeZeCKX5zudI39ZXmwZxYRhoT3MyzbKanOiK6WR96U0UhVJS20uhCAxxhBKIhKnamyYmJU3IissvSpxYarFARIR1YaOpHUPQ7Zt+geb0bWfKaMZg3b8aLFTIjsEOEXjEtmOjE4lAtRF2QkLjavEYdKB4E3VERSbpVaYGYMOEo4ZwJLXML8EIUR5SdAmDSwSUVhCAcjvApAuJZEWGnPWCUlXKKAH9jLnCXxiDh8bjIJDJl2by+QMn3AA2lvEghuQmta+z4YxjFb6Cos7n5isB4Q5aKaD+RhyUq4E6UQQnuP3ESiAQFnSKNAh8qDX5OLxQ1+V02gzedRB1u7ceEuXoq7uDOGjmYPWBi8rCGnwPQ2HeBjRjbzY0WZFBjE0OPchwS4ysuxDR9f/2Q==;" vertex="1" parent="1">
                    <mxGeometry width="520" height="383" as="geometry"/>
                </mxCell>
            </root>
        </mxGraphModel>
    </diagram>
</mxfile>